<svg width="26" height="27" viewBox="0 0 26 27" fill="none" xmlns="http://www.w3.org/2000/svg">
<path fill-rule="evenodd" clip-rule="evenodd" d="M13.3027 25.8838H13.2975C11.1975 25.8831 9.13409 25.3588 7.30142 24.3639L0.649902 26.1004L2.42996 19.6296C1.33193 17.7358 0.754158 15.5877 0.7551 13.3869C0.757852 6.50187 6.38658 0.900391 13.3025 0.900391C16.6591 0.901832 19.8095 2.20227 22.1784 4.56263C24.5473 6.92286 25.8512 10.0602 25.8499 13.3967C25.8471 20.2801 20.2206 25.881 13.3027 25.8838Z" fill="white"/>
<path fill-rule="evenodd" clip-rule="evenodd" d="M7.23183 22.7495L7.63442 22.9884C9.32714 23.9925 11.2675 24.5238 13.2458 24.5246H13.2503C19.3269 24.5246 24.2727 19.5805 24.2751 13.5036C24.2762 10.5587 23.1306 7.78983 21.0491 5.70663C18.9675 3.62344 16.1994 2.47563 13.2546 2.47461C7.17333 2.47461 2.22751 7.4182 2.2251 13.4947C2.22424 15.5771 2.80712 17.6052 3.91074 19.3599L4.17287 19.7768L3.05911 23.8437L7.23183 22.7495Z" fill="#1A1E22"/>
<path fill-rule="evenodd" clip-rule="evenodd" d="M19.5048 16.5604C19.4273 16.4211 19.2207 16.3376 18.9107 16.1703C18.6007 16.0032 17.0766 15.1955 16.7923 15.0839C16.5082 14.9725 16.3015 14.9169 16.0948 15.2511C15.8882 15.5853 15.2941 16.3376 15.1133 16.5604C14.9324 16.7832 14.7516 16.8112 14.4417 16.644C14.1317 16.4768 13.1328 16.1243 11.9486 14.9866C11.027 14.1011 10.4049 13.0076 10.224 12.6733C10.0432 12.339 10.2047 12.1583 10.3599 11.9918C10.4994 11.8421 10.67 11.6017 10.825 11.4068C10.98 11.2118 11.0316 11.0725 11.135 10.8497C11.2383 10.6268 11.1866 10.4319 11.1091 10.2647C11.0316 10.0975 10.4116 8.45387 10.1533 7.78524C9.90165 7.1341 9.64608 7.22231 9.4558 7.21202C9.27518 7.20225 9.06829 7.2002 8.86164 7.2002C8.65499 7.2002 8.31911 7.28377 8.03496 7.61809C7.7508 7.9524 6.94995 8.76028 6.94995 10.4038C6.94995 12.0475 8.06078 13.6354 8.21579 13.8582C8.37079 14.0812 10.4018 17.4539 13.5116 18.9004C14.2513 19.2445 14.8287 19.4499 15.2789 19.6038C16.0216 19.858 16.6974 19.8221 17.2315 19.7361C17.8272 19.6403 19.0657 18.9284 19.3241 18.1484C19.5823 17.3682 19.5823 16.6996 19.5048 16.5604Z" fill="white"/>
</svg>
