<svg width="18" height="18" viewBox="0 0 18 18" fill="none" xmlns="http://www.w3.org/2000/svg">
<path d="M0.5625 11.1375C0.87316 11.1375 1.125 11.3894 1.125 11.7V14.5125C1.125 15.1338 1.62868 15.6375 2.25 15.6375H15.75C16.3713 15.6375 16.875 15.1338 16.875 14.5125V11.7C16.875 11.3894 17.1268 11.1375 17.4375 11.1375C17.7482 11.1375 18 11.3894 18 11.7V14.5125C18 15.7552 16.9926 16.7625 15.75 16.7625H2.25C1.00736 16.7625 0 15.7552 0 14.5125V11.7C0 11.3894 0.25184 11.1375 0.5625 11.1375Z" fill="black"/>
<path d="M8.60225 13.3352C8.82192 13.5549 9.17808 13.5549 9.39775 13.3352L12.7727 9.96025C12.9924 9.74058 12.9924 9.38442 12.7727 9.16475C12.5531 8.94508 12.1969 8.94508 11.9773 9.16475L9.5625 11.5795V1.6875C9.5625 1.37684 9.31066 1.125 9 1.125C8.68934 1.125 8.4375 1.37684 8.4375 1.6875V11.5795L6.02275 9.16475C5.80308 8.94508 5.44692 8.94508 5.22725 9.16475C5.00758 9.38442 5.00758 9.74058 5.22725 9.96025L8.60225 13.3352Z" fill="black"/>
</svg>
