<svg width="19" height="18" viewBox="0 0 19 18" fill="none" xmlns="http://www.w3.org/2000/svg">
<path d="M5.5625 3.375C5.5625 1.8217 6.8217 0.5625 8.375 0.5625C9.9283 0.5625 11.1875 1.8217 11.1875 3.375V13.5C11.1875 14.432 10.432 15.1875 9.5 15.1875C8.56802 15.1875 7.8125 14.432 7.8125 13.5V5.625C7.8125 5.31434 8.06434 5.0625 8.375 5.0625C8.68566 5.0625 8.9375 5.31434 8.9375 5.625V13.5C8.9375 13.8107 9.18934 14.0625 9.5 14.0625C9.81066 14.0625 10.0625 13.8107 10.0625 13.5V3.375C10.0625 2.44302 9.30698 1.6875 8.375 1.6875C7.44302 1.6875 6.6875 2.44302 6.6875 3.375V13.5C6.6875 15.0533 7.9467 16.3125 9.5 16.3125C11.0533 16.3125 12.3125 15.0533 12.3125 13.5V5.625C12.3125 5.31434 12.5643 5.0625 12.875 5.0625C13.1857 5.0625 13.4375 5.31434 13.4375 5.625V13.5C13.4375 15.6746 11.6746 17.4375 9.5 17.4375C7.32538 17.4375 5.5625 15.6746 5.5625 13.5V3.375Z" fill="white"/>
</svg>
