<svg width="55" height="60" viewBox="0 0 55 60" fill="none" xmlns="http://www.w3.org/2000/svg">
<path fill-rule="evenodd" clip-rule="evenodd" d="M13.25 2.90164C13.25 1.30348 14.5408 0 16.1429 0H52.1071C53.7092 0 55 1.30348 55 2.90164V49.4918C55 51.09 53.7092 52.3934 52.1071 52.3934H32.2857V54.7213C32.2857 56.5118 30.796 57.8341 29.082 58.6498C27.2932 59.501 24.8924 60 22.2946 60C19.6969 60 17.296 59.501 15.5073 58.6498C13.7933 57.8341 12.3036 56.5118 12.3036 54.7213V52.2581C11.561 52.3467 10.7865 52.3934 9.99107 52.3934C7.39331 52.3934 4.99247 51.8944 3.20372 51.0432C1.48975 50.2276 0 48.9052 0 47.1148V18.5902C0 16.7997 1.48975 15.4774 3.20372 14.6617C4.99247 13.8105 7.39331 13.3115 9.99107 13.3115C11.1302 13.3115 12.2276 13.4073 13.25 13.5852V2.90164ZM15.25 14.0666C16.4361 14.4404 17.4822 14.9485 18.2877 15.5769C19.253 16.33 19.9821 17.3517 19.9821 18.5902V38.1681C20.7247 38.0795 21.4993 38.0328 22.2946 38.0328C24.8924 38.0328 27.2932 38.5318 29.082 39.383C30.796 40.1987 32.2857 41.521 32.2857 43.3115V50.3934H52.1071C52.5959 50.3934 53 49.9941 53 49.4918V2.90164C53 2.39931 52.5959 2 52.1071 2H16.1429C15.6541 2 15.25 2.39931 15.25 2.90164V14.0666ZM30.2857 52.2526V54.7213C30.2857 55.2939 29.7627 56.1109 28.2226 56.8438C26.7572 57.5412 24.6625 58 22.2946 58C19.9268 58 17.8321 57.5412 16.3667 56.8438C14.8265 56.1109 14.3036 55.2939 14.3036 54.7213V52.2526C14.6788 52.5136 15.0863 52.7445 15.5073 52.9449C17.296 53.7961 19.6969 54.2951 22.2946 54.2951C24.8924 54.2951 27.2932 53.7961 29.082 52.9449C29.503 52.7445 29.9105 52.5136 30.2857 52.2526ZM14.3036 49.0164C14.3036 49.589 14.8265 50.406 16.3667 51.1389C17.8321 51.8363 19.9268 52.2951 22.2946 52.2951C24.6625 52.2951 26.7572 51.8363 28.2226 51.1389C29.7627 50.406 30.2857 49.589 30.2857 49.0164V46.5477C29.9105 46.8086 29.503 47.0396 29.082 47.2399C27.2932 48.0912 24.8924 48.5902 22.2946 48.5902C19.6969 48.5902 17.296 48.0912 15.5073 47.2399C15.0863 47.0396 14.6788 46.8086 14.3036 46.5477V49.0164ZM12.3036 44.5372V43.3115C12.3036 42.2553 12.831 41.3593 13.5903 40.6471C12.4688 40.8658 11.2532 40.9836 9.99107 40.9836C7.39331 40.9836 4.99247 40.4846 3.20372 39.6334C2.7827 39.433 2.37521 39.2021 2 38.9412V41.4098C2 41.9824 2.52297 42.7994 4.06313 43.5324C5.52851 44.2297 7.6232 44.6885 9.99107 44.6885C10.7956 44.6885 11.5714 44.6355 12.3036 44.5372ZM2 44.6461V47.1148C2 47.6873 2.52297 48.5043 4.06313 49.2373C5.52851 49.9346 7.6232 50.3934 9.99107 50.3934C10.7956 50.3934 11.5714 50.3404 12.3036 50.2422V46.5532C11.561 46.6418 10.7865 46.6885 9.99107 46.6885C7.39331 46.6885 4.99247 46.1895 3.20372 45.3383C2.7827 45.1379 2.37521 44.907 2 44.6461ZM2 35.7049C2 36.2775 2.52297 37.0945 4.06313 37.8274C5.52851 38.5248 7.6232 38.9836 9.99107 38.9836C12.3589 38.9836 14.4536 38.5248 15.919 37.8274C17.4592 37.0945 17.9821 36.2775 17.9821 35.7049V33.2362C17.6069 33.4972 17.1994 33.7281 16.7784 33.9285C14.9897 34.7797 12.5888 35.2787 9.99107 35.2787C7.39331 35.2787 4.99247 34.7797 3.20372 33.9285C2.7827 33.7281 2.37521 33.4972 2 33.2362V35.7049ZM2 30C2 30.5726 2.52297 31.3896 4.06313 32.1225C5.52851 32.8199 7.6232 33.2787 9.99107 33.2787C12.3589 33.2787 14.4536 32.8199 15.919 32.1225C17.4592 31.3896 17.9821 30.5726 17.9821 30V27.5313C17.6069 27.7923 17.1994 28.0232 16.7784 28.2235C14.9897 29.0748 12.5888 29.5738 9.99107 29.5738C7.39331 29.5738 4.99247 29.0748 3.20372 28.2235C2.7827 28.0232 2.37521 27.7923 2 27.5313V30ZM2 24.2951C2 24.8677 2.52297 25.6847 4.06313 26.4176C5.52851 27.1149 7.6232 27.5738 9.99107 27.5738C12.3589 27.5738 14.4536 27.1149 15.919 26.4176C17.4592 25.6847 17.9821 24.8677 17.9821 24.2951V21.8264C17.6069 22.0873 17.1994 22.3183 16.7784 22.5186C14.9897 23.3699 12.5888 23.8689 9.99107 23.8689C7.39331 23.8689 4.99247 23.3699 3.20372 22.5186C2.7827 22.3183 2.37521 22.0873 2 21.8264V24.2951ZM2 18.5902C2 19.1628 2.52297 19.9797 4.06313 20.7127C5.52851 21.41 7.6232 21.8689 9.99107 21.8689C12.3589 21.8689 14.4536 21.41 15.919 20.7127C17.4592 19.9797 17.9821 19.1628 17.9821 18.5902C17.9821 18.1988 17.754 17.6972 17.0574 17.1538C16.3675 16.6155 15.3235 16.1286 14.0016 15.7897C12.8209 15.4869 11.4544 15.3115 9.99107 15.3115C7.6232 15.3115 5.52851 15.7703 4.06313 16.4676C2.52297 17.2006 2 18.0176 2 18.5902ZM14.3036 43.3115C14.3036 43.8841 14.8265 44.7011 16.3667 45.434C17.8321 46.1313 19.9268 46.5902 22.2946 46.5902C24.6625 46.5902 26.7572 46.1313 28.2226 45.434C29.7627 44.7011 30.2857 43.8841 30.2857 43.3115C30.2857 42.7389 29.7627 41.9219 28.2226 41.189C26.7572 40.4916 24.6625 40.0328 22.2946 40.0328C21.1846 40.0328 20.1291 40.1337 19.1676 40.3152C17.5956 40.6118 16.3185 41.1149 15.4622 41.7039C14.5881 42.3052 14.3036 42.8784 14.3036 43.3115ZM26.1063 16.4296C25.5577 17.1874 25.1875 18.2843 25.1875 19.541C25.1875 20.7977 25.5577 21.8945 26.1063 22.6524C26.6558 23.4115 27.3286 23.7705 27.9732 23.7705C28.6178 23.7705 29.2906 23.4115 29.8401 22.6524C30.3887 21.8945 30.7589 20.7977 30.7589 19.541C30.7589 18.2843 30.3887 17.1874 29.8401 16.4296C29.2906 15.6705 28.6178 15.3115 27.9732 15.3115C27.3286 15.3115 26.6558 15.6705 26.1063 16.4296ZM24.4863 15.2568C25.3069 14.1231 26.527 13.3115 27.9732 13.3115C29.4194 13.3115 30.6395 14.1231 31.4601 15.2568C32.2817 16.3916 32.7589 17.9095 32.7589 19.541C32.7589 21.1724 32.2817 22.6904 31.4601 23.8252C30.6395 24.9588 29.4194 25.7705 27.9732 25.7705C26.527 25.7705 25.3069 24.9588 24.4863 23.8252C23.6648 22.6904 23.1875 21.1724 23.1875 19.541C23.1875 17.9095 23.6648 16.3916 24.4863 15.2568ZM41.7176 15.3439C42.1977 15.6169 42.3655 16.2275 42.0924 16.7075L30.7353 36.6747C30.4622 37.1548 29.8517 37.3226 29.3717 37.0496C28.8916 36.7765 28.7238 36.166 28.9968 35.6859L40.354 15.7187C40.627 15.2386 41.2376 15.0708 41.7176 15.3439ZM40.3028 29.741C39.7541 30.4989 39.3839 31.5957 39.3839 32.8525C39.3839 34.1092 39.7541 35.206 40.3028 35.9639C40.8523 36.723 41.5251 37.082 42.1696 37.082C42.8142 37.082 43.487 36.723 44.0365 35.9639C44.5852 35.206 44.9554 34.1092 44.9554 32.8525C44.9554 31.5957 44.5852 30.4989 44.0365 29.741C43.487 28.982 42.8142 28.623 42.1696 28.623C41.5251 28.623 40.8523 28.982 40.3028 29.741ZM38.6827 28.5682C39.5034 27.4346 40.7234 26.623 42.1696 26.623C43.6158 26.623 44.8359 27.4346 45.6566 28.5682C46.4781 29.7031 46.9554 31.221 46.9554 32.8525C46.9554 34.4839 46.4781 36.0018 45.6566 37.1367C44.8359 38.2703 43.6158 39.082 42.1696 39.082C40.7234 39.082 39.5034 38.2703 38.6827 37.1367C37.8612 36.0018 37.3839 34.4839 37.3839 32.8525C37.3839 31.221 37.8612 29.7031 38.6827 28.5682Z" fill="#FF4500"/>
</svg>
