<svg width="60" height="60" viewBox="0 0 60 60" fill="none" xmlns="http://www.w3.org/2000/svg">
<path fill-rule="evenodd" clip-rule="evenodd" d="M29.5106 0.125513C29.8154 -0.0418378 30.1846 -0.0418378 30.4894 0.125513L59.4725 16.0378C59.7978 16.2164 60 16.5581 60 16.9292V58.9831C60 59.5447 59.5447 60 58.9831 60H53.8684C53.3068 60 52.8514 59.5447 52.8514 58.9831V31.5852H7.14855V58.9831C7.14855 59.5447 6.69325 60 6.13161 60H1.01695C0.455304 60 0 59.5447 0 58.9831V16.9292C0 16.5581 0.202194 16.2164 0.527533 16.0378L29.5106 0.125513ZM7.14855 29.5513H52.8514V27.6072H7.14855V29.5513ZM7.14855 25.5733H52.8514V23.0608H7.14855V25.5733ZM2.0339 17.531V57.9661H5.11466V22.0439C5.11466 21.4822 5.56996 21.0269 6.13161 21.0269H53.8684C54.43 21.0269 54.8853 21.4822 54.8853 22.0439V57.9661H57.9661V17.531L30 2.17708L2.0339 17.531ZM23.8684 12.3829C23.8684 11.8212 24.3237 11.3659 24.8853 11.3659H35.1147C35.6763 11.3659 36.1316 11.8212 36.1316 12.3829V16.9292C36.1316 17.4909 35.6763 17.9462 35.1147 17.9462H24.8853C24.3237 17.9462 23.8684 17.4909 23.8684 16.9292V12.3829ZM25.9023 13.3998V15.9123H34.0977V13.3998H25.9023ZM25.005 36.2512C25.005 35.6896 25.4603 35.2343 26.0219 35.2343H48.7537C49.3154 35.2343 49.7707 35.6896 49.7707 36.2512V58.9831C49.7707 59.5447 49.3154 60 48.7537 60H14.656C14.0944 60 13.6391 59.5447 13.6391 58.9831V47.6171C13.6391 47.0555 14.0944 46.6002 14.656 46.6002H25.005V36.2512ZM25.005 48.6341H23.6291V51.0269C23.6291 51.5886 23.1738 52.0439 22.6122 52.0439H18.0658C17.5042 52.0439 17.0489 51.5886 17.0489 51.0269V48.6341H15.673V57.9661H25.005V48.6341ZM27.0389 57.9661H36.3709V48.6341H34.995V51.0269C34.995 51.5886 34.5397 52.0439 33.9781 52.0439H29.4317C28.8701 52.0439 28.4148 51.5886 28.4148 51.0269V48.6341H27.0389V57.9661ZM27.0389 46.6002H36.3709V37.2682H34.995V39.661C34.995 40.2227 34.5397 40.678 33.9781 40.678H29.4317C28.8701 40.678 28.4148 40.2227 28.4148 39.661V37.2682H27.0389V46.6002ZM30.4487 37.2682V38.6441H32.9611V37.2682H30.4487ZM38.4048 37.2682V46.6002H47.7368V37.2682H46.3609V39.661C46.3609 40.2227 45.9056 40.678 45.344 40.678H40.7976C40.236 40.678 39.7807 40.2227 39.7807 39.661V37.2682H38.4048ZM41.8146 37.2682V38.6441H44.327V37.2682H41.8146ZM47.7368 48.6341H46.3609V51.0269C46.3609 51.5886 45.9056 52.0439 45.344 52.0439H40.7976C40.236 52.0439 39.7807 51.5886 39.7807 51.0269V48.6341H38.4048V57.9661H47.7368V48.6341ZM41.8146 48.6341V50.01H44.327V48.6341H41.8146ZM30.4487 48.6341V50.01H32.9611V48.6341H30.4487ZM19.0828 48.6341V50.01H21.5952V48.6341H19.0828Z" fill="#FF4500"/>
</svg>
