<svg width="62" height="60" viewBox="0 0 62 60" fill="none" xmlns="http://www.w3.org/2000/svg">
<path fill-rule="evenodd" clip-rule="evenodd" d="M11.215 1C11.215 0.447715 11.6627 0 12.215 0H36.8879C37.4401 0 37.8879 0.447715 37.8879 1V17.8462H55.9533C56.5056 17.8462 56.9533 18.2939 56.9533 18.8462V49.6346H61C61.5523 49.6346 62 50.0823 62 50.6346C62 51.1869 61.5523 51.6346 61 51.6346H57.7597C58.647 52.5208 59.1963 53.7435 59.1963 55.0962C59.1963 57.8096 56.986 60 54.271 60C51.5561 60 49.3458 57.8096 49.3458 55.0962C49.3458 53.7435 49.8951 52.5208 50.7823 51.6346H10.1333C10.6645 52.4752 10.972 53.4705 10.972 54.5385C10.972 57.5599 8.51065 60 5.48598 60C2.46132 60 0 57.5599 0 54.5385C0 51.517 2.46132 49.0769 5.48598 49.0769C5.91334 49.0769 6.32946 49.1256 6.72897 49.2178V16.0577C6.72897 12.9191 4.16918 10.3654 1 10.3654C0.447715 10.3654 0 9.91767 0 9.36538C0 8.8131 0.447715 8.36538 1 8.36538C5.26344 8.36538 8.72897 11.8042 8.72897 16.0577V49.6346H11.215V1ZM54.9533 49.0769V19.8462H37.8879V49.0769H54.9533ZM35.8879 49.0769V26.5385H13.215V49.0769H35.8879ZM13.215 24.5385H35.8879V2H13.215V24.5385ZM15.7009 5.46154C15.7009 4.90925 16.1487 4.46154 16.7009 4.46154H32.4019C32.9542 4.46154 33.4019 4.90925 33.4019 5.46154V21.0769C33.4019 21.6292 32.9542 22.0769 32.4019 22.0769H16.7009C16.1487 22.0769 15.7009 21.6292 15.7009 21.0769V5.46154ZM19.1245 6.46154L31.4019 18.672V13.685L24.1388 6.46154H19.1245ZM26.975 6.46154L31.4019 10.8643V6.46154H26.975ZM29.9783 20.0769L17.7009 7.86646V12.8534L24.964 20.0769H29.9783ZM22.1278 20.0769L17.7009 15.6741V20.0769H22.1278ZM40.3738 23.3077C40.3738 22.7554 40.8215 22.3077 41.3738 22.3077H51.4673C52.0196 22.3077 52.4673 22.7554 52.4673 23.3077V45.6154C52.4673 46.1677 52.0196 46.6154 51.4673 46.6154H41.3738C40.8215 46.6154 40.3738 46.1677 40.3738 45.6154V23.3077ZM42.3738 24.3077V26.238L50.4673 34.2874V28.7427L46.0079 24.3077H42.3738ZM48.8441 24.3077L50.4673 25.922V24.3077H48.8441ZM50.4673 37.1081L42.3738 29.0588V35.1611L50.4673 43.2105V37.1081ZM49.0437 44.6154L42.3738 37.9818V42.9688L44.0294 44.6154H49.0437ZM15.7009 30C15.7009 29.4477 16.1487 29 16.7009 29H32.4019C32.9542 29 33.4019 29.4477 33.4019 30V45.6154C33.4019 46.1677 32.9542 46.6154 32.4019 46.6154H16.7009C16.1487 46.6154 15.7009 46.1677 15.7009 45.6154V30ZM19.1245 31L31.4019 43.2105V38.2235L24.1388 31H19.1245ZM26.975 31L31.4019 35.4028V31H26.975ZM29.9783 44.6154L17.7009 32.4049V37.3919L24.964 44.6154H29.9783ZM22.1278 44.6154L17.7009 40.2126V44.6154H22.1278ZM5.48598 51.0769C3.55557 51.0769 2 52.6318 2 54.5385C2 56.4451 3.55557 58 5.48598 58C7.41639 58 8.97196 56.4451 8.97196 54.5385C8.97196 52.6318 7.41639 51.0769 5.48598 51.0769ZM54.271 52.1923C52.6503 52.1923 51.3458 53.4975 51.3458 55.0962C51.3458 56.6948 52.6503 58 54.271 58C55.8918 58 57.1963 56.6948 57.1963 55.0962C57.1963 53.4975 55.8918 52.1923 54.271 52.1923Z" fill="#FF4500"/>
</svg>
