<svg width="152" height="55" viewBox="0 0 152 55" fill="none" xmlns="http://www.w3.org/2000/svg">
<mask id="path-1-outside-1_26_5371" maskUnits="userSpaceOnUse" x="-3" y="-2" width="157" height="59" fill="black">
<rect fill="white" x="-3" y="-2" width="157" height="59"/>
<path d="M10.5014 49.65C13.9514 49.65 16.8014 48.65 19.0514 46.65C21.3014 44.65 22.4264 41.75 22.4264 37.95C22.4264 34.3 21.3014 31.575 19.0514 29.775C16.8514 27.975 13.8014 27.075 9.90137 27.075L3.60137 27.45V1.5H27.0014V7.05H9.22637V21.975L12.4514 21.825C17.4014 21.875 21.3014 23.25 24.1514 25.95C27.0014 28.65 28.4264 32.525 28.4264 37.575C28.4264 40.375 27.9514 42.875 27.0014 45.075C26.0514 47.225 24.7514 49.025 23.1014 50.475C21.5014 51.925 19.6014 53.025 17.4014 53.775C15.2014 54.525 12.8514 54.9 10.3514 54.9C8.10137 54.9 6.20137 54.775 4.65137 54.525C3.10137 54.275 1.65137 53.9 0.301368 53.4L1.87637 48.3C3.02637 48.75 4.25137 49.1 5.55137 49.35C6.90137 49.55 8.55137 49.65 10.5014 49.65ZM38.6205 27.75C38.6205 18.75 40.0705 11.975 42.9705 7.425C45.9205 2.875 50.1955 0.599999 55.7955 0.599999C61.8455 0.599999 66.2205 2.85 68.9205 7.35C71.6705 11.8 73.0455 18.6 73.0455 27.75C73.0455 36.75 71.5705 43.525 68.6205 48.075C65.7205 52.625 61.4455 54.9 55.7955 54.9C49.8455 54.9 45.4955 52.525 42.7455 47.775C39.9955 43.025 38.6205 36.35 38.6205 27.75ZM44.8455 27.75C44.8455 31 45.0455 33.975 45.4455 36.675C45.8955 39.325 46.5705 41.625 47.4705 43.575C48.3705 45.475 49.4955 46.975 50.8455 48.075C52.2455 49.125 53.8955 49.65 55.7955 49.65C59.5955 49.65 62.3705 47.9 64.1205 44.4C65.9205 40.85 66.8205 35.3 66.8205 27.75C66.8205 24.55 66.6205 21.6 66.2205 18.9C65.8705 16.2 65.2455 13.875 64.3455 11.925C63.4955 9.975 62.3705 8.475 60.9705 7.425C59.5705 6.375 57.8455 5.85 55.7955 5.85C52.0455 5.85 49.2705 7.625 47.4705 11.175C45.7205 14.725 44.8455 20.25 44.8455 27.75ZM79.4896 27.75C79.4896 18.75 80.9396 11.975 83.8396 7.425C86.7896 2.875 91.0646 0.599999 96.6646 0.599999C102.715 0.599999 107.09 2.85 109.79 7.35C112.54 11.8 113.915 18.6 113.915 27.75C113.915 36.75 112.44 43.525 109.49 48.075C106.59 52.625 102.315 54.9 96.6646 54.9C90.7146 54.9 86.3646 52.525 83.6146 47.775C80.8646 43.025 79.4896 36.35 79.4896 27.75ZM85.7146 27.75C85.7146 31 85.9146 33.975 86.3146 36.675C86.7646 39.325 87.4396 41.625 88.3396 43.575C89.2396 45.475 90.3646 46.975 91.7146 48.075C93.1146 49.125 94.7646 49.65 96.6646 49.65C100.465 49.65 103.24 47.9 104.99 44.4C106.79 40.85 107.69 35.3 107.69 27.75C107.69 24.55 107.49 21.6 107.09 18.9C106.74 16.2 106.115 13.875 105.215 11.925C104.365 9.975 103.24 8.475 101.84 7.425C100.44 6.375 98.7146 5.85 96.6646 5.85C92.9146 5.85 90.1396 7.625 88.3396 11.175C86.5896 14.725 85.7146 20.25 85.7146 27.75ZM120.134 25.95H133.334V12.375H138.734V25.95H151.934V31.35H138.734V44.85H133.334V31.35H120.134V25.95Z"/>
</mask>
<path d="M19.0514 46.65L20.3801 48.1448L20.3801 48.1448L19.0514 46.65ZM19.0514 29.775L17.7849 31.3229L17.7934 31.3299L17.802 31.3367L19.0514 29.775ZM9.90137 27.075V25.075H9.8419L9.78253 25.0785L9.90137 27.075ZM3.60137 27.45H1.60137V29.5726L3.72021 29.4465L3.60137 27.45ZM3.60137 1.5V-0.500004H1.60137V1.5H3.60137ZM27.0014 1.5H29.0014V-0.500004H27.0014V1.5ZM27.0014 7.05V9.05H29.0014V7.05H27.0014ZM9.22637 7.05V5.05H7.22637V7.05H9.22637ZM9.22637 21.975H7.22637V24.0702L9.31929 23.9728L9.22637 21.975ZM12.4514 21.825L12.4716 19.8251L12.415 19.8245L12.3584 19.8272L12.4514 21.825ZM24.1514 25.95L22.7759 27.4019L22.7759 27.4019L24.1514 25.95ZM27.0014 45.075L28.8307 45.8833L28.8342 45.8756L28.8375 45.8679L27.0014 45.075ZM23.1014 50.475L21.7811 48.9727L21.7697 48.9828L21.7583 48.993L23.1014 50.475ZM17.4014 53.775L18.0467 55.668L18.0467 55.668L17.4014 53.775ZM4.65137 54.525L4.3329 56.4995L4.65137 54.525ZM0.301368 53.4L-1.60958 52.8099L-2.16803 54.6182L-0.393261 55.2755L0.301368 53.4ZM1.87637 48.3L2.60517 46.4375L0.600588 45.6531L-0.0345819 47.7099L1.87637 48.3ZM5.55137 49.35L5.17367 51.314L5.21582 51.3221L5.25827 51.3284L5.55137 49.35ZM10.5014 51.65C14.3649 51.65 17.7107 50.5176 20.3801 48.1448L17.7226 45.1552C15.892 46.7824 13.5378 47.65 10.5014 47.65V51.65ZM20.3801 48.1448C23.1641 45.6702 24.4264 42.1605 24.4264 37.95H20.4264C20.4264 41.3395 19.4386 43.6298 17.7226 45.1552L20.3801 48.1448ZM24.4264 37.95C24.4264 33.8693 23.148 30.491 20.3008 28.2133L17.802 31.3367C19.4548 32.659 20.4264 34.7307 20.4264 37.95H24.4264ZM20.3178 28.2271C17.6476 26.0424 14.0924 25.075 9.90137 25.075V29.075C13.5104 29.075 16.0551 29.9076 17.7849 31.3229L20.3178 28.2271ZM9.78253 25.0785L3.48253 25.4535L3.72021 29.4465L10.0202 29.0715L9.78253 25.0785ZM5.60137 27.45V1.5H1.60137V27.45H5.60137ZM3.60137 3.5H27.0014V-0.500004H3.60137V3.5ZM25.0014 1.5V7.05H29.0014V1.5H25.0014ZM27.0014 5.05H9.22637V9.05H27.0014V5.05ZM7.22637 7.05V21.975H11.2264V7.05H7.22637ZM9.31929 23.9728L12.5443 23.8228L12.3584 19.8272L9.13344 19.9772L9.31929 23.9728ZM12.4312 23.8249C17.0136 23.8712 20.381 25.1331 22.7759 27.4019L25.5269 24.4981C22.2217 21.3669 17.7891 19.8788 12.4716 19.8251L12.4312 23.8249ZM22.7759 27.4019C25.1209 29.6235 26.4264 32.9083 26.4264 37.575H30.4264C30.4264 32.1417 28.8818 27.6765 25.5269 24.4981L22.7759 27.4019ZM26.4264 37.575C26.4264 40.1477 25.9905 42.3711 25.1652 44.2821L28.8375 45.8679C29.9123 43.3789 30.4264 40.6023 30.4264 37.575H26.4264ZM25.172 44.2667C24.331 46.1701 23.198 47.7275 21.7811 48.9727L24.4216 51.9773C26.3047 50.3225 27.7718 48.2799 28.8307 45.8833L25.172 44.2667ZM21.7583 48.993C20.3755 50.2462 18.7178 51.2132 16.756 51.882L18.0467 55.668C20.4849 54.8368 22.6272 53.6038 24.4444 51.957L21.7583 48.993ZM16.756 51.882C14.779 52.556 12.6485 52.9 10.3514 52.9V56.9C13.0543 56.9 15.6238 56.494 18.0467 55.668L16.756 51.882ZM10.3514 52.9C8.16649 52.9 6.38021 52.778 4.96983 52.5505L4.3329 56.4995C6.02252 56.772 8.03625 56.9 10.3514 56.9V52.9ZM4.96983 52.5505C3.5367 52.3194 2.21372 51.9755 0.995997 51.5245L-0.393261 55.2755C1.08902 55.8245 2.66604 56.2306 4.3329 56.4995L4.96983 52.5505ZM2.21232 53.9901L3.78732 48.8901L-0.0345819 47.7099L-1.60958 52.8099L2.21232 53.9901ZM1.14757 50.1625C2.41907 50.66 3.76231 51.0426 5.17367 51.314L5.92906 47.386C4.74042 47.1574 3.63366 46.84 2.60517 46.4375L1.14757 50.1625ZM5.25827 51.3284C6.73667 51.5474 8.49112 51.65 10.5014 51.65V47.65C8.61162 47.65 7.06606 47.5526 5.84446 47.3716L5.25827 51.3284ZM42.9705 7.425L41.2924 6.33696L41.2881 6.34349L41.2839 6.35005L42.9705 7.425ZM68.9205 7.35L67.2055 8.37899L67.2123 8.39023L67.2192 8.40139L68.9205 7.35ZM68.6205 48.075L66.9424 46.987L66.9381 46.9935L66.9339 47L68.6205 48.075ZM42.7455 47.775L41.0147 48.7771L42.7455 47.775ZM45.4455 36.675L43.4671 36.9681L43.4702 36.989L43.4737 37.0098L45.4455 36.675ZM47.4705 43.575L45.6546 44.4131L45.6588 44.4222L45.663 44.4312L47.4705 43.575ZM50.8455 48.075L49.5822 49.6255L49.6133 49.6509L49.6455 49.675L50.8455 48.075ZM64.1205 44.4L62.3367 43.4955L62.3317 43.5056L64.1205 44.4ZM66.2205 18.9L64.2371 19.1571L64.2394 19.1751L64.2421 19.1931L66.2205 18.9ZM64.3455 11.925L62.5121 12.7242L62.5206 12.7437L62.5296 12.7631L64.3455 11.925ZM60.9705 7.425L62.1705 5.825L62.1705 5.825L60.9705 7.425ZM47.4705 11.175L45.6867 10.2705L45.6816 10.2806L45.6766 10.2907L47.4705 11.175ZM40.6205 27.75C40.6205 18.9033 42.0569 12.5795 44.6571 8.49995L41.2839 6.35005C38.0841 11.3704 36.6205 18.5967 36.6205 27.75H40.6205ZM44.6487 8.51303C47.2156 4.55382 50.8465 2.6 55.7955 2.6V-1.4C49.5445 -1.4 44.6254 1.19617 41.2924 6.33696L44.6487 8.51303ZM55.7955 2.6C61.2704 2.6 64.9281 4.5832 67.2055 8.37899L70.6355 6.32101C67.513 1.11679 62.4206 -1.4 55.7955 -1.4V2.6ZM67.2192 8.40139C69.6768 12.3782 71.0455 18.7283 71.0455 27.75H75.0455C75.0455 18.4716 73.6643 11.2218 70.6219 6.2986L67.2192 8.40139ZM71.0455 27.75C71.0455 36.5926 69.5853 42.9106 66.9424 46.987L70.2987 49.163C73.5557 44.1394 75.0455 36.9074 75.0455 27.75H71.0455ZM66.9339 47C64.4216 50.9418 60.8011 52.9 55.7955 52.9V56.9C62.0899 56.9 67.0194 54.3082 70.3071 49.1499L66.9339 47ZM55.7955 52.9C50.4862 52.9 46.8337 50.8446 44.4764 46.7729L41.0147 48.7771C44.1574 54.2054 49.2048 56.9 55.7955 56.9V52.9ZM44.4764 46.7729C41.9755 42.4533 40.6205 36.1796 40.6205 27.75H36.6205C36.6205 36.5204 38.0155 43.5967 41.0147 48.7771L44.4764 46.7729ZM42.8455 27.75C42.8455 31.0802 43.0503 34.1548 43.4671 36.9681L47.4239 36.3819C47.0407 33.7952 46.8455 30.9198 46.8455 27.75H42.8455ZM43.4737 37.0098C43.9462 39.7922 44.6649 42.2687 45.6546 44.4131L49.2864 42.7369C48.4761 40.9813 47.8448 38.8578 47.4173 36.3402L43.4737 37.0098ZM45.663 44.4312C46.6645 46.5453 47.9585 48.3025 49.5822 49.6255L52.1089 46.5245C51.0325 45.6475 50.0766 44.4047 49.278 42.7188L45.663 44.4312ZM49.6455 49.675C51.4219 51.0073 53.5021 51.65 55.7955 51.65V47.65C54.289 47.65 53.0691 47.2427 52.0455 46.475L49.6455 49.675ZM55.7955 51.65C58.0121 51.65 60.0388 51.1358 61.7936 50.0292C63.545 48.9247 64.9027 47.3077 65.9094 45.2944L62.3317 43.5056C61.5883 44.9923 60.6835 46.0003 59.6599 46.6458C58.6397 47.2892 57.3789 47.65 55.7955 47.65V51.65ZM65.9043 45.3045C67.9238 41.3216 68.8205 35.3807 68.8205 27.75H64.8205C64.8205 35.2193 63.9172 40.3784 62.3367 43.4955L65.9043 45.3045ZM68.8205 27.75C68.8205 24.4682 68.6155 21.4188 68.1989 18.6069L64.2421 19.1931C64.6255 21.7812 64.8205 24.6318 64.8205 27.75H68.8205ZM68.2039 18.6429C67.8345 15.793 67.1656 13.2625 66.1614 11.0869L62.5296 12.7631C63.3254 14.4875 63.9065 16.607 64.2371 19.1571L68.2039 18.6429ZM66.1789 11.1258C65.2203 8.92665 63.9013 7.12307 62.1705 5.825L59.7705 9.025C60.8398 9.82693 61.7707 11.0233 62.5121 12.7242L66.1789 11.1258ZM62.1705 5.825C60.3675 4.47274 58.2014 3.85 55.7955 3.85V7.85C57.4896 7.85 58.7735 8.27726 59.7705 9.025L62.1705 5.825ZM55.7955 3.85C53.5928 3.85 51.5762 4.37571 49.8241 5.49643C48.0787 6.61284 46.7145 8.24342 45.6867 10.2705L49.2543 12.0795C50.0265 10.5566 50.9498 9.52466 51.9794 8.86607C53.0023 8.21179 54.2482 7.85 55.7955 7.85V3.85ZM45.6766 10.2907C43.7175 14.265 42.8455 20.1705 42.8455 27.75H46.8455C46.8455 20.3295 47.7236 15.185 49.2644 12.0593L45.6766 10.2907ZM83.8396 7.425L82.1615 6.33696L82.1573 6.34349L82.1531 6.35005L83.8396 7.425ZM109.79 7.35L108.075 8.37899L108.081 8.39023L108.088 8.40139L109.79 7.35ZM109.49 48.075L107.811 46.987L107.807 46.9935L107.803 47L109.49 48.075ZM83.6146 47.775L81.8838 48.7771L83.6146 47.775ZM86.3146 36.675L84.3362 36.9681L84.3393 36.989L84.3429 37.0098L86.3146 36.675ZM88.3396 43.575L86.5237 44.4131L86.5279 44.4222L86.5322 44.4312L88.3396 43.575ZM91.7146 48.075L90.4513 49.6255L90.4825 49.6509L90.5146 49.675L91.7146 48.075ZM104.99 44.4L103.206 43.4955L103.201 43.5056L104.99 44.4ZM107.09 18.9L105.106 19.1571L105.109 19.1751L105.111 19.1931L107.09 18.9ZM105.215 11.925L103.381 12.7242L103.39 12.7437L103.399 12.7631L105.215 11.925ZM101.84 7.425L103.04 5.825L103.04 5.825L101.84 7.425ZM88.3396 11.175L86.5558 10.2705L86.5508 10.2806L86.5458 10.2907L88.3396 11.175ZM81.4896 27.75C81.4896 18.9033 82.926 12.5795 85.5262 8.49995L82.1531 6.35005C78.9533 11.3704 77.4896 18.5967 77.4896 27.75H81.4896ZM85.5178 8.51303C88.0848 4.55382 91.7157 2.6 96.6646 2.6V-1.4C90.4136 -1.4 85.4945 1.19617 82.1615 6.33696L85.5178 8.51303ZM96.6646 2.6C102.14 2.6 105.797 4.5832 108.075 8.37899L111.505 6.32101C108.382 1.11679 103.29 -1.4 96.6646 -1.4V2.6ZM108.088 8.40139C110.546 12.3782 111.915 18.7283 111.915 27.75H115.915C115.915 18.4716 114.533 11.2218 111.491 6.2986L108.088 8.40139ZM111.915 27.75C111.915 36.5926 110.454 42.9106 107.811 46.987L111.168 49.163C114.425 44.1394 115.915 36.9074 115.915 27.75H111.915ZM107.803 47C105.291 50.9418 101.67 52.9 96.6646 52.9V56.9C102.959 56.9 107.889 54.3082 111.176 49.1499L107.803 47ZM96.6646 52.9C91.3553 52.9 87.7028 50.8446 85.3455 46.7729L81.8838 48.7771C85.0265 54.2054 90.074 56.9 96.6646 56.9V52.9ZM85.3455 46.7729C82.8447 42.4533 81.4896 36.1796 81.4896 27.75H77.4896C77.4896 36.5204 78.8846 43.5967 81.8838 48.7771L85.3455 46.7729ZM83.7146 27.75C83.7146 31.0802 83.9195 34.1548 84.3362 36.9681L88.2931 36.3819C87.9098 33.7952 87.7146 30.9198 87.7146 27.75H83.7146ZM84.3429 37.0098C84.8153 39.7922 85.534 42.2687 86.5237 44.4131L90.1556 42.7369C89.3453 40.9813 88.714 38.8578 88.2864 36.3402L84.3429 37.0098ZM86.5322 44.4312C87.5336 46.5453 88.8276 48.3025 90.4513 49.6255L92.978 46.5245C91.9017 45.6475 90.9457 44.4047 90.1471 42.7188L86.5322 44.4312ZM90.5146 49.675C92.291 51.0073 94.3712 51.65 96.6646 51.65V47.65C95.1581 47.65 93.9383 47.2427 92.9146 46.475L90.5146 49.675ZM96.6646 51.65C98.8813 51.65 100.908 51.1358 102.663 50.0292C104.414 48.9247 105.772 47.3077 106.779 45.2944L103.201 43.5056C102.457 44.9923 101.553 46.0003 100.529 46.6458C99.5089 47.2892 98.248 47.65 96.6646 47.65V51.65ZM106.773 45.3045C108.793 41.3216 109.69 35.3807 109.69 27.75H105.69C105.69 35.2193 104.786 40.3784 103.206 43.4955L106.773 45.3045ZM109.69 27.75C109.69 24.4682 109.485 21.4188 109.068 18.6069L105.111 19.1931C105.495 21.7812 105.69 24.6318 105.69 27.75H109.69ZM109.073 18.6429C108.704 15.793 108.035 13.2625 107.031 11.0869L103.399 12.7631C104.195 14.4875 104.776 16.607 105.106 19.1571L109.073 18.6429ZM107.048 11.1258C106.089 8.92665 104.77 7.12307 103.04 5.825L100.64 9.025C101.709 9.82693 102.64 11.0233 103.381 12.7242L107.048 11.1258ZM103.04 5.825C101.237 4.47274 99.0705 3.85 96.6646 3.85V7.85C98.3588 7.85 99.6427 8.27726 100.64 9.025L103.04 5.825ZM96.6646 3.85C94.462 3.85 92.4453 4.37571 90.6932 5.49643C88.9479 6.61284 87.5837 8.24342 86.5558 10.2705L90.1235 12.0795C90.8956 10.5566 91.8189 9.52466 92.8486 8.86607C93.8715 8.21179 95.1173 7.85 96.6646 7.85V3.85ZM86.5458 10.2907C84.5866 14.265 83.7146 20.1705 83.7146 27.75H87.7146C87.7146 20.3295 88.5927 15.185 90.1335 12.0593L86.5458 10.2907ZM120.134 25.95V23.95H118.134V25.95H120.134ZM133.334 25.95V27.95H135.334V25.95H133.334ZM133.334 12.375V10.375H131.334V12.375H133.334ZM138.734 12.375H140.734V10.375H138.734V12.375ZM138.734 25.95H136.734V27.95H138.734V25.95ZM151.934 25.95H153.934V23.95H151.934V25.95ZM151.934 31.35V33.35H153.934V31.35H151.934ZM138.734 31.35V29.35H136.734V31.35H138.734ZM138.734 44.85V46.85H140.734V44.85H138.734ZM133.334 44.85H131.334V46.85H133.334V44.85ZM133.334 31.35H135.334V29.35H133.334V31.35ZM120.134 31.35H118.134V33.35H120.134V31.35ZM120.134 27.95H133.334V23.95H120.134V27.95ZM135.334 25.95V12.375H131.334V25.95H135.334ZM133.334 14.375H138.734V10.375H133.334V14.375ZM136.734 12.375V25.95H140.734V12.375H136.734ZM138.734 27.95H151.934V23.95H138.734V27.95ZM149.934 25.95V31.35H153.934V25.95H149.934ZM151.934 29.35H138.734V33.35H151.934V29.35ZM136.734 31.35V44.85H140.734V31.35H136.734ZM138.734 42.85H133.334V46.85H138.734V42.85ZM135.334 44.85V31.35H131.334V44.85H135.334ZM133.334 29.35H120.134V33.35H133.334V29.35ZM122.134 31.35V25.95H118.134V31.35H122.134Z" fill="white" mask="url(#path-1-outside-1_26_5371)"/>
</svg>
