<svg width="115" height="55" viewBox="0 0 115 55" fill="none" xmlns="http://www.w3.org/2000/svg">
<mask id="path-1-outside-1_26_5374" maskUnits="userSpaceOnUse" x="-3" y="-2" width="120" height="59" fill="black">
<rect fill="white" x="-3" y="-2" width="120" height="59"/>
<path d="M3.49258 48.45H13.9926V12.15L14.7426 7.725L11.7426 11.25L3.49258 17.175L0.642578 13.35L17.1426 0.599999H19.8426V48.45H30.1176V54H3.49258V48.45ZM52.2367 49.65C55.6867 49.65 58.5367 48.65 60.7867 46.65C63.0367 44.65 64.1617 41.75 64.1617 37.95C64.1617 34.3 63.0367 31.575 60.7867 29.775C58.5867 27.975 55.5367 27.075 51.6367 27.075L45.3367 27.45V1.5H68.7367V7.05H50.9617V21.975L54.1867 21.825C59.1367 21.875 63.0367 23.25 65.8867 25.95C68.7367 28.65 70.1617 32.525 70.1617 37.575C70.1617 40.375 69.6867 42.875 68.7367 45.075C67.7867 47.225 66.4867 49.025 64.8367 50.475C63.2367 51.925 61.3367 53.025 59.1367 53.775C56.9367 54.525 54.5867 54.9 52.0867 54.9C49.8367 54.9 47.9367 54.775 46.3867 54.525C44.8367 54.275 43.3867 53.9 42.0367 53.4L43.6117 48.3C44.7617 48.75 45.9867 49.1 47.2867 49.35C48.6367 49.55 50.2867 49.65 52.2367 49.65ZM80.3559 27.75C80.3559 18.75 81.8059 11.975 84.7059 7.425C87.6559 2.875 91.9309 0.599999 97.5309 0.599999C103.581 0.599999 107.956 2.85 110.656 7.35C113.406 11.8 114.781 18.6 114.781 27.75C114.781 36.75 113.306 43.525 110.356 48.075C107.456 52.625 103.181 54.9 97.5309 54.9C91.5809 54.9 87.2309 52.525 84.4809 47.775C81.7309 43.025 80.3559 36.35 80.3559 27.75ZM86.5809 27.75C86.5809 31 86.7809 33.975 87.1809 36.675C87.6309 39.325 88.3059 41.625 89.2059 43.575C90.1059 45.475 91.2309 46.975 92.5809 48.075C93.9809 49.125 95.6309 49.65 97.5309 49.65C101.331 49.65 104.106 47.9 105.856 44.4C107.656 40.85 108.556 35.3 108.556 27.75C108.556 24.55 108.356 21.6 107.956 18.9C107.606 16.2 106.981 13.875 106.081 11.925C105.231 9.975 104.106 8.475 102.706 7.425C101.306 6.375 99.5809 5.85 97.5309 5.85C93.7809 5.85 91.0059 7.625 89.2059 11.175C87.4559 14.725 86.5809 20.25 86.5809 27.75Z"/>
</mask>
<path d="M3.49258 48.45V46.45H1.49258V48.45H3.49258ZM13.9926 48.45V50.45H15.9926V48.45H13.9926ZM13.9926 12.15L12.0207 11.8158L11.9926 11.9817V12.15H13.9926ZM14.7426 7.725L16.7145 8.05921L17.9286 0.89552L13.2195 6.42876L14.7426 7.725ZM11.7426 11.25L12.9092 12.8745L13.1075 12.7321L13.2657 12.5462L11.7426 11.25ZM3.49258 17.175L1.88881 18.37L3.06301 19.9459L4.65924 18.7995L3.49258 17.175ZM0.642578 13.35L-0.580317 11.7674L-2.13538 12.9691L-0.961188 14.545L0.642578 13.35ZM17.1426 0.599999V-1.4H16.4599L15.9197 -0.982571L17.1426 0.599999ZM19.8426 0.599999H21.8426V-1.4H19.8426V0.599999ZM19.8426 48.45H17.8426V50.45H19.8426V48.45ZM30.1176 48.45H32.1176V46.45H30.1176V48.45ZM30.1176 54V56H32.1176V54H30.1176ZM3.49258 54H1.49258V56H3.49258V54ZM3.49258 50.45H13.9926V46.45H3.49258V50.45ZM15.9926 48.45V12.15H11.9926V48.45H15.9926ZM15.9645 12.4842L16.7145 8.05921L12.7707 7.39078L12.0207 11.8158L15.9645 12.4842ZM13.2195 6.42876L10.2195 9.95376L13.2657 12.5462L16.2657 9.02123L13.2195 6.42876ZM10.5759 9.62553L2.32591 15.5505L4.65924 18.7995L12.9092 12.8745L10.5759 9.62553ZM5.09634 15.98L2.24634 12.155L-0.961188 14.545L1.88881 18.37L5.09634 15.98ZM1.86547 14.9326L18.3655 2.18257L15.9197 -0.982571L-0.580317 11.7674L1.86547 14.9326ZM17.1426 2.6H19.8426V-1.4H17.1426V2.6ZM17.8426 0.599999V48.45H21.8426V0.599999H17.8426ZM19.8426 50.45H30.1176V46.45H19.8426V50.45ZM28.1176 48.45V54H32.1176V48.45H28.1176ZM30.1176 52H3.49258V56H30.1176V52ZM5.49258 54V48.45H1.49258V54H5.49258ZM60.7867 46.65L62.1154 48.1448L62.1154 48.1448L60.7867 46.65ZM60.7867 29.775L59.5202 31.3229L59.5287 31.3299L59.5373 31.3367L60.7867 29.775ZM51.6367 27.075V25.075H51.5772L51.5179 25.0785L51.6367 27.075ZM45.3367 27.45H43.3367V29.5726L45.4556 29.4465L45.3367 27.45ZM45.3367 1.5V-0.500004H43.3367V1.5H45.3367ZM68.7367 1.5H70.7367V-0.500004H68.7367V1.5ZM68.7367 7.05V9.05H70.7367V7.05H68.7367ZM50.9617 7.05V5.05H48.9617V7.05H50.9617ZM50.9617 21.975H48.9617V24.0702L51.0546 23.9728L50.9617 21.975ZM54.1867 21.825L54.2069 19.8251L54.1503 19.8245L54.0938 19.8272L54.1867 21.825ZM65.8867 25.95L64.5112 27.4019L64.5112 27.4019L65.8867 25.95ZM68.7367 45.075L70.5661 45.8833L70.5695 45.8756L70.5728 45.8679L68.7367 45.075ZM64.8367 50.475L63.5165 48.9727L63.505 48.9828L63.4937 48.993L64.8367 50.475ZM59.1367 53.775L59.7821 55.668L59.7821 55.668L59.1367 53.775ZM46.3867 54.525L46.0683 56.4995L46.3867 54.525ZM42.0367 53.4L40.1258 52.8099L39.5673 54.6182L41.3421 55.2755L42.0367 53.4ZM43.6117 48.3L44.3405 46.4375L42.3359 45.6531L41.7008 47.7099L43.6117 48.3ZM47.2867 49.35L46.909 51.314L46.9512 51.3221L46.9936 51.3284L47.2867 49.35ZM52.2367 51.65C56.1003 51.65 59.4461 50.5176 62.1154 48.1448L59.458 45.1552C57.6274 46.7824 55.2732 47.65 52.2367 47.65V51.65ZM62.1154 48.1448C64.8994 45.6702 66.1617 42.1605 66.1617 37.95H62.1617C62.1617 41.3395 61.174 43.6298 59.458 45.1552L62.1154 48.1448ZM66.1617 37.95C66.1617 33.8693 64.8833 30.491 62.0361 28.2133L59.5373 31.3367C61.1901 32.659 62.1617 34.7307 62.1617 37.95H66.1617ZM62.0532 28.2271C59.383 26.0424 55.8277 25.075 51.6367 25.075V29.075C55.2457 29.075 57.7905 29.9076 59.5202 31.3229L62.0532 28.2271ZM51.5179 25.0785L45.2179 25.4535L45.4556 29.4465L51.7556 29.0715L51.5179 25.0785ZM47.3367 27.45V1.5H43.3367V27.45H47.3367ZM45.3367 3.5H68.7367V-0.500004H45.3367V3.5ZM66.7367 1.5V7.05H70.7367V1.5H66.7367ZM68.7367 5.05H50.9617V9.05H68.7367V5.05ZM48.9617 7.05V21.975H52.9617V7.05H48.9617ZM51.0546 23.9728L54.2796 23.8228L54.0938 19.8272L50.8688 19.9772L51.0546 23.9728ZM54.1665 23.8249C58.7489 23.8712 62.1164 25.1331 64.5112 27.4019L67.2622 24.4981C63.9571 21.3669 59.5245 19.8788 54.2069 19.8251L54.1665 23.8249ZM64.5112 27.4019C66.8563 29.6235 68.1617 32.9083 68.1617 37.575H72.1617C72.1617 32.1417 70.6172 27.6765 67.2622 24.4981L64.5112 27.4019ZM68.1617 37.575C68.1617 40.1477 67.7258 42.3711 66.9006 44.2821L70.5728 45.8679C71.6476 43.3789 72.1617 40.6023 72.1617 37.575H68.1617ZM66.9073 44.2667C66.0663 46.1701 64.9334 47.7275 63.5165 48.9727L66.1569 51.9773C68.0401 50.3225 69.5071 48.2799 70.5661 45.8833L66.9073 44.2667ZM63.4937 48.993C62.1109 50.2462 60.4532 51.2132 58.4914 51.882L59.7821 55.668C62.2203 54.8368 64.3626 53.6038 66.1798 51.957L63.4937 48.993ZM58.4914 51.882C56.5143 52.556 54.3838 52.9 52.0867 52.9V56.9C54.7896 56.9 57.3591 56.494 59.7821 55.668L58.4914 51.882ZM52.0867 52.9C49.9018 52.9 48.1156 52.778 46.7052 52.5505L46.0683 56.4995C47.7579 56.772 49.7716 56.9 52.0867 56.9V52.9ZM46.7052 52.5505C45.272 52.3194 43.9491 51.9755 42.7313 51.5245L41.3421 55.2755C42.8244 55.8245 44.4014 56.2306 46.0683 56.4995L46.7052 52.5505ZM43.9477 53.9901L45.5227 48.8901L41.7008 47.7099L40.1258 52.8099L43.9477 53.9901ZM42.8829 50.1625C44.1544 50.66 45.4977 51.0426 46.909 51.314L47.6644 47.386C46.4758 47.1574 45.369 46.84 44.3405 46.4375L42.8829 50.1625ZM46.9936 51.3284C48.472 51.5474 50.2265 51.65 52.2367 51.65V47.65C50.347 47.65 48.8014 47.5526 47.5798 47.3716L46.9936 51.3284ZM84.7059 7.425L83.0277 6.33696L83.0235 6.34349L83.0193 6.35005L84.7059 7.425ZM110.656 7.35L108.941 8.37899L108.948 8.39023L108.955 8.40139L110.656 7.35ZM110.356 48.075L108.678 46.987L108.673 46.9935L108.669 47L110.356 48.075ZM84.4809 47.775L82.75 48.7771L84.4809 47.775ZM87.1809 36.675L85.2025 36.9681L85.2055 36.989L85.2091 37.0098L87.1809 36.675ZM89.2059 43.575L87.3899 44.4131L87.3941 44.4222L87.3984 44.4312L89.2059 43.575ZM92.5809 48.075L91.3175 49.6255L91.3487 49.6509L91.3809 49.675L92.5809 48.075ZM105.856 44.4L104.072 43.4955L104.067 43.5056L105.856 44.4ZM107.956 18.9L105.972 19.1571L105.975 19.1751L105.977 19.1931L107.956 18.9ZM106.081 11.925L104.247 12.7242L104.256 12.7437L104.265 12.7631L106.081 11.925ZM102.706 7.425L103.906 5.825L103.906 5.825L102.706 7.425ZM89.2059 11.175L87.4221 10.2705L87.417 10.2806L87.412 10.2907L89.2059 11.175ZM82.3559 27.75C82.3559 18.9033 83.7922 12.5795 86.3924 8.49995L83.0193 6.35005C79.8195 11.3704 78.3559 18.5967 78.3559 27.75H82.3559ZM86.384 8.51303C88.951 4.55382 92.5819 2.6 97.5309 2.6V-1.4C91.2798 -1.4 86.3608 1.19617 83.0277 6.33696L86.384 8.51303ZM97.5309 2.6C103.006 2.6 106.663 4.5832 108.941 8.37899L112.371 6.32101C109.248 1.11679 104.156 -1.4 97.5309 -1.4V2.6ZM108.955 8.40139C111.412 12.3782 112.781 18.7283 112.781 27.75H116.781C116.781 18.4716 115.4 11.2218 112.357 6.2986L108.955 8.40139ZM112.781 27.75C112.781 36.5926 111.321 42.9106 108.678 46.987L112.034 49.163C115.291 44.1394 116.781 36.9074 116.781 27.75H112.781ZM108.669 47C106.157 50.9418 102.536 52.9 97.5309 52.9V56.9C103.825 56.9 108.755 54.3082 112.042 49.1499L108.669 47ZM97.5309 52.9C92.2215 52.9 88.569 50.8446 86.2117 46.7729L82.75 48.7771C85.8927 54.2054 90.9402 56.9 97.5309 56.9V52.9ZM86.2117 46.7729C83.7109 42.4533 82.3559 36.1796 82.3559 27.75H78.3559C78.3559 36.5204 79.7508 43.5967 82.75 48.7771L86.2117 46.7729ZM84.5809 27.75C84.5809 31.0802 84.7857 34.1548 85.2025 36.9681L89.1593 36.3819C88.776 33.7952 88.5809 30.9198 88.5809 27.75H84.5809ZM85.2091 37.0098C85.6816 39.7922 86.4002 42.2687 87.3899 44.4131L91.0218 42.7369C90.2115 40.9813 89.5802 38.8578 89.1526 36.3402L85.2091 37.0098ZM87.3984 44.4312C88.3998 46.5453 89.6938 48.3025 91.3175 49.6255L93.8442 46.5245C92.7679 45.6475 91.8119 44.4047 91.0133 42.7188L87.3984 44.4312ZM91.3809 49.675C93.1572 51.0073 95.2374 51.65 97.5309 51.65V47.65C96.0243 47.65 94.8045 47.2427 93.7809 46.475L91.3809 49.675ZM97.5309 51.65C99.7475 51.65 101.774 51.1358 103.529 50.0292C105.28 48.9247 106.638 47.3077 107.645 45.2944L104.067 43.5056C103.324 44.9923 102.419 46.0003 101.395 46.6458C100.375 47.2892 99.1142 47.65 97.5309 47.65V51.65ZM107.64 45.3045C109.659 41.3216 110.556 35.3807 110.556 27.75H106.556C106.556 35.2193 105.653 40.3784 104.072 43.4955L107.64 45.3045ZM110.556 27.75C110.556 24.4682 110.351 21.4188 109.934 18.6069L105.977 19.1931C106.361 21.7812 106.556 24.6318 106.556 27.75H110.556ZM109.939 18.6429C109.57 15.793 108.901 13.2625 107.897 11.0869L104.265 12.7631C105.061 14.4875 105.642 16.607 105.972 19.1571L109.939 18.6429ZM107.914 11.1258C106.956 8.92665 105.637 7.12307 103.906 5.825L101.506 9.025C102.575 9.82693 103.506 11.0233 104.247 12.7242L107.914 11.1258ZM103.906 5.825C102.103 4.47274 99.9367 3.85 97.5309 3.85V7.85C99.225 7.85 100.509 8.27726 101.506 9.025L103.906 5.825ZM97.5309 3.85C95.3282 3.85 93.3116 4.37571 91.5594 5.49643C89.8141 6.61284 88.4499 8.24342 87.4221 10.2705L90.9897 12.0795C91.7618 10.5566 92.6852 9.52466 93.7148 8.86607C94.7377 8.21179 95.9835 7.85 97.5309 7.85V3.85ZM87.412 10.2907C85.4528 14.265 84.5809 20.1705 84.5809 27.75H88.5809C88.5809 20.3295 89.4589 15.185 90.9997 12.0593L87.412 10.2907Z" fill="white" mask="url(#path-1-outside-1_26_5374)"/>
</svg>
