<svg width="194" height="55" viewBox="0 0 194 55" fill="none" xmlns="http://www.w3.org/2000/svg">
<mask id="path-1-outside-1_26_5365" maskUnits="userSpaceOnUse" x="-3" y="-2" width="199" height="59" fill="black">
<rect fill="white" x="-3" y="-2" width="199" height="59"/>
<path d="M3.42861 48.45H13.9286V12.15L14.6786 7.725L11.6786 11.25L3.42861 17.175L0.578613 13.35L17.0786 0.599999H19.7786V48.45H30.0536V54H3.42861V48.45ZM39.4228 27.75C39.4228 18.75 40.8728 11.975 43.7728 7.425C46.7228 2.875 50.9978 0.599999 56.5978 0.599999C62.6478 0.599999 67.0228 2.85 69.7228 7.35C72.4728 11.8 73.8478 18.6 73.8478 27.75C73.8478 36.75 72.3728 43.525 69.4228 48.075C66.5228 52.625 62.2478 54.9 56.5978 54.9C50.6478 54.9 46.2978 52.525 43.5478 47.775C40.7978 43.025 39.4228 36.35 39.4228 27.75ZM45.6478 27.75C45.6478 31 45.8478 33.975 46.2478 36.675C46.6978 39.325 47.3728 41.625 48.2728 43.575C49.1728 45.475 50.2978 46.975 51.6478 48.075C53.0478 49.125 54.6978 49.65 56.5978 49.65C60.3978 49.65 63.1728 47.9 64.9228 44.4C66.7228 40.85 67.6228 35.3 67.6228 27.75C67.6228 24.55 67.4228 21.6 67.0228 18.9C66.6728 16.2 66.0478 13.875 65.1478 11.925C64.2978 9.975 63.1728 8.475 61.7728 7.425C60.3728 6.375 58.6478 5.85 56.5978 5.85C52.8478 5.85 50.0728 7.625 48.2728 11.175C46.5228 14.725 45.6478 20.25 45.6478 27.75ZM80.2919 27.75C80.2919 18.75 81.7419 11.975 84.6419 7.425C87.5919 2.875 91.8669 0.599999 97.4669 0.599999C103.517 0.599999 107.892 2.85 110.592 7.35C113.342 11.8 114.717 18.6 114.717 27.75C114.717 36.75 113.242 43.525 110.292 48.075C107.392 52.625 103.117 54.9 97.4669 54.9C91.5169 54.9 87.1669 52.525 84.4169 47.775C81.6669 43.025 80.2919 36.35 80.2919 27.75ZM86.5169 27.75C86.5169 31 86.7169 33.975 87.1169 36.675C87.5669 39.325 88.2419 41.625 89.1419 43.575C90.0419 45.475 91.1669 46.975 92.5169 48.075C93.9169 49.125 95.5669 49.65 97.4669 49.65C101.267 49.65 104.042 47.9 105.792 44.4C107.592 40.85 108.492 35.3 108.492 27.75C108.492 24.55 108.292 21.6 107.892 18.9C107.542 16.2 106.917 13.875 106.017 11.925C105.167 9.975 104.042 8.475 102.642 7.425C101.242 6.375 99.5169 5.85 97.4669 5.85C93.7169 5.85 90.9419 7.625 89.1419 11.175C87.3919 14.725 86.5169 20.25 86.5169 27.75ZM121.161 27.75C121.161 18.75 122.611 11.975 125.511 7.425C128.461 2.875 132.736 0.599999 138.336 0.599999C144.386 0.599999 148.761 2.85 151.461 7.35C154.211 11.8 155.586 18.6 155.586 27.75C155.586 36.75 154.111 43.525 151.161 48.075C148.261 52.625 143.986 54.9 138.336 54.9C132.386 54.9 128.036 52.525 125.286 47.775C122.536 43.025 121.161 36.35 121.161 27.75ZM127.386 27.75C127.386 31 127.586 33.975 127.986 36.675C128.436 39.325 129.111 41.625 130.011 43.575C130.911 45.475 132.036 46.975 133.386 48.075C134.786 49.125 136.436 49.65 138.336 49.65C142.136 49.65 144.911 47.9 146.661 44.4C148.461 40.85 149.361 35.3 149.361 27.75C149.361 24.55 149.161 21.6 148.761 18.9C148.411 16.2 147.786 13.875 146.886 11.925C146.036 9.975 144.911 8.475 143.511 7.425C142.111 6.375 140.386 5.85 138.336 5.85C134.586 5.85 131.811 7.625 130.011 11.175C128.261 14.725 127.386 20.25 127.386 27.75ZM161.805 25.95H175.005V12.375H180.405V25.95H193.605V31.35H180.405V44.85H175.005V31.35H161.805V25.95Z"/>
</mask>
<path d="M3.42861 48.45V46.45H1.42861V48.45H3.42861ZM13.9286 48.45V50.45H15.9286V48.45H13.9286ZM13.9286 12.15L11.9567 11.8158L11.9286 11.9817V12.15H13.9286ZM14.6786 7.725L16.6505 8.05921L17.8647 0.89552L13.1555 6.42876L14.6786 7.725ZM11.6786 11.25L12.8453 12.8745L13.0435 12.7321L13.2017 12.5462L11.6786 11.25ZM3.42861 17.175L1.82485 18.37L2.99904 19.9459L4.59528 18.7995L3.42861 17.175ZM0.578613 13.35L-0.644281 11.7674L-2.19935 12.9691L-1.02515 14.545L0.578613 13.35ZM17.0786 0.599999V-1.4H16.3959L15.8557 -0.982571L17.0786 0.599999ZM19.7786 0.599999H21.7786V-1.4H19.7786V0.599999ZM19.7786 48.45H17.7786V50.45H19.7786V48.45ZM30.0536 48.45H32.0536V46.45H30.0536V48.45ZM30.0536 54V56H32.0536V54H30.0536ZM3.42861 54H1.42861V56H3.42861V54ZM3.42861 50.45H13.9286V46.45H3.42861V50.45ZM15.9286 48.45V12.15H11.9286V48.45H15.9286ZM15.9005 12.4842L16.6505 8.05921L12.7067 7.39078L11.9567 11.8158L15.9005 12.4842ZM13.1555 6.42876L10.1555 9.95376L13.2017 12.5462L16.2017 9.02123L13.1555 6.42876ZM10.512 9.62553L2.26195 15.5505L4.59528 18.7995L12.8453 12.8745L10.512 9.62553ZM5.03238 15.98L2.18238 12.155L-1.02515 14.545L1.82485 18.37L5.03238 15.98ZM1.80151 14.9326L18.3015 2.18257L15.8557 -0.982571L-0.644281 11.7674L1.80151 14.9326ZM17.0786 2.6H19.7786V-1.4H17.0786V2.6ZM17.7786 0.599999V48.45H21.7786V0.599999H17.7786ZM19.7786 50.45H30.0536V46.45H19.7786V50.45ZM28.0536 48.45V54H32.0536V48.45H28.0536ZM30.0536 52H3.42861V56H30.0536V52ZM5.42861 54V48.45H1.42861V54H5.42861ZM43.7728 7.425L42.0946 6.33696L42.0904 6.34349L42.0862 6.35005L43.7728 7.425ZM69.7228 7.35L68.0078 8.37899L68.0145 8.39023L68.0214 8.40139L69.7228 7.35ZM69.4228 48.075L67.7446 46.987L67.7404 46.9935L67.7362 47L69.4228 48.075ZM43.5478 47.775L41.8169 48.7771L43.5478 47.775ZM46.2478 36.675L44.2693 36.9681L44.2724 36.989L44.276 37.0098L46.2478 36.675ZM48.2728 43.575L46.4568 44.4131L46.461 44.4222L46.4653 44.4312L48.2728 43.575ZM51.6478 48.075L50.3844 49.6255L50.4156 49.6509L50.4478 49.675L51.6478 48.075ZM64.9228 44.4L63.1389 43.4955L63.1339 43.5056L64.9228 44.4ZM67.0228 18.9L65.0393 19.1571L65.0417 19.1751L65.0443 19.1931L67.0228 18.9ZM65.1478 11.925L63.3144 12.7242L63.3229 12.7437L63.3318 12.7631L65.1478 11.925ZM61.7728 7.425L62.9728 5.825L62.9728 5.825L61.7728 7.425ZM48.2728 11.175L46.489 10.2705L46.4839 10.2806L46.4789 10.2907L48.2728 11.175ZM41.4228 27.75C41.4228 18.9033 42.8591 12.5795 45.4593 8.49995L42.0862 6.35005C38.8864 11.3704 37.4228 18.5967 37.4228 27.75H41.4228ZM45.4509 8.51303C48.0179 4.55382 51.6488 2.6 56.5978 2.6V-1.4C50.3467 -1.4 45.4276 1.19617 42.0946 6.33696L45.4509 8.51303ZM56.5978 2.6C62.0727 2.6 65.7303 4.5832 68.0078 8.37899L71.4377 6.32101C68.3152 1.11679 63.2228 -1.4 56.5978 -1.4V2.6ZM68.0214 8.40139C70.479 12.3782 71.8478 18.7283 71.8478 27.75H75.8478C75.8478 18.4716 74.4665 11.2218 71.4241 6.2986L68.0214 8.40139ZM71.8478 27.75C71.8478 36.5926 70.3875 42.9106 67.7446 46.987L71.1009 49.163C74.358 44.1394 75.8478 36.9074 75.8478 27.75H71.8478ZM67.7362 47C65.2239 50.9418 61.6033 52.9 56.5978 52.9V56.9C62.8922 56.9 67.8216 54.3082 71.1093 49.1499L67.7362 47ZM56.5978 52.9C51.2884 52.9 47.6359 50.8446 45.2786 46.7729L41.8169 48.7771C44.9596 54.2054 50.0071 56.9 56.5978 56.9V52.9ZM45.2786 46.7729C42.7778 42.4533 41.4228 36.1796 41.4228 27.75H37.4228C37.4228 36.5204 38.8177 43.5967 41.8169 48.7771L45.2786 46.7729ZM43.6478 27.75C43.6478 31.0802 43.8526 34.1548 44.2693 36.9681L48.2262 36.3819C47.8429 33.7952 47.6478 30.9198 47.6478 27.75H43.6478ZM44.276 37.0098C44.7485 39.7922 45.4671 42.2687 46.4568 44.4131L50.0887 42.7369C49.2784 40.9813 48.6471 38.8578 48.2195 36.3402L44.276 37.0098ZM46.4653 44.4312C47.4667 46.5453 48.7607 48.3025 50.3844 49.6255L52.9111 46.5245C51.8348 45.6475 50.8788 44.4047 50.0802 42.7188L46.4653 44.4312ZM50.4478 49.675C52.2241 51.0073 54.3043 51.65 56.5978 51.65V47.65C55.0912 47.65 53.8714 47.2427 52.8478 46.475L50.4478 49.675ZM56.5978 51.65C58.8144 51.65 60.841 51.1358 62.5958 50.0292C64.3472 48.9247 65.705 47.3077 66.7116 45.2944L63.1339 43.5056C62.3905 44.9923 61.4858 46.0003 60.4622 46.6458C59.442 47.2892 58.1811 47.65 56.5978 47.65V51.65ZM66.7066 45.3045C68.7261 41.3216 69.6228 35.3807 69.6228 27.75H65.6228C65.6228 35.2193 64.7195 40.3784 63.139 43.4955L66.7066 45.3045ZM69.6228 27.75C69.6228 24.4682 69.4177 21.4188 69.0012 18.6069L65.0443 19.1931C65.4278 21.7812 65.6228 24.6318 65.6228 27.75H69.6228ZM69.0062 18.6429C68.6367 15.793 67.9678 13.2625 66.9637 11.0869L63.3318 12.7631C64.1277 14.4875 64.7088 16.607 65.0393 19.1571L69.0062 18.6429ZM66.9811 11.1258C66.0225 8.92665 64.7035 7.12307 62.9728 5.825L60.5728 9.025C61.642 9.82693 62.573 11.0233 63.3144 12.7242L66.9811 11.1258ZM62.9728 5.825C61.1697 4.47274 59.0036 3.85 56.5978 3.85V7.85C58.2919 7.85 59.5758 8.27726 60.5728 9.025L62.9728 5.825ZM56.5978 3.85C54.3951 3.85 52.3784 4.37571 50.6263 5.49643C48.881 6.61284 47.5168 8.24342 46.489 10.2705L50.0566 12.0795C50.8287 10.5566 51.7521 9.52466 52.7817 8.86607C53.8046 8.21179 55.0504 7.85 56.5978 7.85V3.85ZM46.4789 10.2907C44.5197 14.265 43.6478 20.1705 43.6478 27.75H47.6478C47.6478 20.3295 48.5258 15.185 50.0666 12.0593L46.4789 10.2907ZM84.6419 7.425L82.9637 6.33696L82.9595 6.34349L82.9553 6.35005L84.6419 7.425ZM110.592 7.35L108.877 8.37899L108.884 8.39023L108.891 8.40139L110.592 7.35ZM110.292 48.075L108.614 46.987L108.61 46.9935L108.605 47L110.292 48.075ZM84.4169 47.775L82.686 48.7771L84.4169 47.775ZM87.1169 36.675L85.1385 36.9681L85.1416 36.989L85.1451 37.0098L87.1169 36.675ZM89.1419 43.575L87.326 44.4131L87.3302 44.4222L87.3344 44.4312L89.1419 43.575ZM92.5169 48.075L91.2536 49.6255L91.2847 49.6509L91.3169 49.675L92.5169 48.075ZM105.792 44.4L104.008 43.4955L104.003 43.5056L105.792 44.4ZM107.892 18.9L105.908 19.1571L105.911 19.1751L105.913 19.1931L107.892 18.9ZM106.017 11.925L104.184 12.7242L104.192 12.7437L104.201 12.7631L106.017 11.925ZM102.642 7.425L103.842 5.825L103.842 5.825L102.642 7.425ZM89.1419 11.175L87.3581 10.2705L87.353 10.2806L87.348 10.2907L89.1419 11.175ZM82.2919 27.75C82.2919 18.9033 83.7283 12.5795 86.3285 8.49995L82.9553 6.35005C79.7555 11.3704 78.2919 18.5967 78.2919 27.75H82.2919ZM86.32 8.51303C88.887 4.55382 92.5179 2.6 97.4669 2.6V-1.4C91.2159 -1.4 86.2968 1.19617 82.9637 6.33696L86.32 8.51303ZM97.4669 2.6C102.942 2.6 106.599 4.5832 108.877 8.37899L112.307 6.32101C109.184 1.11679 104.092 -1.4 97.4669 -1.4V2.6ZM108.891 8.40139C111.348 12.3782 112.717 18.7283 112.717 27.75H116.717C116.717 18.4716 115.336 11.2218 112.293 6.2986L108.891 8.40139ZM112.717 27.75C112.717 36.5926 111.257 42.9106 108.614 46.987L111.97 49.163C115.227 44.1394 116.717 36.9074 116.717 27.75H112.717ZM108.605 47C106.093 50.9418 102.472 52.9 97.4669 52.9V56.9C103.761 56.9 108.691 54.3082 111.978 49.1499L108.605 47ZM97.4669 52.9C92.1576 52.9 88.505 50.8446 86.1477 46.7729L82.686 48.7771C85.8288 54.2054 90.8762 56.9 97.4669 56.9V52.9ZM86.1477 46.7729C83.6469 42.4533 82.2919 36.1796 82.2919 27.75H78.2919C78.2919 36.5204 79.6869 43.5967 82.686 48.7771L86.1477 46.7729ZM84.5169 27.75C84.5169 31.0802 84.7217 34.1548 85.1385 36.9681L89.0953 36.3819C88.7121 33.7952 88.5169 30.9198 88.5169 27.75H84.5169ZM85.1451 37.0098C85.6176 39.7922 86.3363 42.2687 87.326 44.4131L90.9578 42.7369C90.1475 40.9813 89.5162 38.8578 89.0887 36.3402L85.1451 37.0098ZM87.3344 44.4312C88.3359 46.5453 89.6299 48.3025 91.2536 49.6255L93.7802 46.5245C92.7039 45.6475 91.7479 44.4047 90.9494 42.7188L87.3344 44.4312ZM91.3169 49.675C93.0933 51.0073 95.1734 51.65 97.4669 51.65V47.65C95.9603 47.65 94.7405 47.2427 93.7169 46.475L91.3169 49.675ZM97.4669 51.65C99.6835 51.65 101.71 51.1358 103.465 50.0292C105.216 48.9247 106.574 47.3077 107.581 45.2944L104.003 43.5056C103.26 44.9923 102.355 46.0003 101.331 46.6458C100.311 47.2892 99.0503 47.65 97.4669 47.65V51.65ZM107.576 45.3045C109.595 41.3216 110.492 35.3807 110.492 27.75H106.492C106.492 35.2193 105.589 40.3784 104.008 43.4955L107.576 45.3045ZM110.492 27.75C110.492 24.4682 110.287 21.4188 109.87 18.6069L105.913 19.1931C106.297 21.7812 106.492 24.6318 106.492 27.75H110.492ZM109.875 18.6429C109.506 15.793 108.837 13.2625 107.833 11.0869L104.201 12.7631C104.997 14.4875 105.578 16.607 105.908 19.1571L109.875 18.6429ZM107.85 11.1258C106.892 8.92665 105.573 7.12307 103.842 5.825L101.442 9.025C102.511 9.82693 103.442 11.0233 104.184 12.7242L107.85 11.1258ZM103.842 5.825C102.039 4.47274 99.8728 3.85 97.4669 3.85V7.85C99.161 7.85 100.445 8.27726 101.442 9.025L103.842 5.825ZM97.4669 3.85C95.2642 3.85 93.2476 4.37571 91.4955 5.49643C89.7501 6.61284 88.3859 8.24342 87.3581 10.2705L90.9257 12.0795C91.6979 10.5566 92.6212 9.52466 93.6508 8.86607C94.6737 8.21179 95.9196 7.85 97.4669 7.85V3.85ZM87.348 10.2907C85.3888 14.265 84.5169 20.1705 84.5169 27.75H88.5169C88.5169 20.3295 89.395 15.185 90.9358 12.0593L87.348 10.2907ZM125.511 7.425L123.833 6.33696L123.829 6.34349L123.824 6.35005L125.511 7.425ZM151.461 7.35L149.746 8.37899L149.753 8.39023L149.76 8.40139L151.461 7.35ZM151.161 48.075L149.483 46.987L149.479 46.9935L149.474 47L151.161 48.075ZM125.286 47.775L123.555 48.7771L125.286 47.775ZM127.986 36.675L126.008 36.9681L126.011 36.989L126.014 37.0098L127.986 36.675ZM130.011 43.575L128.195 44.4131L128.199 44.4222L128.204 44.4312L130.011 43.575ZM133.386 48.075L132.123 49.6255L132.154 49.6509L132.186 49.675L133.386 48.075ZM146.661 44.4L144.877 43.4955L144.872 43.5056L146.661 44.4ZM148.761 18.9L146.778 19.1571L146.78 19.1751L146.783 19.1931L148.761 18.9ZM146.886 11.925L145.053 12.7242L145.061 12.7437L145.07 12.7631L146.886 11.925ZM143.511 7.425L144.711 5.825L144.711 5.825L143.511 7.425ZM130.011 11.175L128.227 10.2705L128.222 10.2806L128.217 10.2907L130.011 11.175ZM123.161 27.75C123.161 18.9033 124.597 12.5795 127.198 8.49995L123.824 6.35005C120.625 11.3704 119.161 18.5967 119.161 27.75H123.161ZM127.189 8.51303C129.756 4.55382 133.387 2.6 138.336 2.6V-1.4C132.085 -1.4 127.166 1.19617 123.833 6.33696L127.189 8.51303ZM138.336 2.6C143.811 2.6 147.469 4.5832 149.746 8.37899L153.176 6.32101C150.053 1.11679 144.961 -1.4 138.336 -1.4V2.6ZM149.76 8.40139C152.217 12.3782 153.586 18.7283 153.586 27.75H157.586C157.586 18.4716 156.205 11.2218 153.162 6.2986L149.76 8.40139ZM153.586 27.75C153.586 36.5926 152.126 42.9106 149.483 46.987L152.839 49.163C156.096 44.1394 157.586 36.9074 157.586 27.75H153.586ZM149.474 47C146.962 50.9418 143.342 52.9 138.336 52.9V56.9C144.63 56.9 149.56 54.3082 152.848 49.1499L149.474 47ZM138.336 52.9C133.027 52.9 129.374 50.8446 127.017 46.7729L123.555 48.7771C126.698 54.2054 131.745 56.9 138.336 56.9V52.9ZM127.017 46.7729C124.516 42.4533 123.161 36.1796 123.161 27.75H119.161C119.161 36.5204 120.556 43.5967 123.555 48.7771L127.017 46.7729ZM125.386 27.75C125.386 31.0802 125.591 34.1548 126.008 36.9681L129.964 36.3819C129.581 33.7952 129.386 30.9198 129.386 27.75H125.386ZM126.014 37.0098C126.487 39.7922 127.205 42.2687 128.195 44.4131L131.827 42.7369C131.017 40.9813 130.385 38.8578 129.958 36.3402L126.014 37.0098ZM128.204 44.4312C129.205 46.5453 130.499 48.3025 132.123 49.6255L134.649 46.5245C133.573 45.6475 132.617 44.4047 131.819 42.7188L128.204 44.4312ZM132.186 49.675C133.962 51.0073 136.043 51.65 138.336 51.65V47.65C136.829 47.65 135.61 47.2427 134.586 46.475L132.186 49.675ZM138.336 51.65C140.553 51.65 142.579 51.1358 144.334 50.0292C146.086 48.9247 147.443 47.3077 148.45 45.2944L144.872 43.5056C144.129 44.9923 143.224 46.0003 142.2 46.6458C141.18 47.2892 139.919 47.65 138.336 47.65V51.65ZM148.445 45.3045C150.464 41.3216 151.361 35.3807 151.361 27.75H147.361C147.361 35.2193 146.458 40.3784 144.877 43.4955L148.445 45.3045ZM151.361 27.75C151.361 24.4682 151.156 21.4188 150.739 18.6069L146.783 19.1931C147.166 21.7812 147.361 24.6318 147.361 27.75H151.361ZM150.744 18.6429C150.375 15.793 149.706 13.2625 148.702 11.0869L145.07 12.7631C145.866 14.4875 146.447 16.607 146.778 19.1571L150.744 18.6429ZM148.719 11.1258C147.761 8.92665 146.442 7.12307 144.711 5.825L142.311 9.025C143.38 9.82693 144.311 11.0233 145.053 12.7242L148.719 11.1258ZM144.711 5.825C142.908 4.47274 140.742 3.85 138.336 3.85V7.85C140.03 7.85 141.314 8.27726 142.311 9.025L144.711 5.825ZM138.336 3.85C136.133 3.85 134.117 4.37571 132.365 5.49643C130.619 6.61284 129.255 8.24342 128.227 10.2705L131.795 12.0795C132.567 10.5566 133.49 9.52466 134.52 8.86607C135.543 8.21179 136.789 7.85 138.336 7.85V3.85ZM128.217 10.2907C126.258 14.265 125.386 20.1705 125.386 27.75H129.386C129.386 20.3295 130.264 15.185 131.805 12.0593L128.217 10.2907ZM161.805 25.95V23.95H159.805V25.95H161.805ZM175.005 25.95V27.95H177.005V25.95H175.005ZM175.005 12.375V10.375H173.005V12.375H175.005ZM180.405 12.375H182.405V10.375H180.405V12.375ZM180.405 25.95H178.405V27.95H180.405V25.95ZM193.605 25.95H195.605V23.95H193.605V25.95ZM193.605 31.35V33.35H195.605V31.35H193.605ZM180.405 31.35V29.35H178.405V31.35H180.405ZM180.405 44.85V46.85H182.405V44.85H180.405ZM175.005 44.85H173.005V46.85H175.005V44.85ZM175.005 31.35H177.005V29.35H175.005V31.35ZM161.805 31.35H159.805V33.35H161.805V31.35ZM161.805 27.95H175.005V23.95H161.805V27.95ZM177.005 25.95V12.375H173.005V25.95H177.005ZM175.005 14.375H180.405V10.375H175.005V14.375ZM178.405 12.375V25.95H182.405V12.375H178.405ZM180.405 27.95H193.605V23.95H180.405V27.95ZM191.605 25.95V31.35H195.605V25.95H191.605ZM193.605 29.35H180.405V33.35H193.605V29.35ZM178.405 31.35V44.85H182.405V31.35H178.405ZM180.405 42.85H175.005V46.85H180.405V42.85ZM177.005 44.85V31.35H173.005V44.85H177.005ZM175.005 29.35H161.805V33.35H175.005V29.35ZM163.805 31.35V25.95H159.805V31.35H163.805Z" fill="white" mask="url(#path-1-outside-1_26_5365)"/>
</svg>
