<svg width="71" height="54" viewBox="0 0 71 54" fill="none" xmlns="http://www.w3.org/2000/svg">
<mask id="path-1-outside-1_26_5368" maskUnits="userSpaceOnUse" x="-2" y="-2" width="75" height="58" fill="black">
<rect fill="white" x="-2" y="-2" width="75" height="58"/>
<path d="M11.1073 48.65C14.5573 48.65 17.4073 47.65 19.6573 45.65C21.9073 43.65 23.0323 40.75 23.0323 36.95C23.0323 33.3 21.9073 30.575 19.6573 28.775C17.4573 26.975 14.4073 26.075 10.5073 26.075L4.20732 26.45V0.499996H27.6073V6.05H9.83232V20.975L13.0573 20.825C18.0073 20.875 21.9073 22.25 24.7573 24.95C27.6073 27.65 29.0323 31.525 29.0323 36.575C29.0323 39.375 28.5573 41.875 27.6073 44.075C26.6573 46.225 25.3573 48.025 23.7073 49.475C22.1073 50.925 20.2073 52.025 18.0073 52.775C15.8073 53.525 13.4573 53.9 10.9573 53.9C8.70732 53.9 6.80732 53.775 5.25732 53.525C3.70732 53.275 2.25732 52.9 0.907325 52.4L2.48232 47.3C3.63232 47.75 4.85732 48.1 6.15732 48.35C7.50732 48.55 9.15733 48.65 11.1073 48.65ZM39.0015 24.95H52.2015V11.375H57.6015V24.95H70.8015V30.35H57.6015V43.85H52.2015V30.35H39.0015V24.95Z"/>
</mask>
<path d="M19.6573 45.65L20.9861 47.1448L20.9861 47.1448L19.6573 45.65ZM19.6573 28.775L18.3908 30.3229L18.3994 30.3299L18.4079 30.3367L19.6573 28.775ZM10.5073 26.075V24.075H10.4479L10.3885 24.0785L10.5073 26.075ZM4.20732 26.45H2.20732V28.5726L4.32616 28.4465L4.20732 26.45ZM4.20732 0.499996V-1.5H2.20732V0.499996H4.20732ZM27.6073 0.499996H29.6073V-1.5H27.6073V0.499996ZM27.6073 6.05V8.05H29.6073V6.05H27.6073ZM9.83232 6.05V4.05H7.83232V6.05H9.83232ZM9.83232 20.975H7.83232V23.0702L9.92525 22.9728L9.83232 20.975ZM13.0573 20.825L13.0775 18.8251L13.0209 18.8245L12.9644 18.8272L13.0573 20.825ZM24.7573 24.95L23.3818 26.4019L23.3818 26.4019L24.7573 24.95ZM27.6073 44.075L29.4367 44.8833L29.4401 44.8756L29.4435 44.8679L27.6073 44.075ZM23.7073 49.475L22.3871 47.9727L22.3756 47.9828L22.3643 47.993L23.7073 49.475ZM18.0073 52.775L18.6527 54.668L18.6527 54.668L18.0073 52.775ZM5.25732 53.525L4.93886 55.4995L5.25732 53.525ZM0.907325 52.4L-1.00362 51.8099L-1.56208 53.6182L0.212696 54.2755L0.907325 52.4ZM2.48232 47.3L3.21112 45.4375L1.20654 44.6531L0.571375 46.7099L2.48232 47.3ZM6.15732 48.35L5.77963 50.314L5.82177 50.3221L5.86423 50.3284L6.15732 48.35ZM11.1073 50.65C14.9709 50.65 18.3167 49.5176 20.9861 47.1448L18.3286 44.1552C16.498 45.7824 14.1438 46.65 11.1073 46.65V50.65ZM20.9861 47.1448C23.77 44.6702 25.0323 41.1605 25.0323 36.95H21.0323C21.0323 40.3395 20.0446 42.6298 18.3286 44.1552L20.9861 47.1448ZM25.0323 36.95C25.0323 32.8693 23.7539 29.491 20.9067 27.2133L18.4079 30.3367C20.0607 31.659 21.0323 33.7307 21.0323 36.95H25.0323ZM20.9238 27.2271C18.2536 25.0424 14.6983 24.075 10.5073 24.075V28.075C14.1163 28.075 16.6611 28.9076 18.3908 30.3229L20.9238 27.2271ZM10.3885 24.0785L4.08849 24.4535L4.32616 28.4465L10.6262 28.0715L10.3885 24.0785ZM6.20732 26.45V0.499996H2.20732V26.45H6.20732ZM4.20732 2.5H27.6073V-1.5H4.20732V2.5ZM25.6073 0.499996V6.05H29.6073V0.499996H25.6073ZM27.6073 4.05H9.83232V8.05H27.6073V4.05ZM7.83232 6.05V20.975H11.8323V6.05H7.83232ZM9.92525 22.9728L13.1502 22.8228L12.9644 18.8272L9.7394 18.9772L9.92525 22.9728ZM13.0371 22.8249C17.6196 22.8712 20.987 24.1331 23.3818 26.4019L26.1328 23.4981C22.8277 20.3669 18.3951 18.8788 13.0775 18.8251L13.0371 22.8249ZM23.3818 26.4019C25.7269 28.6235 27.0323 31.9083 27.0323 36.575H31.0323C31.0323 31.1417 29.4878 26.6765 26.1328 23.4981L23.3818 26.4019ZM27.0323 36.575C27.0323 39.1477 26.5964 41.3711 25.7712 43.2821L29.4435 44.8679C30.5182 42.3789 31.0323 39.6023 31.0323 36.575H27.0323ZM25.778 43.2667C24.9369 45.1701 23.804 46.7275 22.3871 47.9727L25.0276 50.9773C26.9107 49.3225 28.3777 47.2799 29.4367 44.8833L25.778 43.2667ZM22.3643 47.993C20.9815 49.2462 19.3238 50.2132 17.362 50.882L18.6527 54.668C21.0909 53.8368 23.2332 52.6038 25.0504 50.957L22.3643 47.993ZM17.362 50.882C15.3849 51.556 13.2544 51.9 10.9573 51.9V55.9C13.6602 55.9 16.2297 55.494 18.6527 54.668L17.362 50.882ZM10.9573 51.9C8.77244 51.9 6.98617 51.778 5.57579 51.5505L4.93886 55.4995C6.62848 55.772 8.64221 55.9 10.9573 55.9V51.9ZM5.57579 51.5505C4.14265 51.3194 2.81967 50.9755 1.60195 50.5245L0.212696 54.2755C1.69498 54.8245 3.27199 55.2306 4.93886 55.4995L5.57579 51.5505ZM2.81827 52.9901L4.39327 47.8901L0.571375 46.7099L-1.00362 51.8099L2.81827 52.9901ZM1.75353 49.1625C3.02503 49.66 4.36827 50.0426 5.77963 50.314L6.53502 46.386C5.34638 46.1574 4.23962 45.84 3.21112 45.4375L1.75353 49.1625ZM5.86423 50.3284C7.34263 50.5474 9.09708 50.65 11.1073 50.65V46.65C9.21757 46.65 7.67202 46.5526 6.45042 46.3716L5.86423 50.3284ZM39.0015 24.95V22.95H37.0015V24.95H39.0015ZM52.2015 24.95V26.95H54.2015V24.95H52.2015ZM52.2015 11.375V9.375H50.2015V11.375H52.2015ZM57.6015 11.375H59.6015V9.375H57.6015V11.375ZM57.6015 24.95H55.6015V26.95H57.6015V24.95ZM70.8015 24.95H72.8015V22.95H70.8015V24.95ZM70.8015 30.35V32.35H72.8015V30.35H70.8015ZM57.6015 30.35V28.35H55.6015V30.35H57.6015ZM57.6015 43.85V45.85H59.6015V43.85H57.6015ZM52.2015 43.85H50.2015V45.85H52.2015V43.85ZM52.2015 30.35H54.2015V28.35H52.2015V30.35ZM39.0015 30.35H37.0015V32.35H39.0015V30.35ZM39.0015 26.95H52.2015V22.95H39.0015V26.95ZM54.2015 24.95V11.375H50.2015V24.95H54.2015ZM52.2015 13.375H57.6015V9.375H52.2015V13.375ZM55.6015 11.375V24.95H59.6015V11.375H55.6015ZM57.6015 26.95H70.8015V22.95H57.6015V26.95ZM68.8015 24.95V30.35H72.8015V24.95H68.8015ZM70.8015 28.35H57.6015V32.35H70.8015V28.35ZM55.6015 30.35V43.85H59.6015V30.35H55.6015ZM57.6015 41.85H52.2015V45.85H57.6015V41.85ZM54.2015 43.85V30.35H50.2015V43.85H54.2015ZM52.2015 28.35H39.0015V32.35H52.2015V28.35ZM41.0015 30.35V24.95H37.0015V30.35H41.0015Z" fill="white" mask="url(#path-1-outside-1_26_5368)"/>
</svg>
