<svg width="102" height="60" viewBox="0 0 102 60" fill="none" xmlns="http://www.w3.org/2000/svg">
<path fill-rule="evenodd" clip-rule="evenodd" d="M31 15C31 14.4477 31.4477 14 32 14H75C75.5523 14 76 14.4477 76 15V23.5H90.5C90.8288 23.5 91.1366 23.6616 91.3232 23.9323L101.323 38.4323C101.438 38.5992 101.5 38.7972 101.5 39V51C101.5 51.5523 101.052 52 100.5 52H96C96 56.4183 92.4183 60 88 60C83.5817 60 80 56.4183 80 52H54C54 56.4183 50.4183 60 46 60C41.5817 60 38 56.4183 38 52H32C31.4477 52 31 51.5523 31 51V15ZM38.2523 50C39.1407 46.5493 42.2719 44 46 44C49.7281 44 52.8593 46.5493 53.7477 50H74V16H33V50H38.2523ZM76 50H80.2523C81.1407 46.5493 84.2719 44 88 44C91.7281 44 94.8593 46.5493 95.7477 50H99.5V40H89C86.2386 40 84 37.7614 84 35V34.5C84 31.7386 86.2386 29.5 89 29.5H92.7335L89.9749 25.5H76V50ZM94.1128 31.5H89C87.3431 31.5 86 32.8431 86 34.5V35C86 36.6569 87.3431 38 89 38H98.5956L94.1128 31.5ZM39.2929 23.7929C39.6834 23.4024 40.3166 23.4024 40.7071 23.7929L49.2071 32.2929C49.5976 32.6834 49.5976 33.3166 49.2071 33.7071L40.7071 42.2071C40.3166 42.5976 39.6834 42.5976 39.2929 42.2071C38.9024 41.8166 38.9024 41.1834 39.2929 40.7929L47.0858 33L39.2929 25.2071C38.9024 24.8166 38.9024 24.1834 39.2929 23.7929ZM49.2929 23.7929C49.6834 23.4024 50.3166 23.4024 50.7071 23.7929L59.2071 32.2929C59.5976 32.6834 59.5976 33.3166 59.2071 33.7071L50.7071 42.2071C50.3166 42.5976 49.6834 42.5976 49.2929 42.2071C48.9024 41.8166 48.9024 41.1834 49.2929 40.7929L57.0858 33L49.2929 25.2071C48.9024 24.8166 48.9024 24.1834 49.2929 23.7929ZM59.2929 23.7929C59.6834 23.4024 60.3166 23.4024 60.7071 23.7929L69.2071 32.2929C69.5976 32.6834 69.5976 33.3166 69.2071 33.7071L60.7071 42.2071C60.3166 42.5976 59.6834 42.5976 59.2929 42.2071C58.9024 41.8166 58.9024 41.1834 59.2929 40.7929L67.0858 33L59.2929 25.2071C58.9024 24.8166 58.9024 24.1834 59.2929 23.7929ZM7.5 25.5C7.5 24.9477 7.94772 24.5 8.5 24.5H26.5C27.0523 24.5 27.5 24.9477 27.5 25.5C27.5 26.0523 27.0523 26.5 26.5 26.5H8.5C7.94772 26.5 7.5 26.0523 7.5 25.5ZM0 33C0 32.4477 0.447715 32 1 32H26.5C27.0523 32 27.5 32.4477 27.5 33C27.5 33.5523 27.0523 34 26.5 34H1C0.447715 34 0 33.5523 0 33ZM7.5 40.5C7.5 39.9477 7.94772 39.5 8.5 39.5H26.5C27.0523 39.5 27.5 39.9477 27.5 40.5C27.5 41.0523 27.0523 41.5 26.5 41.5H8.5C7.94772 41.5 7.5 41.0523 7.5 40.5ZM46 46C42.9782 46 40.4766 48.2349 40.0608 51.1416C40.0208 51.4214 40 51.708 40 52C40 55.3137 42.6863 58 46 58C49.3137 58 52 55.3137 52 52C52 51.708 51.9792 51.4214 51.9392 51.1416C51.5234 48.2349 49.0218 46 46 46ZM88 46C84.9782 46 82.4766 48.2349 82.0608 51.1416C82.0208 51.4215 82 51.708 82 52C82 55.3137 84.6863 58 88 58C91.3137 58 94 55.3137 94 52C94 51.708 93.9792 51.4215 93.9392 51.1416C93.5234 48.2349 91.0218 46 88 46ZM46 50C44.8954 50 44 50.8954 44 52C44 53.1046 44.8954 54 46 54C47.1046 54 48 53.1046 48 52C48 50.8954 47.1046 50 46 50ZM42 52C42 49.7909 43.7909 48 46 48C48.2091 48 50 49.7909 50 52C50 54.2091 48.2091 56 46 56C43.7909 56 42 54.2091 42 52ZM88 50C86.8954 50 86 50.8954 86 52C86 53.1046 86.8954 54 88 54C89.1046 54 90 53.1046 90 52C90 50.8954 89.1046 50 88 50ZM84 52C84 49.7909 85.7909 48 88 48C90.2091 48 92 49.7909 92 52C92 54.2091 90.2091 56 88 56C85.7909 56 84 54.2091 84 52Z" fill="#FF4500"/>
</svg>
