<svg width="58" height="56" viewBox="0 0 58 56" fill="none" xmlns="http://www.w3.org/2000/svg">
<path d="M47.3379 5.91724C47.3379 4.28334 46.0132 2.95862 44.3793 2.95862H41.4207C41.4207 1.32472 40.096 0 38.4621 0C36.8282 0 35.5034 1.32472 35.5034 2.95862H31.5586C31.5586 1.32472 30.2339 0 28.6 0C26.9661 0 25.6414 1.32472 25.6414 2.95862H21.6966C21.6966 1.32472 20.3718 0 18.7379 0C17.104 0 15.7793 1.32472 15.7793 2.95862H11.8345C11.8345 1.32472 10.5098 0 8.87586 0C7.24196 0 5.91724 1.32472 5.91724 2.95862H2.95862C1.32472 2.95862 0 4.28334 0 5.91724V47.3379C0 47.5995 0.103904 47.8503 0.288853 48.0353C0.473803 48.2202 0.724649 48.3241 0.986207 48.3241H3.94483V51.2827C3.94483 51.5443 4.04873 51.7952 4.23368 51.9801C4.41863 52.1651 4.66948 52.269 4.93103 52.269H30.9008C30.9139 52.269 30.9235 52.2622 30.9355 52.2622C36.1588 55.8647 42.9694 56.207 48.5278 53.1458C54.0863 50.0851 57.4379 44.1462 57.1861 37.8062C56.9342 31.4657 53.1218 25.8119 47.3379 23.2014V5.91724ZM37.4759 2.95862C37.4759 2.69706 37.5798 2.44622 37.7647 2.26127C37.9497 2.07632 38.2005 1.97241 38.4621 1.97241C38.7236 1.97241 38.9745 2.07632 39.1594 2.26127C39.3444 2.44622 39.4483 2.69706 39.4483 2.95862V5.91724H37.4759V2.95862ZM27.6138 2.95862C27.6138 2.69706 27.7177 2.44622 27.9026 2.26127C28.0876 2.07632 28.3384 1.97241 28.6 1.97241C28.8616 1.97241 29.1124 2.07632 29.2974 2.26127C29.4823 2.44622 29.5862 2.69706 29.5862 2.95862V5.91724H27.6138V2.95862ZM17.7517 2.95862C17.7517 2.69706 17.8556 2.44622 18.0406 2.26127C18.2255 2.07632 18.4764 1.97241 18.7379 1.97241C18.9995 1.97241 19.2503 2.07632 19.4353 2.26127C19.6202 2.44622 19.7241 2.69706 19.7241 2.95862V5.91724H17.7517V2.95862ZM7.88965 2.95862C7.88965 2.69706 7.99356 2.44622 8.17851 2.26127C8.36346 2.07632 8.6143 1.97241 8.87586 1.97241C9.13742 1.97241 9.38827 2.07632 9.57321 2.26127C9.75816 2.44622 9.86207 2.69706 9.86207 2.95862V5.91724H7.88965V2.95862ZM1.97241 5.91724C1.97241 5.65568 2.07632 5.40484 2.26127 5.21989C2.44622 5.03494 2.69706 4.93103 2.95862 4.93103H5.91724V6.90345C5.91724 7.03296 5.94275 7.1612 5.99231 7.28085C6.04187 7.4005 6.11452 7.50922 6.20609 7.6008C6.29767 7.69238 6.40639 7.76502 6.52604 7.81458C6.6457 7.86414 6.77394 7.88965 6.90345 7.88965H10.8483C11.1098 7.88965 11.3607 7.78575 11.5456 7.6008C11.7306 7.41585 11.8345 7.16501 11.8345 6.90345V4.93103H15.7793V6.90345C15.7793 7.16501 15.8832 7.41585 16.0682 7.6008C16.2531 7.78575 16.504 7.88965 16.7655 7.88965H20.7103C20.9719 7.88965 21.2227 7.78575 21.4077 7.6008C21.5926 7.41585 21.6966 7.16501 21.6966 6.90345V4.93103H25.6414V6.90345C25.6414 7.16501 25.7453 7.41585 25.9302 7.6008C26.1152 7.78575 26.366 7.88965 26.6276 7.88965H30.5724C30.834 7.88965 31.0848 7.78575 31.2698 7.6008C31.4547 7.41585 31.5586 7.16501 31.5586 6.90345V4.93103H35.5034V6.90345C35.5034 7.16501 35.6073 7.41585 35.7923 7.6008C35.9772 7.78575 36.2281 7.88965 36.4897 7.88965H40.4345C40.696 7.88965 40.9469 7.78575 41.1318 7.6008C41.3168 7.41585 41.4207 7.16501 41.4207 6.90345V4.93103H44.3793C44.6409 4.93103 44.8917 5.03494 45.0767 5.21989C45.2616 5.40484 45.3655 5.65568 45.3655 5.91724V10.8483H1.97241V5.91724ZM5.91724 48.3241H26.9069C27.4103 49.0234 27.9669 49.6828 28.5716 50.2965H5.91724V48.3241ZM55.2276 38.4621C55.2276 46.632 48.6043 53.2552 40.4345 53.2552C32.2646 53.2552 25.6414 46.632 25.6414 38.4621C25.6414 30.2922 32.2646 23.669 40.4345 23.669C48.6005 23.6781 55.2185 30.296 55.2276 38.4621ZM40.4345 21.6965C34.5437 21.6927 29.084 24.7823 26.0546 29.8342C23.0251 34.8856 22.871 41.1577 25.649 46.3517H1.97241V12.8207H45.3655V22.4392C43.7682 21.9465 42.106 21.6961 40.4345 21.6965Z" fill="#FF4500"/>
<path d="M8.87586 16.7656C7.24196 16.7656 5.91724 18.0903 5.91724 19.7242C5.91724 21.3581 7.24196 22.6829 8.87586 22.6829C10.5098 22.6829 11.8345 21.3581 11.8345 19.7242C11.8345 18.0903 10.5098 16.7656 8.87586 16.7656ZM8.87586 20.7105C8.6143 20.7105 8.36345 20.6065 8.1785 20.4216C7.99355 20.2366 7.88965 19.9858 7.88965 19.7242C7.88965 19.4627 7.99355 19.2118 8.1785 19.0269C8.36345 18.8419 8.6143 18.738 8.87586 18.738C9.13741 18.738 9.38826 18.8419 9.57321 19.0269C9.75816 19.2118 9.86206 19.4627 9.86206 19.7242C9.86206 19.9858 9.75816 20.2366 9.57321 20.4216C9.38826 20.6065 9.13741 20.7105 8.87586 20.7105ZM18.7379 16.7656C17.104 16.7656 15.7793 18.0903 15.7793 19.7242C15.7793 21.3581 17.104 22.6829 18.7379 22.6829C20.3718 22.6829 21.6965 21.3581 21.6965 19.7242C21.6965 18.0903 20.3718 16.7656 18.7379 16.7656ZM18.7379 20.7105C18.4764 20.7105 18.2255 20.6065 18.0406 20.4216C17.8556 20.2366 17.7517 19.9858 17.7517 19.7242C17.7517 19.4627 17.8556 19.2118 18.0406 19.0269C18.2255 18.8419 18.4764 18.738 18.7379 18.738C18.9995 18.738 19.2503 18.8419 19.4353 19.0269C19.6202 19.2118 19.7241 19.4627 19.7241 19.7242C19.7241 19.9858 19.6202 20.2366 19.4353 20.4216C19.2503 20.6065 18.9995 20.7105 18.7379 20.7105ZM28.6 16.7656C26.9661 16.7656 25.6414 18.0903 25.6414 19.7242C25.6414 21.3581 26.9661 22.6829 28.6 22.6829C30.2339 22.6829 31.5586 21.3581 31.5586 19.7242C31.5586 18.0903 30.2339 16.7656 28.6 16.7656ZM28.6 20.7105C28.3384 20.7105 28.0876 20.6065 27.9026 20.4216C27.7177 20.2366 27.6138 19.9858 27.6138 19.7242C27.6138 19.4627 27.7177 19.2118 27.9026 19.0269C28.0876 18.8419 28.3384 18.738 28.6 18.738C28.8615 18.738 29.1124 18.8419 29.2973 19.0269C29.4823 19.2118 29.5862 19.4627 29.5862 19.7242C29.5862 19.9858 29.4823 20.2366 29.2973 20.4216C29.1124 20.6065 28.8615 20.7105 28.6 20.7105ZM8.87586 24.6553C7.24196 24.6553 5.91724 25.98 5.91724 27.6139C5.91724 29.2478 7.24196 30.5725 8.87586 30.5725C10.5098 30.5725 11.8345 29.2478 11.8345 27.6139C11.8345 25.98 10.5098 24.6553 8.87586 24.6553ZM8.87586 28.6001C8.6143 28.6001 8.36345 28.4962 8.1785 28.3113C7.99355 28.1263 7.88965 27.8755 7.88965 27.6139C7.88965 27.3523 7.99355 27.1015 8.1785 26.9165C8.36345 26.7316 8.6143 26.6277 8.87586 26.6277C9.13741 26.6277 9.38826 26.7316 9.57321 26.9165C9.75816 27.1015 9.86206 27.3523 9.86206 27.6139C9.86206 27.8755 9.75816 28.1263 9.57321 28.3113C9.38826 28.4962 9.13741 28.6001 8.87586 28.6001ZM18.7379 24.6553C17.104 24.6553 15.7793 25.98 15.7793 27.6139C15.7793 29.2478 17.104 30.5725 18.7379 30.5725C20.3718 30.5725 21.6965 29.2478 21.6965 27.6139C21.6965 25.98 20.3718 24.6553 18.7379 24.6553ZM18.7379 28.6001C18.4764 28.6001 18.2255 28.4962 18.0406 28.3113C17.8556 28.1263 17.7517 27.8755 17.7517 27.6139C17.7517 27.3523 17.8556 27.1015 18.0406 26.9165C18.2255 26.7316 18.4764 26.6277 18.7379 26.6277C18.9995 26.6277 19.2503 26.7316 19.4353 26.9165C19.6202 27.1015 19.7241 27.3523 19.7241 27.6139C19.7241 27.8755 19.6202 28.1263 19.4353 28.3113C19.2503 28.4962 18.9995 28.6001 18.7379 28.6001ZM8.87586 32.5449C7.24196 32.5449 5.91724 33.8697 5.91724 35.5036C5.91724 37.1375 7.24196 38.4622 8.87586 38.4622C10.5098 38.4622 11.8345 37.1375 11.8345 35.5036C11.8345 33.8697 10.5098 32.5449 8.87586 32.5449ZM8.87586 36.4898C8.6143 36.4898 8.36345 36.3859 8.1785 36.2009C7.99355 36.016 7.88965 35.7651 7.88965 35.5036C7.88965 35.242 7.99355 34.9911 8.1785 34.8062C8.36345 34.6212 8.6143 34.5173 8.87586 34.5173C9.13741 34.5173 9.38826 34.6212 9.57321 34.8062C9.75816 34.9911 9.86206 35.242 9.86206 35.5036C9.86206 35.7651 9.75816 36.016 9.57321 36.2009C9.38826 36.3859 9.13741 36.4898 8.87586 36.4898ZM18.7379 32.5449C17.104 32.5449 15.7793 33.8697 15.7793 35.5036C15.7793 37.1375 17.104 38.4622 18.7379 38.4622C20.3718 38.4622 21.6965 37.1375 21.6965 35.5036C21.6965 33.8697 20.3718 32.5449 18.7379 32.5449ZM18.7379 36.4898C18.4764 36.4898 18.2255 36.3859 18.0406 36.2009C17.8556 36.016 17.7517 35.7651 17.7517 35.5036C17.7517 35.242 17.8556 34.9911 18.0406 34.8062C18.2255 34.6212 18.4764 34.5173 18.7379 34.5173C18.9995 34.5173 19.2503 34.6212 19.4353 34.8062C19.6202 34.9911 19.7241 35.242 19.7241 35.5036C19.7241 35.7651 19.6202 36.016 19.4353 36.2009C19.2503 36.3859 18.9995 36.4898 18.7379 36.4898ZM27.6138 38.4622C27.6138 45.5429 33.3539 51.2829 40.4345 51.2829C47.5151 51.2829 53.2552 45.5429 53.2552 38.4622C53.2552 31.3815 47.5151 25.6415 40.4345 25.6415C33.3572 25.6497 27.6219 31.3849 27.6138 38.4622ZM51.2827 38.4622H49.3103C49.0488 38.4622 48.7979 38.5661 48.613 38.751C48.428 38.936 48.3241 39.1868 48.3241 39.4484C48.3241 39.7099 48.428 39.9608 48.613 40.1457C48.7979 40.3307 49.0488 40.4346 49.3103 40.4346H51.0945C50.2051 45.2083 46.2554 48.8117 41.4207 49.2604V47.338C41.4207 47.0765 41.3168 46.8256 41.1318 46.6407C40.9469 46.4557 40.696 46.3518 40.4345 46.3518C40.1729 46.3518 39.9221 46.4557 39.7371 46.6407C39.5522 46.8256 39.4483 47.0765 39.4483 47.338V49.2604C34.6135 48.8117 30.6639 45.2082 29.7744 40.4346H31.5586C31.8202 40.4346 32.071 40.3307 32.256 40.1457C32.4409 39.9608 32.5448 39.7099 32.5448 39.4484C32.5448 39.1868 32.4409 38.936 32.256 38.751C32.071 38.5661 31.8202 38.4622 31.5586 38.4622H29.5862C29.5935 32.8569 33.8667 28.1783 39.4483 27.6644V29.5863C39.4483 29.8479 39.5522 30.0987 39.7371 30.2837C39.9221 30.4686 40.1729 30.5725 40.4345 30.5725C40.696 30.5725 40.9469 30.4686 41.1318 30.2837C41.3168 30.0987 41.4207 29.8479 41.4207 29.5863V27.6644C47.0022 28.1783 51.2755 32.8569 51.2827 38.4622Z" fill="#FF4500"/>
<path d="M40.6463 37.9888L39.2825 35.9428C39.1373 35.7252 38.9117 35.5742 38.6552 35.5229C38.3987 35.4716 38.1323 35.5242 37.9146 35.6691C37.8068 35.741 37.7142 35.8334 37.6422 35.9411C37.5702 36.0488 37.52 36.1696 37.4947 36.2966C37.4693 36.4237 37.4692 36.5544 37.4944 36.6815C37.5196 36.8086 37.5696 36.9295 37.6415 37.0372L39.6139 39.9958C39.6908 40.1106 39.7909 40.208 39.9078 40.2818C40.0247 40.3555 40.1557 40.404 40.2924 40.424C40.4293 40.4442 40.569 40.4352 40.7022 40.3978C40.8355 40.3604 40.9593 40.2953 41.0657 40.2068L46.983 35.2757C47.0826 35.1929 47.1649 35.0912 47.2252 34.9765C47.2855 34.8619 47.3226 34.7364 47.3344 34.6074C47.3462 34.4784 47.3324 34.3483 47.294 34.2246C47.2555 34.1009 47.193 33.986 47.1101 33.8864C46.9427 33.6852 46.7022 33.5588 46.4416 33.5349C46.181 33.511 45.9216 33.5916 45.7204 33.759L40.6463 37.9888Z" fill="#FF4500"/>
</svg>
