<svg width="100" height="60" viewBox="0 0 100 60" fill="none" xmlns="http://www.w3.org/2000/svg">
<path fill-rule="evenodd" clip-rule="evenodd" d="M36.25 2.90164C36.25 1.30348 37.5408 0 39.1429 0H75.1071C76.7092 0 78 1.30348 78 2.90164V49.4918C78 51.09 76.7092 52.3934 75.1071 52.3934H55.2857V54.7213C55.2857 56.5118 53.796 57.8341 52.082 58.6498C50.2932 59.501 47.8924 60 45.2946 60C42.6969 60 40.296 59.501 38.5073 58.6498C36.7933 57.8341 35.3036 56.5118 35.3036 54.7213V52.2581C34.561 52.3467 33.7865 52.3934 32.9911 52.3934C30.3933 52.3934 27.9925 51.8944 26.2037 51.0432C24.4898 50.2276 23 48.9052 23 47.1148V18.5902C23 16.7997 24.4898 15.4774 26.2037 14.6617C27.9925 13.8105 30.3933 13.3115 32.9911 13.3115C34.1302 13.3115 35.2276 13.4073 36.25 13.5852V2.90164ZM38.25 14.0666C39.4361 14.4404 40.4822 14.9485 41.2877 15.5769C42.253 16.33 42.9821 17.3517 42.9821 18.5902V38.1681C43.7247 38.0795 44.4993 38.0328 45.2946 38.0328C47.8924 38.0328 50.2932 38.5318 52.082 39.383C53.796 40.1987 55.2857 41.521 55.2857 43.3115V50.3934H75.1071C75.5959 50.3934 76 49.9941 76 49.4918V2.90164C76 2.39931 75.5959 2 75.1071 2H39.1429C38.6541 2 38.25 2.39931 38.25 2.90164V14.0666ZM53.2857 52.2526V54.7213C53.2857 55.2939 52.7627 56.1109 51.2226 56.8438C49.7572 57.5412 47.6625 58 45.2946 58C42.9268 58 40.8321 57.5412 39.3667 56.8438C37.8265 56.1109 37.3036 55.2939 37.3036 54.7213V52.2526C37.6788 52.5136 38.0863 52.7445 38.5073 52.9449C40.296 53.7961 42.6969 54.2951 45.2946 54.2951C47.8924 54.2951 50.2932 53.7961 52.082 52.9449C52.503 52.7445 52.9105 52.5136 53.2857 52.2526ZM37.3036 49.0164C37.3036 49.589 37.8265 50.406 39.3667 51.1389C40.8321 51.8363 42.9268 52.2951 45.2946 52.2951C47.6625 52.2951 49.7572 51.8363 51.2226 51.1389C52.7627 50.406 53.2857 49.589 53.2857 49.0164V46.5477C52.9105 46.8086 52.503 47.0396 52.082 47.2399C50.2932 48.0912 47.8924 48.5902 45.2946 48.5902C42.6969 48.5902 40.296 48.0912 38.5073 47.2399C38.0863 47.0396 37.6788 46.8086 37.3036 46.5477V49.0164ZM35.3036 44.5372V43.3115C35.3036 42.2553 35.831 41.3593 36.5903 40.6471C35.4688 40.8658 34.2532 40.9836 32.9911 40.9836C30.3933 40.9836 27.9925 40.4846 26.2037 39.6334C25.7827 39.433 25.3752 39.2021 25 38.9412V41.4098C25 41.9824 25.523 42.7994 27.0631 43.5324C28.5285 44.2297 30.6232 44.6885 32.9911 44.6885C33.7956 44.6885 34.5714 44.6355 35.3036 44.5372ZM25 44.6461V47.1148C25 47.6873 25.523 48.5043 27.0631 49.2373C28.5285 49.9346 30.6232 50.3934 32.9911 50.3934C33.7956 50.3934 34.5714 50.3404 35.3036 50.2422V46.5532C34.561 46.6418 33.7865 46.6885 32.9911 46.6885C30.3933 46.6885 27.9925 46.1895 26.2037 45.3383C25.7827 45.1379 25.3752 44.907 25 44.6461ZM25 35.7049C25 36.2775 25.523 37.0945 27.0631 37.8274C28.5285 38.5248 30.6232 38.9836 32.9911 38.9836C35.3589 38.9836 37.4536 38.5248 38.919 37.8274C40.4592 37.0945 40.9821 36.2775 40.9821 35.7049V33.2362C40.6069 33.4972 40.1994 33.7281 39.7784 33.9285C37.9897 34.7797 35.5888 35.2787 32.9911 35.2787C30.3933 35.2787 27.9925 34.7797 26.2037 33.9285C25.7827 33.7281 25.3752 33.4972 25 33.2362V35.7049ZM25 30C25 30.5726 25.523 31.3896 27.0631 32.1225C28.5285 32.8199 30.6232 33.2787 32.9911 33.2787C35.3589 33.2787 37.4536 32.8199 38.919 32.1225C40.4592 31.3896 40.9821 30.5726 40.9821 30V27.5313C40.6069 27.7923 40.1994 28.0232 39.7784 28.2235C37.9897 29.0748 35.5888 29.5738 32.9911 29.5738C30.3933 29.5738 27.9925 29.0748 26.2037 28.2235C25.7827 28.0232 25.3752 27.7923 25 27.5313V30ZM25 24.2951C25 24.8677 25.523 25.6847 27.0631 26.4176C28.5285 27.1149 30.6232 27.5738 32.9911 27.5738C35.3589 27.5738 37.4536 27.1149 38.919 26.4176C40.4592 25.6847 40.9821 24.8677 40.9821 24.2951V21.8264C40.6069 22.0873 40.1994 22.3183 39.7784 22.5186C37.9897 23.3699 35.5888 23.8689 32.9911 23.8689C30.3933 23.8689 27.9925 23.3699 26.2037 22.5186C25.7827 22.3183 25.3752 22.0873 25 21.8264V24.2951ZM25 18.5902C25 19.1628 25.523 19.9797 27.0631 20.7127C28.5285 21.41 30.6232 21.8689 32.9911 21.8689C35.3589 21.8689 37.4536 21.41 38.919 20.7127C40.4592 19.9797 40.9821 19.1628 40.9821 18.5902C40.9821 18.1988 40.754 17.6972 40.0574 17.1538C39.3675 16.6155 38.3235 16.1286 37.0016 15.7897C35.8209 15.4869 34.4544 15.3115 32.9911 15.3115C30.6232 15.3115 28.5285 15.7703 27.0631 16.4676C25.523 17.2006 25 18.0176 25 18.5902ZM37.3036 43.3115C37.3036 43.8841 37.8265 44.7011 39.3667 45.434C40.8321 46.1313 42.9268 46.5902 45.2946 46.5902C47.6625 46.5902 49.7572 46.1313 51.2226 45.434C52.7627 44.7011 53.2857 43.8841 53.2857 43.3115C53.2857 42.7389 52.7627 41.9219 51.2226 41.189C49.7572 40.4916 47.6625 40.0328 45.2946 40.0328C44.1846 40.0328 43.1291 40.1337 42.1676 40.3152C40.5956 40.6118 39.3185 41.1149 38.4622 41.7039C37.5881 42.3052 37.3036 42.8784 37.3036 43.3115ZM49.1063 16.4296C48.5577 17.1874 48.1875 18.2843 48.1875 19.541C48.1875 20.7977 48.5577 21.8945 49.1063 22.6524C49.6558 23.4115 50.3286 23.7705 50.9732 23.7705C51.6178 23.7705 52.2906 23.4115 52.8401 22.6524C53.3887 21.8945 53.7589 20.7977 53.7589 19.541C53.7589 18.2843 53.3887 17.1874 52.8401 16.4296C52.2906 15.6705 51.6178 15.3115 50.9732 15.3115C50.3286 15.3115 49.6558 15.6705 49.1063 16.4296ZM47.4863 15.2568C48.3069 14.1231 49.527 13.3115 50.9732 13.3115C52.4194 13.3115 53.6395 14.1231 54.4601 15.2568C55.2817 16.3916 55.7589 17.9095 55.7589 19.541C55.7589 21.1724 55.2817 22.6904 54.4601 23.8252C53.6395 24.9588 52.4194 25.7705 50.9732 25.7705C49.527 25.7705 48.3069 24.9588 47.4863 23.8252C46.6648 22.6904 46.1875 21.1724 46.1875 19.541C46.1875 17.9095 46.6648 16.3916 47.4863 15.2568ZM64.7176 15.3439C65.1977 15.6169 65.3655 16.2275 65.0924 16.7075L53.7353 36.6747C53.4622 37.1548 52.8517 37.3226 52.3717 37.0496C51.8916 36.7765 51.7238 36.166 51.9968 35.6859L63.354 15.7187C63.627 15.2386 64.2376 15.0708 64.7176 15.3439ZM63.3028 29.741C62.7541 30.4989 62.3839 31.5957 62.3839 32.8525C62.3839 34.1092 62.7541 35.206 63.3028 35.9639C63.8523 36.723 64.5251 37.082 65.1696 37.082C65.8142 37.082 66.487 36.723 67.0365 35.9639C67.5852 35.206 67.9554 34.1092 67.9554 32.8525C67.9554 31.5957 67.5852 30.4989 67.0365 29.741C66.487 28.982 65.8142 28.623 65.1696 28.623C64.5251 28.623 63.8523 28.982 63.3028 29.741ZM61.6827 28.5682C62.5034 27.4346 63.7234 26.623 65.1696 26.623C66.6158 26.623 67.8359 27.4346 68.6566 28.5682C69.4781 29.7031 69.9554 31.221 69.9554 32.8525C69.9554 34.4839 69.4781 36.0018 68.6566 37.1367C67.8359 38.2703 66.6158 39.082 65.1696 39.082C63.7234 39.082 62.5034 38.2703 61.6827 37.1367C60.8612 36.0018 60.3839 34.4839 60.3839 32.8525C60.3839 31.221 60.8612 29.7031 61.6827 28.5682Z" fill="#FF4500"/>
</svg>
