<svg width="56" height="56" viewBox="0 0 56 56" fill="none" xmlns="http://www.w3.org/2000/svg">
<path d="M10.725 42.8981H8.9375V20.5547H46.4745V36.642H44.687V22.3422H10.725V42.8981Z" fill="#FF4500"/>
<path d="M46.4745 29.4921H8.9375V20.5547H46.4745V29.4921ZM10.725 27.7046H44.687V22.3422H10.725V27.7046Z" fill="#FF4500"/>
<path d="M8.93738 24.13H46.4744V25.9175H8.93738V24.13ZM42.8994 18.7676H12.5123V11.6177H42.8994V18.7676ZM14.2998 16.9801H41.112V13.4052H14.2998V16.9801ZM0 53.6234H55.4118V55.4109H0V53.6234Z" fill="#FF4500"/>
<path d="M19.6624 55.4107H5.36255V41.1108H19.6624V55.4107ZM7.15003 53.6232H17.8749V42.8983H7.15003V53.6232Z" fill="#FF4500"/>
<path d="M15.1935 50.9418H16.0872V51.8356H15.1935V50.9418ZM13.406 50.9418H14.2997V51.8356H13.406V50.9418ZM49.1555 55.4105C48.4485 55.4105 47.7573 55.2009 47.1694 54.808C46.5815 54.4152 46.1233 53.8569 45.8527 53.2037C45.5821 52.5504 45.5113 51.8316 45.6493 51.1381C45.7872 50.4447 46.1277 49.8077 46.6277 49.3077C47.1276 48.8077 47.7646 48.4673 48.4581 48.3293C49.1516 48.1914 49.8704 48.2622 50.5236 48.5328C51.1769 48.8033 51.7352 49.2615 52.128 49.8494C52.5208 50.4373 52.7305 51.1285 52.7305 51.8356C52.7305 52.7837 52.3538 53.693 51.6834 54.3635C51.013 55.0339 50.1037 55.4105 49.1555 55.4105ZM49.1555 50.0481C48.802 50.0481 48.4564 50.1529 48.1625 50.3493C47.8685 50.5458 47.6394 50.8249 47.5041 51.1515C47.3688 51.4782 47.3334 51.8376 47.4024 52.1843C47.4714 52.531 47.6416 52.8495 47.8916 53.0995C48.1416 53.3495 48.4601 53.5197 48.8068 53.5887C49.1536 53.6577 49.513 53.6223 49.8396 53.487C50.1662 53.3517 50.4454 53.1226 50.6418 52.8287C50.8382 52.5347 50.943 52.1891 50.943 51.8356C50.943 51.3615 50.7547 50.9069 50.4195 50.5716C50.0843 50.2364 49.6296 50.0481 49.1555 50.0481ZM32.1745 55.4105C31.4675 55.4105 30.7763 55.2009 30.1884 54.808C29.6005 54.4152 29.1423 53.8569 28.8717 53.2037C28.6011 52.5504 28.5303 51.8316 28.6682 51.1381C28.8062 50.4447 29.1467 49.8077 29.6466 49.3077C30.1466 48.8077 30.7836 48.4673 31.4771 48.3293C32.1705 48.1914 32.8894 48.2622 33.5426 48.5328C34.1958 48.8033 34.7542 49.2615 35.147 49.8494C35.5398 50.4373 35.7495 51.1285 35.7495 51.8356C35.7495 52.7837 35.3728 53.693 34.7024 54.3635C34.0319 55.0339 33.1226 55.4105 32.1745 55.4105ZM32.1745 50.0481C31.821 50.0481 31.4754 50.1529 31.1814 50.3493C30.8875 50.5458 30.6584 50.8249 30.5231 51.1515C30.3878 51.4782 30.3524 51.8376 30.4214 52.1843C30.4904 52.531 30.6606 52.8495 30.9106 53.0995C31.1606 53.3495 31.4791 53.5197 31.8258 53.5887C32.1725 53.6577 32.5319 53.6223 32.8585 53.487C33.1852 53.3517 33.4643 53.1226 33.6607 52.8287C33.8572 52.5347 33.962 52.1891 33.962 51.8356C33.962 51.3615 33.7737 50.9069 33.4384 50.5716C33.1032 50.2364 32.6486 50.0481 32.1745 50.0481ZM42.8994 46.4732H28.5996V32.1733H42.8994V46.4732ZM30.387 44.6857H41.1119V33.9608H30.387V44.6857Z" fill="#FF4500"/>
<path d="M38.4307 42.0045H39.3244V42.8982H38.4307V42.0045ZM36.6432 42.0045H37.5369V42.8982H36.6432V42.0045ZM15.1935 47.3669H9.83105V41.1107H15.1935V47.3669ZM11.6185 45.5794H13.406V42.8982H11.6185V45.5794ZM38.4307 38.4295H33.0682V32.1733H38.4307V38.4295ZM34.8557 36.642H36.6432V33.9608H34.8557V36.642ZM53.2935 45.5794H47.3681C47.131 45.5794 46.9037 45.4853 46.7361 45.3176C46.5685 45.15 46.4743 44.9227 46.4743 44.6857V41.1107C46.4743 40.8737 46.5685 40.6464 46.7361 40.4788C46.9037 40.3111 47.131 40.217 47.3681 40.217H51.9529C52.1349 40.2168 52.3125 40.2722 52.4622 40.3756C52.6118 40.4791 52.7263 40.6258 52.7904 40.7961L54.131 44.3711C54.1819 44.5064 54.1992 44.652 54.1814 44.7955C54.1636 44.9389 54.1114 45.076 54.029 45.1948C53.9467 45.3136 53.8367 45.4106 53.7086 45.4776C53.5805 45.5446 53.4381 45.5796 53.2935 45.5794ZM48.2618 43.7919H52.0039L51.3336 42.0045H48.2618V43.7919Z" fill="#FF4500"/>
<path d="M54.5181 52.7297H51.8369V50.9422H52.7306V45.7424L50.3238 39.3236H45.5807V46.4735H27.7059V50.9422H29.4934V52.7297H25.9185V44.686H43.7932V37.5361H51.5625L54.5181 45.4171V52.7297Z" fill="#FF4500"/>
<path d="M34.8557 50.9419H46.4743V52.7294H34.8557V50.9419Z" fill="#FF4500"/>
<path d="M32.1745 52.7294C32.6681 52.7294 33.0682 52.3292 33.0682 51.8356C33.0682 51.342 32.6681 50.9419 32.1745 50.9419C31.6809 50.9419 31.2808 51.342 31.2808 51.8356C31.2808 52.3292 31.6809 52.7294 32.1745 52.7294Z" fill="#FF4500"/>
<path d="M49.1557 52.7294C49.6493 52.7294 50.0494 52.3292 50.0494 51.8356C50.0494 51.342 49.6493 50.9419 49.1557 50.9419C48.6621 50.9419 48.262 51.342 48.262 51.8356C48.262 52.3292 48.6621 52.7294 49.1557 52.7294Z" fill="#FF4500"/>
<path d="M50.0493 36.6422V13.0636L27.6987 1.88827L4.46863 13.0725V54.5169C4.46863 54.754 4.37447 54.9813 4.20686 55.1489C4.03925 55.3165 3.81192 55.4107 3.57489 55.4107C3.33786 55.4107 3.11053 55.3165 2.94292 55.1489C2.77531 54.9813 2.68115 54.754 2.68115 54.5169V12.5112C2.68131 12.3432 2.72885 12.1785 2.81833 12.0363C2.9078 11.894 3.03559 11.7798 3.18701 11.7069L27.3179 0.0882857C27.441 0.0291348 27.5759 -0.00105625 27.7124 2.82144e-05C27.8488 0.00111267 27.9833 0.0334438 28.1053 0.0945419L51.3425 11.7131C51.4908 11.7872 51.6156 11.9011 51.7029 12.0421C51.7901 12.183 51.8365 12.3455 51.8368 12.5112V36.6422H50.0493Z" fill="#FF4500"/>
</svg>
