<svg width="100" height="60" viewBox="0 0 100 60" fill="none" xmlns="http://www.w3.org/2000/svg">
<path fill-rule="evenodd" clip-rule="evenodd" d="M30.215 1C30.215 0.447715 30.6627 0 31.215 0H55.8879C56.4401 0 56.8879 0.447715 56.8879 1V17.8462H74.9533C75.5056 17.8462 75.9533 18.2939 75.9533 18.8462V49.6346H80C80.5523 49.6346 81 50.0823 81 50.6346C81 51.1869 80.5523 51.6346 80 51.6346H76.7597C77.647 52.5208 78.1963 53.7435 78.1963 55.0962C78.1963 57.8096 75.986 60 73.271 60C70.5561 60 68.3458 57.8096 68.3458 55.0962C68.3458 53.7435 68.8951 52.5208 69.7823 51.6346H29.1333C29.6645 52.4752 29.972 53.4705 29.972 54.5385C29.972 57.5599 27.5106 60 24.486 60C21.4613 60 19 57.5599 19 54.5385C19 51.517 21.4613 49.0769 24.486 49.0769C24.9133 49.0769 25.3295 49.1256 25.729 49.2178V16.0577C25.729 12.9191 23.1692 10.3654 20 10.3654C19.4477 10.3654 19 9.91767 19 9.36538C19 8.8131 19.4477 8.36538 20 8.36538C24.2634 8.36538 27.729 11.8042 27.729 16.0577V49.6346H30.215V1ZM73.9533 49.0769V19.8462H56.8879V49.0769H73.9533ZM54.8879 49.0769V26.5385H32.215V49.0769H54.8879ZM32.215 24.5385H54.8879V2H32.215V24.5385ZM34.7009 5.46154C34.7009 4.90925 35.1487 4.46154 35.7009 4.46154H51.4019C51.9542 4.46154 52.4019 4.90925 52.4019 5.46154V21.0769C52.4019 21.6292 51.9542 22.0769 51.4019 22.0769H35.7009C35.1487 22.0769 34.7009 21.6292 34.7009 21.0769V5.46154ZM38.1245 6.46154L50.4019 18.672V13.685L43.1388 6.46154H38.1245ZM45.975 6.46154L50.4019 10.8643V6.46154H45.975ZM48.9783 20.0769L36.7009 7.86646V12.8534L43.964 20.0769H48.9783ZM41.1278 20.0769L36.7009 15.6741V20.0769H41.1278ZM59.3738 23.3077C59.3738 22.7554 59.8215 22.3077 60.3738 22.3077H70.4673C71.0196 22.3077 71.4673 22.7554 71.4673 23.3077V45.6154C71.4673 46.1677 71.0196 46.6154 70.4673 46.6154H60.3738C59.8215 46.6154 59.3738 46.1677 59.3738 45.6154V23.3077ZM61.3738 24.3077V26.238L69.4673 34.2874V28.7427L65.0079 24.3077H61.3738ZM67.8441 24.3077L69.4673 25.922V24.3077H67.8441ZM69.4673 37.1081L61.3738 29.0588V35.1611L69.4673 43.2105V37.1081ZM68.0437 44.6154L61.3738 37.9818V42.9688L63.0294 44.6154H68.0437ZM34.7009 30C34.7009 29.4477 35.1487 29 35.7009 29H51.4019C51.9542 29 52.4019 29.4477 52.4019 30V45.6154C52.4019 46.1677 51.9542 46.6154 51.4019 46.6154H35.7009C35.1487 46.6154 34.7009 46.1677 34.7009 45.6154V30ZM38.1245 31L50.4019 43.2105V38.2235L43.1388 31H38.1245ZM45.975 31L50.4019 35.4028V31H45.975ZM48.9783 44.6154L36.7009 32.4049V37.3919L43.964 44.6154H48.9783ZM41.1278 44.6154L36.7009 40.2126V44.6154H41.1278ZM24.486 51.0769C22.5556 51.0769 21 52.6318 21 54.5385C21 56.4451 22.5556 58 24.486 58C26.4164 58 27.972 56.4451 27.972 54.5385C27.972 52.6318 26.4164 51.0769 24.486 51.0769ZM73.271 52.1923C71.6503 52.1923 70.3458 53.4975 70.3458 55.0962C70.3458 56.6948 71.6503 58 73.271 58C74.8918 58 76.1963 56.6948 76.1963 55.0962C76.1963 53.4975 74.8918 52.1923 73.271 52.1923Z" fill="#FF4500"/>
</svg>
