<svg width="108" height="69" viewBox="0 0 108 69" fill="none" xmlns="http://www.w3.org/2000/svg">
<path fill-rule="evenodd" clip-rule="evenodd" d="M33.9589 30.7448V31.2179H40.0061L40.4817 30.7448V8.91892L39.7618 8.5127L33.7147 12.1893L33.4858 12.5956V30.7448L33.9589 31.2179V30.7448H34.4346V12.8604L39.533 9.76224V30.2691H33.9589V30.7448H34.4346H33.9589Z" fill="white"/>
<path fill-rule="evenodd" clip-rule="evenodd" d="M35.3013 30.5158L38.7208 29.999V31.0634L35.3013 31.5802V30.5158Z" fill="white"/>
<path fill-rule="evenodd" clip-rule="evenodd" d="M35.3013 27.603L38.7208 26.8291V27.8935L35.3013 28.6674V27.603Z" fill="white"/>
<path fill-rule="evenodd" clip-rule="evenodd" d="M35.3013 24.6927L38.7208 23.6592V24.7236L35.3013 25.7572V24.6927Z" fill="white"/>
<path fill-rule="evenodd" clip-rule="evenodd" d="M35.3013 21.7799L38.7208 20.4893V21.5537L35.3013 22.8444V21.7799Z" fill="white"/>
<path fill-rule="evenodd" clip-rule="evenodd" d="M35.3013 18.8697L38.7208 17.3193V18.3838L35.3013 19.9341V18.8697Z" fill="white"/>
<path fill-rule="evenodd" clip-rule="evenodd" d="M35.3013 15.9559L38.7208 14.1484V15.2129L35.3013 17.0203V15.9559Z" fill="white"/>
<path fill-rule="evenodd" clip-rule="evenodd" d="M35.3013 13.0457L38.7208 10.9785V12.0429L35.3013 14.1101V13.0457Z" fill="white"/>
<path fill-rule="evenodd" clip-rule="evenodd" d="M43.8295 31.8557V31.3826H40.4819V9.48217L43.3564 9.98096V31.8557H43.8295V31.3826V31.8557H44.3025V9.57987L43.9092 9.11451L40.0886 8.45117L39.5332 8.91911V31.8557L40.0063 32.3313H43.8295L44.3025 31.8557H43.8295Z" fill="white"/>
<path fill-rule="evenodd" clip-rule="evenodd" d="M65.7015 30.3926V29.9195H60.1274V9.76224L65.2259 12.8604V30.3926H65.7015V29.9195V30.3926H66.1746V12.5956L65.9458 12.1893L59.9012 8.5127L59.1787 8.91892V30.3926L59.6544 30.8682H65.7015L66.1746 30.3926H65.7015Z" fill="white"/>
<path fill-rule="evenodd" clip-rule="evenodd" d="M64.3595 30.5158L60.9399 29.999V31.0634L64.3595 31.5802V30.5158Z" fill="white"/>
<path fill-rule="evenodd" clip-rule="evenodd" d="M64.3595 27.603L60.9399 26.8291V27.8935L64.3595 28.6674V27.603Z" fill="white"/>
<path fill-rule="evenodd" clip-rule="evenodd" d="M64.3595 24.6927L60.9399 23.6592V24.7236L64.3595 25.7572V24.6927Z" fill="white"/>
<path fill-rule="evenodd" clip-rule="evenodd" d="M64.3595 21.7799L60.9399 20.4893V21.5537L64.3595 22.8444V21.7799Z" fill="white"/>
<path fill-rule="evenodd" clip-rule="evenodd" d="M64.3595 18.8697L60.9399 17.3193V18.3838L64.3595 19.9341V18.8697Z" fill="white"/>
<path fill-rule="evenodd" clip-rule="evenodd" d="M64.3595 15.9559L60.9399 14.1484V15.2129L64.3595 17.0203V15.9559Z" fill="white"/>
<path fill-rule="evenodd" clip-rule="evenodd" d="M64.3595 13.0457L60.9399 10.9785V12.0429L64.3595 14.1101V13.0457Z" fill="white"/>
<path fill-rule="evenodd" clip-rule="evenodd" d="M55.831 34.5193V34.995H59.6542L60.1273 34.5193V8.91911L59.5719 8.45117L55.7513 9.11451L55.3579 9.57987V34.5193L55.831 34.995V34.5193H56.3066V9.98096L59.1785 9.48217V34.0462H55.831V34.5193H56.3066H55.831Z" fill="white"/>
<path fill-rule="evenodd" clip-rule="evenodd" d="M55.7847 38.471V37.9979H44.3485V3.89261L44.7316 3.68949L49.5806 1.08756L49.83 0.953867L55.3116 3.89261V38.471H55.7847V37.9979V38.471H56.2577V3.60979L56.0083 3.19328L50.0537 0H49.6064L49.1333 0.251964L44.2842 2.85389L43.6517 3.19328L43.4023 3.60979V38.471L43.8754 38.9467H55.7847L56.2577 38.471H55.7847Z" fill="white"/>
<path d="M49.5352 2.08837L43.8501 5.13672L44.2984 5.97284L49.9836 2.92449L49.5352 2.08837Z" fill="white"/>
<path d="M49.5762 4.54097L43.8481 7.37695L44.2691 8.22718L49.9972 5.3912L49.5762 4.54097Z" fill="white"/>
<path d="M49.6111 7.0097L43.8408 9.63086L44.2332 10.4946L50.0035 7.87349L49.6111 7.0097Z" fill="white"/>
<path d="M49.6459 9.48503L43.8325 11.8906L44.1953 12.7673L50.0086 10.3617L49.6459 9.48503Z" fill="white"/>
<path d="M49.6856 11.9439L43.8315 14.1338L44.1639 15.0224L50.018 12.8325L49.6856 11.9439Z" fill="white"/>
<path d="M49.7164 14.4208L43.8232 16.3926L44.1243 17.2923L50.0174 15.3205L49.7164 14.4208Z" fill="white"/>
<path d="M49.7525 16.8917L43.8203 18.6455L44.0893 19.5553L50.0215 17.8015L49.7525 16.8917Z" fill="white"/>
<path d="M49.7957 19.3532L43.8247 20.8896L44.0611 21.8084L50.0321 20.272L49.7957 19.3532Z" fill="white"/>
<path d="M49.8295 21.8251L43.8223 23.1426L44.0255 24.0693L50.0328 22.7518L49.8295 21.8251Z" fill="white"/>
<path d="M49.8656 24.2973L43.8223 25.3955L43.9919 26.3289L50.0352 25.2307L49.8656 24.2973Z" fill="white"/>
<path d="M49.8971 26.7751L43.8179 27.6533L43.9535 28.5923L50.0327 27.7141L49.8971 26.7751Z" fill="white"/>
<path d="M49.9319 29.2477L43.8198 29.9062L43.9215 30.8495L50.0335 30.1909L49.9319 29.2477Z" fill="white"/>
<path d="M49.9722 31.7159L43.8276 32.1553L43.8953 33.1016L50.0399 32.6622L49.9722 31.7159Z" fill="white"/>
<path d="M50.0084 34.1873L43.834 34.4072L43.8678 35.3554L50.0421 35.1354L50.0084 34.1873Z" fill="white"/>
<path d="M50.036 36.666H43.832V37.6147H50.036V36.666Z" fill="white"/>
<path d="M50.3062 0.0927734H49.3574V38.9469H50.3062V0.0927734Z" fill="white"/>
<path fill-rule="evenodd" clip-rule="evenodd" d="M8.92164 68.0667V52.4397L36.2985 32.4444L43.8446 37.9594L51.4087 32.4341L36.2985 21.3965L0 47.9069V68.0667H8.92164Z" fill="white"/>
<path fill-rule="evenodd" clip-rule="evenodd" d="M38.4865 68.0667V52.4397L65.8633 32.4444L80.9735 32.4341L65.8633 21.3965L29.5674 47.9069V68.0667H38.4865Z" fill="white"/>
<path fill-rule="evenodd" clip-rule="evenodd" d="M70.3038 38.592C70.2963 38.3517 70.3404 38.1127 70.4331 37.8909C70.5258 37.6692 70.6649 37.4699 70.8412 37.3064C71.126 37.0313 71.4905 36.8533 71.8825 36.7979C72.2746 36.7425 72.6741 36.8125 73.024 36.9979C73.2802 37.1352 73.495 37.3385 73.6462 37.5867L73.222 37.9004C73.1214 37.7375 72.9854 37.5995 72.8241 37.4965C72.6629 37.3936 72.4804 37.3283 72.2904 37.3055C72.1004 37.2828 71.9077 37.3032 71.7267 37.3652C71.5457 37.4273 71.381 37.5293 71.2448 37.6638C71.0132 37.9169 70.8847 38.2476 70.8847 38.5907C70.8847 38.9338 71.0132 39.2644 71.2448 39.5176C71.3806 39.6526 71.5451 39.7552 71.726 39.8178C71.907 39.8803 72.0998 39.901 72.29 39.8785C72.4801 39.856 72.6627 39.7908 72.8241 39.6878C72.9855 39.5848 73.1215 39.4466 73.222 39.2836L73.6462 39.5947C73.4956 39.8456 73.2797 40.0509 73.0214 40.1886C72.6706 40.3727 72.2707 40.4418 71.8785 40.3859C71.4863 40.3301 71.1215 40.1522 70.836 39.8775C70.6598 39.7141 70.5206 39.5148 70.4279 39.293C70.3352 39.0713 70.2912 38.8322 70.2987 38.592H70.3038ZM75.1503 40.3454V37.3424H73.9702V36.8282H76.8986V37.3424H75.7031V40.3454H75.1503ZM77.4257 40.3454V36.8385H78.7112C79.0263 36.8245 79.3347 36.9322 79.5725 37.1393C79.6761 37.2393 79.7585 37.3591 79.8148 37.4917C79.871 37.6242 79.9 37.7667 79.9 37.9106C79.9 38.0546 79.871 38.1971 79.8148 38.3296C79.7585 38.4621 79.6761 38.582 79.5725 38.682C79.3361 38.89 79.0285 38.9987 78.7138 38.9853H77.9965V40.3403L77.4257 40.3454ZM77.9888 38.4917H78.6958C78.8618 38.5016 79.0251 38.4462 79.1509 38.3374C79.2585 38.2234 79.3184 38.0725 79.3184 37.9158C79.3184 37.759 79.2585 37.6082 79.1509 37.4941C79.0891 37.4393 79.0171 37.3972 78.939 37.3703C78.8609 37.3434 78.7783 37.3322 78.6958 37.3373H77.9888V38.4917ZM80.3027 38.592C80.2964 38.3519 80.341 38.1132 80.4336 37.8916C80.5262 37.67 80.6648 37.4706 80.8401 37.3064C81.009 37.1338 81.2118 36.9979 81.4356 36.9073C81.6595 36.8166 81.8996 36.773 82.1411 36.7794C82.3832 36.7739 82.6238 36.8177 82.8484 36.9084C83.073 36.999 83.2767 37.1344 83.4472 37.3064C83.6182 37.474 83.7541 37.674 83.8468 37.8948C83.9396 38.1155 83.9873 38.3525 83.9873 38.592C83.9873 38.8314 83.9396 39.0684 83.8468 39.2892C83.7541 39.5099 83.6182 39.7099 83.4472 39.8775C83.2761 40.0487 83.0722 40.1836 82.8478 40.2741C82.6234 40.3647 82.383 40.409 82.1411 40.4046C81.8993 40.4103 81.6589 40.3666 81.4348 40.2759C81.2106 40.1853 81.0073 40.0497 80.8375 39.8775C80.6616 39.714 80.5228 39.5146 80.4306 39.2928C80.3383 39.071 80.2947 38.832 80.3027 38.592ZM83.406 38.592C83.4109 38.4216 83.3813 38.2521 83.319 38.0935C83.2567 37.9348 83.163 37.7905 83.0435 37.669C82.8032 37.4334 82.4801 37.3015 82.1436 37.3015C81.8071 37.3015 81.484 37.4334 81.2437 37.669C81.1247 37.7911 81.0314 37.9361 80.9696 38.0951C80.9077 38.2541 80.8785 38.424 80.8838 38.5945C80.8784 38.7657 80.9072 38.9361 80.9686 39.096C81.03 39.2558 81.1226 39.4017 81.2412 39.5253C81.4815 39.7608 81.8046 39.8928 82.1411 39.8928C82.4775 39.8928 82.8006 39.7608 83.0409 39.5253C83.1601 39.4025 83.2535 39.2571 83.3158 39.0977C83.378 38.9384 83.4078 38.7682 83.4035 38.5971L83.406 38.592ZM87.3963 36.7922H87.5943V40.3583H87.0312V37.8952L84.8561 40.4046H84.6607V36.8385H85.2238V39.2836L87.3963 36.7794V36.7922ZM85.3138 35.6275V35.5221H85.7714V35.6455C85.7637 35.7681 85.8002 35.8894 85.8743 35.9875C85.9128 36.0268 85.9588 36.0581 86.0096 36.0794C86.0603 36.1007 86.1149 36.1117 86.1699 36.1117C86.225 36.1117 86.2795 36.1007 86.3303 36.0794C86.3811 36.0581 86.4271 36.0268 86.4656 35.9875C86.5421 35.8895 86.5804 35.7671 86.5736 35.6429V35.5195H87.0364V35.6249C87.0417 35.743 87.0232 35.861 86.9822 35.9718C86.9411 36.0827 86.8782 36.1842 86.7973 36.2703C86.7151 36.3519 86.617 36.4157 86.509 36.4577C86.4011 36.4998 86.2857 36.5191 86.1699 36.5145C86.0554 36.519 85.9411 36.4995 85.8345 36.4575C85.7278 36.4154 85.631 36.3517 85.5503 36.2703C85.4703 36.1836 85.4082 36.082 85.3676 35.9712C85.327 35.8605 85.3087 35.7428 85.3138 35.6249V35.6275ZM92.6362 39.8544H93.0836V41.0833H92.5205V40.3352H90.1551V41.0833H89.5869V39.8312H89.862C90.1911 39.5356 90.3556 38.7025 90.3556 37.327V36.8282H92.631V39.8312L92.6362 39.8544ZM90.4842 39.8544H92.0731V37.3553H90.8827C90.8827 38.6074 90.7439 39.4379 90.4842 39.8544ZM93.3741 38.6048C93.3682 38.3648 93.4131 38.1263 93.5057 37.9047C93.5982 37.6832 93.7365 37.4837 93.9114 37.3193C94.0805 37.1468 94.2832 37.011 94.5071 36.9203C94.7309 36.8297 94.971 36.786 95.2124 36.7922C95.4545 36.7866 95.6953 36.8304 95.9198 36.921C96.1444 37.0116 96.3481 37.1472 96.5185 37.3193C96.6895 37.4869 96.8254 37.6869 96.9182 37.9076C97.0109 38.1284 97.0587 38.3654 97.0587 38.6048C97.0587 38.8443 97.0109 39.0813 96.9182 39.302C96.8254 39.5228 96.6895 39.7228 96.5185 39.8904C96.1682 40.2283 95.7004 40.4171 95.2137 40.4171C94.727 40.4171 94.2592 40.2283 93.9089 39.8904C93.733 39.7268 93.5942 39.5274 93.5019 39.3056C93.4097 39.0839 93.3661 38.8449 93.3741 38.6048ZM96.4774 38.6048C96.4814 38.4348 96.4517 38.2657 96.3899 38.1073C96.3281 37.9488 96.2355 37.8042 96.1174 37.6818C95.8771 37.4463 95.554 37.3143 95.2176 37.3143C94.8811 37.3143 94.558 37.4463 94.3177 37.6818C94.1989 37.8041 94.1061 37.9491 94.0447 38.1082C93.9833 38.2672 93.9546 38.437 93.9603 38.6074C93.9545 38.7783 93.983 38.9487 94.0439 39.1085C94.1048 39.2683 94.197 39.4144 94.3151 39.5381C94.5554 39.7737 94.8785 39.9056 95.215 39.9056C95.5515 39.9056 95.8746 39.7737 96.1149 39.5381C96.2336 39.4151 96.3265 39.2697 96.3883 39.1103C96.4501 38.9509 96.4795 38.7808 96.4748 38.61L96.4774 38.6048ZM100.874 36.8051H101.064V40.3712H100.501V38.1703L99.4958 39.4893H99.3056L98.2951 38.1652V40.3712H97.7372V36.7794H97.9352L99.4058 38.7411L100.879 36.7794L100.874 36.8051ZM73.2503 42.1323H73.4482V45.7113H72.8749V43.261L70.6998 45.7678H70.5044V42.1915H71.0751V44.634L73.2477 42.1323H73.2503ZM74.3301 45.6984V42.1915H74.8932V43.5876H76.6569V42.1915H77.22V45.7113H76.6569V44.0915H74.8932V45.7113L74.3301 45.6984ZM77.9116 42.1915H78.6084L79.9685 43.8318L78.4798 45.7113H77.7831L79.3026 43.8447L77.9116 42.2043V42.1915ZM79.9839 45.7113V42.1915H80.547V45.7113H79.9839ZM81.2335 43.8447L82.753 45.7113H82.0562L80.5624 43.8447L81.9277 42.2043H82.6193L81.2335 43.8447ZM86.0465 42.1452H86.2445V45.7113H85.6814V43.261L83.5063 45.7678H83.3109V42.1915H83.874V44.634L86.0465 42.1323V42.1452ZM87.1264 45.7113V42.1915H87.6894V43.5876H89.4532V42.1915H90.0163V45.7113H89.4532V44.0915H87.6894V45.7113H87.1264ZM93.6415 42.1452H93.8369V45.7113H93.2738V43.261L91.1013 45.7678H90.9033V42.1915H91.4664V44.634L93.6415 42.1323V42.1452ZM94.729 45.7113V42.1915H96.0146C96.3294 42.1763 96.6379 42.2831 96.8759 42.4897C96.9836 42.5866 97.0688 42.7058 97.1257 42.839C97.1825 42.9722 97.2096 43.1163 97.205 43.261C97.2086 43.4059 97.1808 43.5499 97.1235 43.683C97.0663 43.8161 96.9809 43.9353 96.8733 44.0324C96.6365 44.2397 96.3291 44.3483 96.0146 44.3358H95.2973V45.7113H94.729ZM95.2921 43.855H95.9992C96.1659 43.8647 96.33 43.8094 96.4568 43.7007C96.5126 43.6467 96.5562 43.5813 96.5846 43.509C96.613 43.4367 96.6255 43.3592 96.6214 43.2816C96.6256 43.2037 96.6131 43.1257 96.5847 43.053C96.5563 42.9803 96.5127 42.9145 96.4568 42.86C96.3309 42.7493 96.1664 42.693 95.9992 42.7031H95.2921V43.855ZM100.563 42.1452H100.761V45.7113H100.198V43.261L98.0252 45.7678H97.8143V42.1915H98.3774V44.634L100.55 42.1323L100.563 42.1452ZM101.643 45.7113V42.1915H102.185V43.5876H103.949V42.1915H104.512V45.7113H103.959V44.0915H102.185V45.7113H101.643ZM105.422 45.7113V42.1915H107.584V42.7057H105.98V45.7113H105.422Z" fill="white"/>
<path fill-rule="evenodd" clip-rule="evenodd" d="M55.7564 68.1211C53.9977 68.1468 52.2618 67.721 50.7146 66.8844C49.25 66.0939 48.0307 64.9164 47.1896 63.4803C46.3508 61.9888 45.9102 60.3064 45.9102 58.5952C45.9102 56.8841 46.3508 55.2017 47.1896 53.7102C48.0342 52.2724 49.2581 51.0947 50.7274 50.3061C52.2795 49.47 54.0194 49.0444 55.7821 49.0694C57.1438 49.0561 58.4952 49.3058 59.7622 49.8047C60.9459 50.2773 62.0025 51.0204 62.8475 51.9747L61.1197 53.6511C60.4514 52.9336 59.6387 52.3658 58.7351 51.9851C57.8315 51.6045 56.8575 51.4195 55.8773 51.4425C54.5675 51.4234 53.275 51.7441 52.1261 52.3732C51.0322 52.9721 50.1255 53.8619 49.5061 54.9443C48.8872 56.0644 48.5625 57.3232 48.5625 58.603C48.5625 59.8827 48.8872 61.1415 49.5061 62.2616C50.1255 63.344 51.0322 64.2338 52.1261 64.8327C53.2779 65.4644 54.574 65.786 55.8876 65.766C56.8699 65.7854 57.8452 65.596 58.7489 65.2104C59.6527 64.8248 60.4642 64.2518 61.13 63.5291L62.8577 65.2055C62.0082 66.1597 60.9484 66.9035 59.7622 67.378C58.4891 67.8846 57.1291 68.137 55.759 68.1211H55.7564ZM85.4729 65.5937V69.0004H82.9996V67.9103H67.6759V69.0004H65.1949L65.2077 65.5937H66.1127C67.2851 65.5252 68.1105 64.5987 68.5887 62.8144C69.0669 61.0301 69.3591 58.5164 69.4654 55.2734L69.6505 49.2879H82.7399V65.5937H85.4729ZM71.8 55.5125C71.7544 57.6977 71.5447 59.8764 71.1726 62.0302C70.8469 63.7443 70.3199 64.9321 69.5914 65.5937H80.0994V51.6019H71.9285L71.7974 55.5125H71.8ZM90.7925 49.2879H93.4253V63.6526L104.44 49.2879H106.887V67.9103H104.278V53.5688L93.2376 67.9103H90.7899L90.7925 49.2879Z" fill="white"/>
</svg>
