<svg width="108" height="69" viewBox="0 0 108 69" fill="none" xmlns="http://www.w3.org/2000/svg">
<path fill-rule="evenodd" clip-rule="evenodd" d="M33.9589 30.745V31.2181H40.0061L40.4817 30.745V8.91917L39.7618 8.51294L33.7147 12.1896L33.4858 12.5958V30.745L33.9589 31.2181V30.745H34.4346V12.8606L39.533 9.76248V30.2694H33.9589V30.745H34.4346H33.9589Z" fill="#6691B9"/>
<path fill-rule="evenodd" clip-rule="evenodd" d="M35.3013 30.516L38.7208 29.9993V31.0637L35.3013 31.5805V30.516Z" fill="#6691B9"/>
<path fill-rule="evenodd" clip-rule="evenodd" d="M35.3013 27.6032L38.7208 26.8293V27.8938L35.3013 28.6677V27.6032Z" fill="#6691B9"/>
<path fill-rule="evenodd" clip-rule="evenodd" d="M35.3013 24.6927L38.7208 23.6592V24.7236L35.3013 25.7572V24.6927Z" fill="#6691B9"/>
<path fill-rule="evenodd" clip-rule="evenodd" d="M35.3013 21.7797L38.7208 20.489V21.5534L35.3013 22.8441V21.7797Z" fill="#6691B9"/>
<path fill-rule="evenodd" clip-rule="evenodd" d="M35.3013 18.8692L38.7208 17.3188V18.3833L35.3013 19.9336V18.8692Z" fill="#6691B9"/>
<path fill-rule="evenodd" clip-rule="evenodd" d="M35.3013 15.9561L38.7208 14.1487V15.2131L35.3013 17.0206V15.9561Z" fill="#6691B9"/>
<path fill-rule="evenodd" clip-rule="evenodd" d="M35.3013 13.0457L38.7208 10.9785V12.0429L35.3013 14.1101V13.0457Z" fill="#6691B9"/>
<path fill-rule="evenodd" clip-rule="evenodd" d="M43.8295 31.8557V31.3826H40.4819V9.48217L43.3564 9.98096V31.8557H43.8295V31.3826V31.8557H44.3025V9.57987L43.9092 9.11451L40.0886 8.45117L39.5332 8.91911V31.8557L40.0063 32.3313H43.8295L44.3025 31.8557H43.8295Z" fill="#6691B9"/>
<path fill-rule="evenodd" clip-rule="evenodd" d="M65.7015 30.3928V29.9197H60.1274V9.76248L65.2259 12.8606V30.3928H65.7015V29.9197V30.3928H66.1746V12.5958L65.9458 12.1896L59.9012 8.51294L59.1787 8.91917V30.3928L59.6544 30.8685H65.7015L66.1746 30.3928H65.7015Z" fill="#6691B9"/>
<path fill-rule="evenodd" clip-rule="evenodd" d="M64.3595 30.516L60.9399 29.9993V31.0637L64.3595 31.5805V30.516Z" fill="#6691B9"/>
<path fill-rule="evenodd" clip-rule="evenodd" d="M64.3595 27.6032L60.9399 26.8293V27.8938L64.3595 28.6677V27.6032Z" fill="#6691B9"/>
<path fill-rule="evenodd" clip-rule="evenodd" d="M64.3595 24.6927L60.9399 23.6592V24.7236L64.3595 25.7572V24.6927Z" fill="#6691B9"/>
<path fill-rule="evenodd" clip-rule="evenodd" d="M64.3595 21.7797L60.9399 20.489V21.5534L64.3595 22.8441V21.7797Z" fill="#6691B9"/>
<path fill-rule="evenodd" clip-rule="evenodd" d="M64.3595 18.8692L60.9399 17.3188V18.3833L64.3595 19.9336V18.8692Z" fill="#6691B9"/>
<path fill-rule="evenodd" clip-rule="evenodd" d="M64.3595 15.9561L60.9399 14.1487V15.2131L64.3595 17.0206V15.9561Z" fill="#6691B9"/>
<path fill-rule="evenodd" clip-rule="evenodd" d="M64.3595 13.0457L60.9399 10.9785V12.0429L64.3595 14.1101V13.0457Z" fill="#6691B9"/>
<path fill-rule="evenodd" clip-rule="evenodd" d="M55.831 34.5193V34.995H59.6542L60.1273 34.5193V8.91911L59.5719 8.45117L55.7513 9.11451L55.3579 9.57987V34.5193L55.831 34.995V34.5193H56.3066V9.98096L59.1785 9.48217V34.0462H55.831V34.5193H56.3066H55.831Z" fill="#6691B9"/>
<path fill-rule="evenodd" clip-rule="evenodd" d="M55.7847 38.471V37.9979H44.3485V3.89261L44.7316 3.68949L49.5806 1.08756L49.83 0.953867L55.3116 3.89261V38.471H55.7847V37.9979V38.471H56.2577V3.60979L56.0083 3.19328L50.0537 0H49.6064L49.1333 0.251964L44.2842 2.85389L43.6517 3.19328L43.4023 3.60979V38.471L43.8754 38.9467H55.7847L56.2577 38.471H55.7847Z" fill="#6691B9"/>
<path d="M49.5352 2.08789L43.8501 5.13623L44.2984 5.97235L49.9836 2.924L49.5352 2.08789Z" fill="#6691B9"/>
<path d="M49.5762 4.54122L43.8481 7.3772L44.2691 8.22743L49.9972 5.39145L49.5762 4.54122Z" fill="#6691B9"/>
<path d="M49.6111 7.00995L43.8408 9.6311L44.2332 10.4949L50.0035 7.87373L49.6111 7.00995Z" fill="#6691B9"/>
<path d="M49.6459 9.48479L43.8325 11.8904L44.1953 12.767L50.0086 10.3614L49.6459 9.48479Z" fill="#6691B9"/>
<path d="M49.6856 11.9439L43.8315 14.1338L44.1639 15.0224L50.018 12.8325L49.6856 11.9439Z" fill="#6691B9"/>
<path d="M49.7164 14.4208L43.8232 16.3926L44.1243 17.2923L50.0174 15.3205L49.7164 14.4208Z" fill="#6691B9"/>
<path d="M49.7525 16.8914L43.8203 18.6453L44.0893 19.5551L50.0215 17.8012L49.7525 16.8914Z" fill="#6691B9"/>
<path d="M49.7957 19.3532L43.8247 20.8896L44.0611 21.8084L50.0321 20.272L49.7957 19.3532Z" fill="#6691B9"/>
<path d="M49.8295 21.8251L43.8223 23.1426L44.0255 24.0693L50.0328 22.7518L49.8295 21.8251Z" fill="#6691B9"/>
<path d="M49.8656 24.2977L43.8223 25.396L43.9919 26.3294L50.0352 25.2312L49.8656 24.2977Z" fill="#6691B9"/>
<path d="M49.8971 26.7751L43.8179 27.6533L43.9535 28.5923L50.0327 27.7141L49.8971 26.7751Z" fill="#6691B9"/>
<path d="M49.9319 29.2477L43.8198 29.9062L43.9215 30.8495L50.0335 30.1909L49.9319 29.2477Z" fill="#6691B9"/>
<path d="M49.9722 31.7159L43.8276 32.1553L43.8953 33.1016L50.0399 32.6622L49.9722 31.7159Z" fill="#6691B9"/>
<path d="M50.0084 34.1871L43.834 34.407L43.8678 35.3551L50.0421 35.1352L50.0084 34.1871Z" fill="#6691B9"/>
<path d="M50.036 36.6663H43.832V37.615H50.036V36.6663Z" fill="#6691B9"/>
<path d="M50.3062 0.0925293H49.3574V38.9466H50.3062V0.0925293Z" fill="#6691B9"/>
<path fill-rule="evenodd" clip-rule="evenodd" d="M8.92164 68.0667V52.4397L36.2985 32.4444L43.8446 37.9594L51.4087 32.4341L36.2985 21.3965L0 47.9069V68.0667H8.92164Z" fill="#004594"/>
<path fill-rule="evenodd" clip-rule="evenodd" d="M38.4865 68.0667V52.4397L65.8633 32.4444L80.9735 32.4341L65.8633 21.3965L29.5674 47.9069V68.0667H38.4865Z" fill="url(#paint0_linear_26_5188)"/>
<path fill-rule="evenodd" clip-rule="evenodd" d="M70.3038 38.5917C70.2963 38.3515 70.3404 38.1124 70.4331 37.8907C70.5258 37.6689 70.6649 37.4696 70.8412 37.3062C71.126 37.0311 71.4905 36.8531 71.8825 36.7977C72.2746 36.7423 72.6741 36.8123 73.024 36.9977C73.2802 37.1349 73.495 37.3382 73.6462 37.5864L73.222 37.9001C73.1214 37.7373 72.9854 37.5993 72.8241 37.4963C72.6629 37.3933 72.4804 37.328 72.2904 37.3053C72.1004 37.2826 71.9077 37.303 71.7267 37.365C71.5457 37.427 71.381 37.5291 71.2448 37.6636C71.0132 37.9167 70.8847 38.2473 70.8847 38.5904C70.8847 38.9335 71.0132 39.2642 71.2448 39.5173C71.3806 39.6524 71.5451 39.755 71.726 39.8175C71.907 39.88 72.0998 39.9008 72.29 39.8783C72.4801 39.8558 72.6627 39.7906 72.8241 39.6876C72.9855 39.5845 73.1215 39.4464 73.222 39.2833L73.6462 39.5944C73.4956 39.8454 73.2797 40.0507 73.0214 40.1884C72.6706 40.3725 72.2707 40.4415 71.8785 40.3857C71.4863 40.3298 71.1215 40.152 70.836 39.8773C70.6598 39.7138 70.5206 39.5145 70.4279 39.2928C70.3352 39.071 70.2912 38.832 70.2987 38.5917H70.3038ZM75.1503 40.3452V37.3422H73.9702V36.828H76.8986V37.3422H75.7031V40.3452H75.1503ZM77.4257 40.3452V36.8383H78.7112C79.0263 36.8243 79.3347 36.932 79.5725 37.1391C79.6761 37.2391 79.7585 37.3589 79.8148 37.4914C79.871 37.6239 79.9 37.7664 79.9 37.9104C79.9 38.0544 79.871 38.1969 79.8148 38.3294C79.7585 38.4619 79.6761 38.5817 79.5725 38.6817C79.3361 38.8898 79.0285 38.9985 78.7138 38.9851H77.9965V40.3401L77.4257 40.3452ZM77.9888 38.4915H78.6958C78.8618 38.5014 79.0251 38.446 79.1509 38.3372C79.2585 38.2232 79.3184 38.0723 79.3184 37.9155C79.3184 37.7588 79.2585 37.6079 79.1509 37.4939C79.0891 37.4391 79.0171 37.397 78.939 37.3701C78.8609 37.3432 78.7783 37.3319 78.6958 37.337H77.9888V38.4915ZM80.3027 38.5917C80.2964 38.3516 80.341 38.1129 80.4336 37.8914C80.5262 37.6698 80.6648 37.4703 80.8401 37.3062C81.009 37.1336 81.2118 36.9977 81.4356 36.907C81.6595 36.8163 81.8996 36.7728 82.1411 36.7791C82.3832 36.7736 82.6238 36.8175 82.8484 36.9081C83.073 36.9987 83.2767 37.1342 83.4472 37.3062C83.6182 37.4738 83.7541 37.6738 83.8468 37.8945C83.9396 38.1153 83.9873 38.3523 83.9873 38.5917C83.9873 38.8312 83.9396 39.0682 83.8468 39.2889C83.7541 39.5097 83.6182 39.7097 83.4472 39.8773C83.2761 40.0484 83.0722 40.1833 82.8478 40.2739C82.6234 40.3644 82.383 40.4088 82.1411 40.4043C81.8993 40.4101 81.6589 40.3663 81.4348 40.2757C81.2106 40.185 81.0073 40.0494 80.8375 39.8773C80.6616 39.7137 80.5228 39.5143 80.4306 39.2926C80.3383 39.0708 80.2947 38.8318 80.3027 38.5917ZM83.406 38.5917C83.4109 38.4214 83.3813 38.2518 83.319 38.0932C83.2567 37.9346 83.163 37.7902 83.0435 37.6687C82.8032 37.4332 82.4801 37.3012 82.1436 37.3012C81.8071 37.3012 81.484 37.4332 81.2437 37.6687C81.1247 37.7909 81.0314 37.9358 80.9696 38.0949C80.9077 38.2539 80.8785 38.4238 80.8838 38.5943C80.8784 38.7654 80.9072 38.9359 80.9686 39.0957C81.03 39.2555 81.1226 39.4015 81.2412 39.525C81.4815 39.7606 81.8046 39.8925 82.1411 39.8925C82.4775 39.8925 82.8006 39.7606 83.0409 39.525C83.1601 39.4022 83.2535 39.2569 83.3158 39.0975C83.378 38.9381 83.4078 38.7679 83.4035 38.5969L83.406 38.5917ZM87.3963 36.792H87.5943V40.3581H87.0312V37.895L84.8561 40.4043H84.6607V36.8383H85.2238V39.2833L87.3963 36.7791V36.792ZM85.3138 35.6273V35.5219H85.7714V35.6453C85.7637 35.7679 85.8002 35.8892 85.8743 35.9872C85.9128 36.0266 85.9588 36.0578 86.0096 36.0791C86.0603 36.1005 86.1149 36.1115 86.1699 36.1115C86.225 36.1115 86.2795 36.1005 86.3303 36.0791C86.3811 36.0578 86.4271 36.0266 86.4656 35.9872C86.5421 35.8892 86.5804 35.7668 86.5736 35.6427V35.5193H87.0364V35.6247C87.0417 35.7428 87.0232 35.8607 86.9822 35.9716C86.9411 36.0824 86.8782 36.1839 86.7973 36.27C86.7151 36.3517 86.617 36.4155 86.509 36.4575C86.4011 36.4995 86.2857 36.5189 86.1699 36.5143C86.0554 36.5187 85.9411 36.4993 85.8345 36.4572C85.7278 36.4152 85.631 36.3514 85.5503 36.27C85.4703 36.1834 85.4082 36.0817 85.3676 35.971C85.327 35.8602 85.3087 35.7426 85.3138 35.6247V35.6273ZM92.6362 39.8541H93.0836V41.0831H92.5205V40.3349H90.1551V41.0831H89.5869V39.831H89.862C90.1911 39.5353 90.3556 38.7023 90.3556 37.3268V36.828H92.631V39.831L92.6362 39.8541ZM90.4842 39.8541H92.0731V37.355H90.8827C90.8827 38.6072 90.7439 39.4376 90.4842 39.8541ZM93.3741 38.6046C93.3682 38.3646 93.4131 38.126 93.5057 37.9045C93.5982 37.683 93.7365 37.4835 93.9114 37.319C94.0805 37.1466 94.2832 37.0108 94.5071 36.9201C94.7309 36.8294 94.971 36.7858 95.2124 36.792C95.4545 36.7863 95.6953 36.8301 95.9198 36.9208C96.1444 37.0114 96.3481 37.1469 96.5185 37.319C96.6895 37.4866 96.8254 37.6866 96.9182 37.9074C97.0109 38.1281 97.0587 38.3651 97.0587 38.6046C97.0587 38.844 97.0109 39.0811 96.9182 39.3018C96.8254 39.5225 96.6895 39.7225 96.5185 39.8901C96.1682 40.228 95.7004 40.4169 95.2137 40.4169C94.727 40.4169 94.2592 40.228 93.9089 39.8901C93.733 39.7266 93.5942 39.5272 93.5019 39.3054C93.4097 39.0836 93.3661 38.8446 93.3741 38.6046ZM96.4774 38.6046C96.4814 38.4346 96.4517 38.2654 96.3899 38.107C96.3281 37.9486 96.2355 37.804 96.1174 37.6816C95.8771 37.446 95.554 37.3141 95.2176 37.3141C94.8811 37.3141 94.558 37.446 94.3177 37.6816C94.1989 37.8039 94.1061 37.9489 94.0447 38.1079C93.9833 38.267 93.9546 38.4368 93.9603 38.6072C93.9545 38.7781 93.983 38.9485 94.0439 39.1083C94.1048 39.2681 94.197 39.4141 94.3151 39.5379C94.5554 39.7734 94.8785 39.9054 95.215 39.9054C95.5515 39.9054 95.8746 39.7734 96.1149 39.5379C96.2336 39.4149 96.3265 39.2694 96.3883 39.1101C96.4501 38.9507 96.4795 38.7806 96.4748 38.6097L96.4774 38.6046ZM100.874 36.8048H101.064V40.3709H100.501V38.1701L99.4958 39.489H99.3056L98.2951 38.1649V40.3709H97.7372V36.7791H97.9352L99.4058 38.7409L100.879 36.7791L100.874 36.8048ZM73.2503 42.1321H73.4482V45.711H72.8749V43.2608L70.6998 45.7676H70.5044V42.1912H71.0751V44.6338L73.2477 42.1321H73.2503ZM74.3301 45.6982V42.1912H74.8932V43.5873H76.6569V42.1912H77.22V45.711H76.6569V44.0913H74.8932V45.711L74.3301 45.6982ZM77.9116 42.1912H78.6084L79.9685 43.8316L78.4798 45.711H77.7831L79.3026 43.8444L77.9116 42.2041V42.1912ZM79.9839 45.711V42.1912H80.547V45.711H79.9839ZM81.2335 43.8444L82.753 45.711H82.0562L80.5624 43.8444L81.9277 42.2041H82.6193L81.2335 43.8444ZM86.0465 42.145H86.2445V45.711H85.6814V43.2608L83.5063 45.7676H83.3109V42.1912H83.874V44.6338L86.0465 42.1321V42.145ZM87.1264 45.711V42.1912H87.6894V43.5873H89.4532V42.1912H90.0163V45.711H89.4532V44.0913H87.6894V45.711H87.1264ZM93.6415 42.145H93.8369V45.711H93.2738V43.2608L91.1013 45.7676H90.9033V42.1912H91.4664V44.6338L93.6415 42.1321V42.145ZM94.729 45.711V42.1912H96.0146C96.3294 42.176 96.6379 42.2829 96.8759 42.4895C96.9836 42.5863 97.0688 42.7056 97.1257 42.8388C97.1825 42.972 97.2096 43.116 97.205 43.2608C97.2086 43.4057 97.1808 43.5496 97.1235 43.6827C97.0663 43.8159 96.9809 43.9351 96.8733 44.0321C96.6365 44.2395 96.3291 44.3481 96.0146 44.3355H95.2973V45.711H94.729ZM95.2921 43.8547H95.9992C96.1659 43.8645 96.33 43.8092 96.4568 43.7005C96.5126 43.6465 96.5562 43.5811 96.5846 43.5088C96.613 43.4365 96.6255 43.3589 96.6214 43.2814C96.6256 43.2034 96.6131 43.1255 96.5847 43.0528C96.5563 42.98 96.5127 42.9142 96.4568 42.8597C96.3309 42.7491 96.1664 42.6927 95.9992 42.7029H95.2921V43.8547ZM100.563 42.145H100.761V45.711H100.198V43.2608L98.0252 45.7676H97.8143V42.1912H98.3774V44.6338L100.55 42.1321L100.563 42.145ZM101.643 45.711V42.1912H102.185V43.5873H103.949V42.1912H104.512V45.711H103.959V44.0913H102.185V45.711H101.643ZM105.422 45.711V42.1912H107.584V42.7055H105.98V45.711H105.422Z" fill="#4F7293"/>
<path fill-rule="evenodd" clip-rule="evenodd" d="M55.7564 68.1206C53.9977 68.1463 52.2618 67.7205 50.7146 66.8839C49.25 66.0934 48.0307 64.9159 47.1896 63.4798C46.3508 61.9883 45.9102 60.3059 45.9102 58.5948C45.9102 56.8836 46.3508 55.2012 47.1896 53.7097C48.0342 52.2719 49.2581 51.0942 50.7274 50.3056C52.2795 49.4696 54.0194 49.0439 55.7821 49.0689C57.1438 49.0556 58.4952 49.3053 59.7622 49.8042C60.9459 50.2768 62.0025 51.02 62.8475 51.9742L61.1197 53.6506C60.4514 52.9331 59.6387 52.3653 58.7351 51.9846C57.8315 51.604 56.8575 51.419 55.8773 51.442C54.5675 51.4229 53.275 51.7436 52.1261 52.3728C51.0322 52.9716 50.1255 53.8615 49.5061 54.9438C48.8872 56.0639 48.5625 57.3227 48.5625 58.6025C48.5625 59.8822 48.8872 61.141 49.5061 62.2611C50.1255 63.3435 51.0322 64.2333 52.1261 64.8322C53.2779 65.4639 54.574 65.7855 55.8876 65.7655C56.8699 65.7849 57.8452 65.5955 58.7489 65.2099C59.6527 64.8243 60.4642 64.2513 61.13 63.5287L62.8577 65.205C62.0082 66.1592 60.9484 66.903 59.7622 67.3776C58.4891 67.8841 57.1291 68.1365 55.759 68.1206H55.7564ZM85.4729 65.5932V68.9999H82.9996V67.9098H67.6759V68.9999H65.1949L65.2077 65.5932H66.1127C67.2851 65.5247 68.1105 64.5982 68.5887 62.8139C69.0669 61.0296 69.3591 58.5159 69.4654 55.2729L69.6505 49.2875H82.7399V65.5932H85.4729ZM71.8 55.512C71.7544 57.6972 71.5447 59.8759 71.1726 62.0297C70.8469 63.7438 70.3199 64.9316 69.5914 65.5932H80.0994V51.6014H71.9285L71.7974 55.512H71.8ZM90.7925 49.2875H93.4253V63.6521L104.44 49.2875H106.887V67.9098H104.278V53.5683L93.2376 67.9098H90.7899L90.7925 49.2875Z" fill="#004594"/>
<defs>
<linearGradient id="paint0_linear_26_5188" x1="55.2704" y1="21.3965" x2="55.2704" y2="68.0667" gradientUnits="userSpaceOnUse">
<stop stop-color="#5A88B2"/>
<stop offset="1" stop-color="#A1B5CF"/>
</linearGradient>
</defs>
</svg>
