<svg width="16" height="16" viewBox="0 0 16 16" fill="none" xmlns="http://www.w3.org/2000/svg">
<path d="M0.781382 15.9998C0.626847 15.9998 0.475774 15.954 0.347274 15.8682C0.218774 15.7824 0.118618 15.6603 0.0594765 15.5176C0.000334655 15.3748 -0.0151367 15.2177 0.0150195 15.0661C0.0451757 14.9146 0.119605 14.7753 0.228892 14.6661L14.6661 0.228849C14.8127 0.0823194 15.0114 0 15.2186 0C15.4258 0 15.6246 0.0823194 15.7711 0.228849C15.9176 0.375378 16 0.574115 16 0.781339C16 0.988563 15.9176 1.1873 15.7711 1.33383L1.33387 15.7711C1.26138 15.8437 1.17526 15.9013 1.08045 15.9406C0.985634 15.9798 0.884 15.9999 0.781382 15.9998Z" fill="black"/>
<path d="M15.2188 15.9998C15.1162 15.9999 15.0146 15.9798 14.9198 15.9406C14.8249 15.9013 14.7388 15.8437 14.6663 15.7711L0.229093 1.33383C0.0825635 1.1873 0.000244141 0.988563 0.000244141 0.781339C0.000244141 0.574115 0.0825635 0.375378 0.229093 0.228849C0.375622 0.0823194 0.574359 0 0.781583 0C0.988807 0 1.18754 0.0823194 1.33407 0.228849L15.7713 14.6661C15.8806 14.7753 15.955 14.9146 15.9852 15.0661C16.0153 15.2177 15.9999 15.3748 15.9407 15.5176C15.8816 15.6603 15.7814 15.7824 15.6529 15.8682C15.5244 15.954 15.3734 15.9998 15.2188 15.9998Z" fill="black"/>
</svg>
