<?xml version="1.0" encoding="utf-8"?><svg viewBox="0 0 19 18" xmlns="http://www.w3.org/2000/svg" xmlns:xlink="http://www.w3.org/1999/xlink"><style>:root>svg{display:none}:root>svg:target{display:block}</style><svg viewBox="0 0 12 13" id="arrow-btn-black" xmlns="http://www.w3.org/2000/svg"><path d="M11.53 7.03a.75.75 0 000-1.06L6.757 1.197a.75.75 0 10-1.06 1.06L9.939 6.5l-4.242 4.243a.75.75 0 001.06 1.06L11.53 7.03zM0 7.25h11v-1.5H0v1.5z"/></svg><svg viewBox="0 0 18 18" id="download" xmlns="http://www.w3.org/2000/svg"><path d="M.563 11.137c.31 0 .562.252.562.563v2.813c0 .62.504 1.124 1.125 1.124h13.5c.621 0 1.125-.503 1.125-1.125V11.7a.563.563 0 011.125 0v2.813a2.25 2.25 0 01-2.25 2.25H2.25A2.25 2.25 0 010 14.512V11.7c0-.31.252-.563.563-.563z"/><path d="M8.602 13.335c.22.22.576.22.796 0l3.375-3.375a.562.562 0 10-.796-.795L9.562 11.58V1.686a.563.563 0 00-1.124 0v9.893L6.022 9.165a.563.563 0 00-.796.795l3.375 3.375z"/></svg><svg viewBox="0 0 19 18" id="file" xmlns="http://www.w3.org/2000/svg"><path d="M5.563 3.375a2.813 2.813 0 015.625 0V13.5a1.687 1.687 0 11-3.376 0V5.625a.563.563 0 011.125 0V13.5a.562.562 0 101.126 0V3.375a1.688 1.688 0 00-3.376 0V13.5a2.813 2.813 0 005.625 0V5.625a.562.562 0 111.126 0V13.5a3.938 3.938 0 01-7.876 0V3.375z"/></svg></svg>