<svg width="24" height="24" viewBox="0 0 24 24" fill="none" xmlns="http://www.w3.org/2000/svg">
<path d="M4.5 21.75C3.25736 21.75 2.25 20.7426 2.25 19.5V4.5C2.25 3.25736 3.25736 2.25 4.5 2.25H16.5C16.9142 2.25 17.25 2.58579 17.25 3C17.25 3.41421 16.9142 3.75 16.5 3.75H4.5C4.08579 3.75 3.75 4.08579 3.75 4.5V19.5C3.75 19.9142 4.08579 20.25 4.5 20.25H19.5C19.9142 20.25 20.25 19.9142 20.25 19.5V12C20.25 11.5858 20.5858 11.25 21 11.25C21.4142 11.25 21.75 11.5858 21.75 12V19.5C21.75 20.7426 20.7426 21.75 19.5 21.75H4.5Z" fill="#FF4500"/>
<path d="M12.5303 15.5303L23.0303 5.03033C23.3232 4.73744 23.3232 4.26256 23.0303 3.96967C22.7374 3.67678 22.2626 3.67678 21.9697 3.96967L12 13.9393L8.03033 9.96967C7.73744 9.67678 7.26256 9.67678 6.96967 9.96967C6.67678 10.2626 6.67678 10.7374 6.96967 11.0303L11.4697 15.5303C11.7626 15.8232 12.2374 15.8232 12.5303 15.5303Z" fill="#FF4500"/>
</svg>
