<svg width="37" height="40" viewBox="0 0 37 40" fill="none" xmlns="http://www.w3.org/2000/svg">
<path fill-rule="evenodd" clip-rule="evenodd" d="M8.91364 1.93443C8.91364 0.868983 9.782 0 10.8597 0H35.0539C36.1316 0 37 0.868985 37 1.93443V32.9945C37 34.06 36.1316 34.929 35.0539 34.929H21.7195V36.4809C21.7195 37.6745 20.7173 38.5561 19.5643 39.0998C18.3609 39.6673 16.7458 40 14.9982 40C13.2506 40 11.6355 39.6673 10.4322 39.0998C9.27914 38.5561 8.27695 37.6745 8.27695 36.4809V34.8387C7.77742 34.8978 7.25634 34.929 6.72127 34.929C4.97368 34.929 3.35857 34.5963 2.15523 34.0288C1.0022 33.485 0 32.6035 0 31.4098V12.3934C0 11.1998 1.0022 10.3182 2.15523 9.77447C3.35857 9.20698 4.97368 8.87432 6.72127 8.87432C7.48759 8.87432 8.22583 8.93822 8.91364 9.05682V1.93443ZM10.2591 9.37774C11.057 9.62696 11.7608 9.96564 12.3027 10.3846C12.952 10.8867 13.4425 11.5678 13.4425 12.3934V25.4454C13.9421 25.3863 14.4631 25.3552 14.9982 25.3552C16.7458 25.3552 18.3609 25.6879 19.5643 26.2553C20.7173 26.7991 21.7195 27.6807 21.7195 28.8743V33.5956H35.0539C35.3827 33.5956 35.6545 33.3294 35.6545 32.9945V1.93443C35.6545 1.59954 35.3827 1.33333 35.0539 1.33333H10.8597C10.5309 1.33333 10.2591 1.59954 10.2591 1.93443V9.37774ZM20.374 34.8351V36.4809C20.374 36.8626 20.0222 37.4073 18.9861 37.8959C18.0003 38.3608 16.5911 38.6667 14.9982 38.6667C13.4053 38.6667 11.9961 38.3608 11.0103 37.8959C9.97422 37.4073 9.6224 36.8626 9.6224 36.4809V34.8351C9.87481 35.009 10.1489 35.163 10.4322 35.2966C11.6355 35.8641 13.2506 36.1967 14.9982 36.1967C16.7458 36.1967 18.3609 35.8641 19.5643 35.2966C19.8475 35.163 20.1216 35.009 20.374 34.8351ZM9.6224 32.6776C9.6224 33.0593 9.97422 33.604 11.0103 34.0926C11.9961 34.5575 13.4053 34.8634 14.9982 34.8634C16.5911 34.8634 18.0003 34.5575 18.9861 34.0926C20.0222 33.604 20.374 33.0593 20.374 32.6776V31.0318C20.1216 31.2058 19.8475 31.3597 19.5643 31.4933C18.3609 32.0608 16.7458 32.3934 14.9982 32.3934C13.2506 32.3934 11.6355 32.0608 10.4322 31.4933C10.1489 31.3597 9.87481 31.2058 9.6224 31.0318V32.6776ZM8.27695 29.6915V28.8743C8.27695 28.1702 8.63177 27.5728 9.14257 27.0981C8.38809 27.2439 7.57031 27.3224 6.72127 27.3224C4.97368 27.3224 3.35857 26.9897 2.15523 26.4223C1.872 26.2887 1.59787 26.1347 1.34545 25.9608V27.6066C1.34545 27.9883 1.69727 28.5329 2.73338 29.0216C3.71918 29.4865 5.12833 29.7924 6.72127 29.7924C7.26248 29.7924 7.78439 29.757 8.27695 29.6915ZM1.34545 29.7641V31.4098C1.34545 31.7916 1.69727 32.3362 2.73338 32.8249C3.71918 33.2897 5.12833 33.5956 6.72127 33.5956C7.26248 33.5956 7.78439 33.5603 8.27695 33.4948V31.0355C7.77742 31.0945 7.25634 31.1257 6.72127 31.1257C4.97368 31.1257 3.35857 30.793 2.15523 30.2255C1.872 30.092 1.59787 29.938 1.34545 29.7641ZM1.34545 23.8033C1.34545 24.185 1.69727 24.7297 2.73338 25.2183C3.71918 25.6832 5.12833 25.9891 6.72127 25.9891C8.3142 25.9891 9.72336 25.6832 10.7092 25.2183C11.7453 24.7297 12.0971 24.185 12.0971 23.8033V22.1575C11.8447 22.3314 11.5705 22.4854 11.2873 22.619C10.084 23.1865 8.46885 23.5191 6.72127 23.5191C4.97368 23.5191 3.35857 23.1865 2.15523 22.619C1.872 22.4854 1.59787 22.3314 1.34545 22.1575V23.8033ZM1.34545 20C1.34545 20.3817 1.69727 20.9264 2.73338 21.415C3.71918 21.8799 5.12833 22.1858 6.72127 22.1858C8.3142 22.1858 9.72336 21.8799 10.7092 21.415C11.7453 20.9264 12.0971 20.3817 12.0971 20V18.3542C11.8447 18.5282 11.5705 18.6821 11.2873 18.8157C10.084 19.3832 8.46885 19.7158 6.72127 19.7158C4.97368 19.7158 3.35857 19.3832 2.15523 18.8157C1.872 18.6821 1.59787 18.5282 1.34545 18.3542V20ZM1.34545 16.1967C1.34545 16.5784 1.69727 17.1231 2.73338 17.6117C3.71918 18.0766 5.12833 18.3825 6.72127 18.3825C8.3142 18.3825 9.72336 18.0766 10.7092 17.6117C11.7453 17.1231 12.0971 16.5784 12.0971 16.1967V14.5509C11.8447 14.7249 11.5705 14.8788 11.2873 15.0124C10.084 15.5799 8.46885 15.9126 6.72127 15.9126C4.97368 15.9126 3.35857 15.5799 2.15523 15.0124C1.872 14.8788 1.59787 14.7249 1.34545 14.5509V16.1967ZM1.34545 12.3934C1.34545 12.7752 1.69727 13.3198 2.73338 13.8085C3.71918 14.2734 5.12833 14.5792 6.72127 14.5792C8.3142 14.5792 9.72336 14.2734 10.7092 13.8085C11.7453 13.3198 12.0971 12.7752 12.0971 12.3934C12.0971 12.1325 11.9436 11.7981 11.475 11.4358C11.0109 11.077 10.3085 10.7524 9.41926 10.5264C8.62499 10.3246 7.7057 10.2077 6.72127 10.2077C5.12833 10.2077 3.71918 10.5135 2.73338 10.9784C1.69727 11.4671 1.34545 12.0117 1.34545 12.3934ZM9.6224 28.8743C9.6224 29.256 9.97422 29.8007 11.0103 30.2893C11.9961 30.7542 13.4053 31.0601 14.9982 31.0601C16.5911 31.0601 18.0003 30.7542 18.9861 30.2893C20.0222 29.8007 20.374 29.256 20.374 28.8743C20.374 28.4926 20.0222 27.9479 18.9861 27.4593C18.0003 26.9944 16.5911 26.6885 14.9982 26.6885C14.2514 26.6885 13.5414 26.7558 12.8945 26.8768C11.837 27.0745 10.9779 27.4099 10.4018 27.8026C9.81379 28.2034 9.6224 28.5856 9.6224 28.8743ZM17.5624 10.953C17.1934 11.4583 16.9443 12.1895 16.9443 13.0273C16.9443 13.8651 17.1934 14.5964 17.5624 15.1016C17.9321 15.6077 18.3847 15.847 18.8183 15.847C19.252 15.847 19.7046 15.6077 20.0742 15.1016C20.4433 14.5964 20.6924 13.8651 20.6924 13.0273C20.6924 12.1895 20.4433 11.4583 20.0742 10.953C19.7046 10.447 19.252 10.2077 18.8183 10.2077C18.3847 10.2077 17.9321 10.447 17.5624 10.953ZM16.4726 10.1712C17.0247 9.41543 17.8454 8.87432 18.8183 8.87432C19.7912 8.87432 20.612 9.41543 21.1641 10.1712C21.7168 10.9277 22.0378 11.9397 22.0378 13.0273C22.0378 14.115 21.7168 15.1269 21.1641 15.8835C20.612 16.6392 19.7912 17.1803 18.8183 17.1803C17.8454 17.1803 17.0247 16.6392 16.4726 15.8835C15.9199 15.1269 15.5989 14.115 15.5989 13.0273C15.5989 11.9397 15.9199 10.9277 16.4726 10.1712ZM28.0646 10.2293C28.3875 10.4113 28.5004 10.8183 28.3167 11.1383L20.6765 24.4498C20.4928 24.7699 20.0821 24.8817 19.7591 24.6997C19.4362 24.5177 19.3233 24.1107 19.507 23.7906L27.1472 10.4791C27.3309 10.1591 27.7416 10.0472 28.0646 10.2293ZM27.1128 19.8274C26.7437 20.3326 26.4946 21.0638 26.4946 21.9016C26.4946 22.7395 26.7437 23.4707 27.1128 23.9759C27.4824 24.482 27.935 24.7213 28.3687 24.7213C28.8023 24.7213 29.2549 24.482 29.6246 23.9759C29.9936 23.4707 30.2427 22.7395 30.2427 21.9016C30.2427 21.0638 29.9936 20.3326 29.6246 19.8274C29.2549 19.3213 28.8023 19.082 28.3687 19.082C27.935 19.082 27.4824 19.3213 27.1128 19.8274ZM26.0229 19.0455C26.575 18.2897 27.3958 17.7486 28.3687 17.7486C29.3416 17.7486 30.1623 18.2897 30.7144 19.0455C31.2671 19.8021 31.5882 20.814 31.5882 21.9016C31.5882 22.9893 31.2671 24.0012 30.7144 24.7578C30.1623 25.5135 29.3416 26.0546 28.3687 26.0546C27.3958 26.0546 26.575 25.5135 26.0229 24.7578C25.4703 24.0012 25.1492 22.9893 25.1492 21.9016C25.1492 20.814 25.4703 19.8021 26.0229 19.0455Z" fill="#FF4500"/>
</svg>
