<svg width="69" height="40" viewBox="0 0 69 40" fill="none" xmlns="http://www.w3.org/2000/svg">
<path fill-rule="evenodd" clip-rule="evenodd" d="M20.9706 10.0002C20.9706 9.63197 21.2735 9.3335 21.6471 9.3335H50.7353C51.1089 9.3335 51.4118 9.63197 51.4118 10.0002V15.6668H61.2206C61.443 15.6668 61.6512 15.7746 61.7775 15.955L68.5422 25.6217C68.6201 25.733 68.6618 25.865 68.6618 26.0002V34.0002C68.6618 34.3684 68.3589 34.6668 67.9853 34.6668H64.9412C64.9412 37.6123 62.5182 40.0002 59.5294 40.0002C56.5406 40.0002 54.1176 37.6123 54.1176 34.6668H36.5294C36.5294 37.6123 34.1065 40.0002 31.1176 40.0002C28.1288 40.0002 25.7059 37.6123 25.7059 34.6668H21.6471C21.2735 34.6668 20.9706 34.3684 20.9706 34.0002V10.0002ZM25.8765 33.3335C26.4775 31.033 28.5957 29.3335 31.1176 29.3335C33.6396 29.3335 35.7578 31.033 36.3588 33.3335H50.0588V10.6668H22.3235V33.3335H25.8765ZM51.4118 33.3335H54.2883C54.8893 31.033 57.0075 29.3335 59.5294 29.3335C62.0514 29.3335 64.1695 31.033 64.7705 33.3335H67.3088V26.6668H60.2059C58.3379 26.6668 56.8235 25.1744 56.8235 23.3335V23.0002C56.8235 21.1592 58.3379 19.6668 60.2059 19.6668H62.7315L60.8654 17.0002H51.4118V33.3335ZM63.6646 21.0002H60.2059C59.0851 21.0002 58.1765 21.8956 58.1765 23.0002V23.3335C58.1765 24.4381 59.0851 25.3335 60.2059 25.3335H66.697L63.6646 21.0002ZM26.5805 15.8621C26.8447 15.6017 27.273 15.6017 27.5372 15.8621L33.2872 21.5288C33.5513 21.7891 33.5513 22.2112 33.2872 22.4716L27.5372 28.1382C27.273 28.3986 26.8447 28.3986 26.5805 28.1382C26.3163 27.8779 26.3163 27.4558 26.5805 27.1954L31.8521 22.0002L26.5805 16.8049C26.3163 16.5446 26.3163 16.1224 26.5805 15.8621ZM33.3452 15.8621C33.6094 15.6017 34.0377 15.6017 34.3019 15.8621L40.0519 21.5288C40.316 21.7891 40.316 22.2112 40.0519 22.4716L34.3019 28.1382C34.0377 28.3986 33.6094 28.3986 33.3452 28.1382C33.081 27.8779 33.081 27.4558 33.3452 27.1954L38.6169 22.0002L33.3452 16.8049C33.081 16.5446 33.081 16.1224 33.3452 15.8621ZM40.1099 15.8621C40.3741 15.6017 40.8024 15.6017 41.0666 15.8621L46.8166 21.5288C47.0807 21.7891 47.0807 22.2112 46.8166 22.4716L41.0666 28.1382C40.8024 28.3986 40.3741 28.3986 40.1099 28.1382C39.8457 27.8779 39.8457 27.4558 40.1099 27.1954L45.3816 22.0002L40.1099 16.8049C39.8457 16.5446 39.8457 16.1224 40.1099 15.8621ZM5.07353 17.0002C5.07353 16.632 5.3764 16.3335 5.75 16.3335H17.9265C18.3001 16.3335 18.6029 16.632 18.6029 17.0002C18.6029 17.3684 18.3001 17.6668 17.9265 17.6668H5.75C5.3764 17.6668 5.07353 17.3684 5.07353 17.0002ZM0 22.0002C0 21.632 0.302866 21.3335 0.676471 21.3335H17.9265C18.3001 21.3335 18.6029 21.632 18.6029 22.0002C18.6029 22.3684 18.3001 22.6668 17.9265 22.6668H0.676471C0.302866 22.6668 0 22.3684 0 22.0002ZM5.07353 27.0002C5.07353 26.632 5.3764 26.3335 5.75 26.3335H17.9265C18.3001 26.3335 18.6029 26.632 18.6029 27.0002C18.6029 27.3684 18.3001 27.6668 17.9265 27.6668H5.75C5.3764 27.6668 5.07353 27.3684 5.07353 27.0002ZM31.1176 30.6668C29.0735 30.6668 27.3812 32.1567 27.1 34.0946C27.0729 34.2811 27.0588 34.4722 27.0588 34.6668C27.0588 36.876 28.876 38.6668 31.1176 38.6668C33.3593 38.6668 35.1765 36.876 35.1765 34.6668C35.1765 34.4722 35.1624 34.2811 35.1353 34.0946C34.8541 32.1567 33.1618 30.6668 31.1176 30.6668ZM59.5294 30.6668C57.4852 30.6668 55.793 32.1567 55.5117 34.0946C55.4846 34.2811 55.4706 34.4722 55.4706 34.6668C55.4706 36.876 57.2878 38.6668 59.5294 38.6668C61.771 38.6668 63.5882 36.876 63.5882 34.6668C63.5882 34.4722 63.5742 34.2811 63.5471 34.0946C63.2658 32.1567 61.5736 30.6668 59.5294 30.6668ZM31.1176 33.3335C30.3704 33.3335 29.7647 33.9304 29.7647 34.6668C29.7647 35.4032 30.3704 36.0002 31.1176 36.0002C31.8649 36.0002 32.4706 35.4032 32.4706 34.6668C32.4706 33.9304 31.8649 33.3335 31.1176 33.3335ZM28.4118 34.6668C28.4118 33.1941 29.6232 32.0002 31.1176 32.0002C32.6121 32.0002 33.8235 33.1941 33.8235 34.6668C33.8235 36.1396 32.6121 37.3335 31.1176 37.3335C29.6232 37.3335 28.4118 36.1396 28.4118 34.6668ZM59.5294 33.3335C58.7822 33.3335 58.1765 33.9304 58.1765 34.6668C58.1765 35.4032 58.7822 36.0002 59.5294 36.0002C60.2766 36.0002 60.8824 35.4032 60.8824 34.6668C60.8824 33.9304 60.2766 33.3335 59.5294 33.3335ZM56.8235 34.6668C56.8235 33.1941 58.035 32.0002 59.5294 32.0002C61.0238 32.0002 62.2353 33.1941 62.2353 34.6668C62.2353 36.1396 61.0238 37.3335 59.5294 37.3335C58.035 37.3335 56.8235 36.1396 56.8235 34.6668Z" fill="#FF4500"/>
</svg>
