<svg width="58" height="58" viewBox="0 0 58 58" fill="none" xmlns="http://www.w3.org/2000/svg">
<path d="M55.2926 25.7437H52.4326C51.927 25.7437 51.442 25.9446 51.0844 26.3021C50.7269 26.6597 50.526 27.1447 50.526 27.6503H39.4865C39.3408 27.6524 39.1967 27.6198 39.0661 27.555L36.4626 26.2461C39.0052 24.5733 40.9477 22.133 42.0077 19.28C43.0676 16.4271 43.1897 13.3104 42.3561 10.3833C41.5226 7.45615 39.7768 4.87135 37.3729 3.00485C34.9689 1.13835 32.0322 0.0875242 28.9898 0.00523087C25.9474 -0.0770625 22.9581 0.81347 20.4568 2.54728C17.9555 4.2811 16.0726 6.76775 15.082 9.64552C14.0914 12.5233 14.0448 15.642 14.949 18.5481C15.8531 21.4542 17.6609 23.996 20.1093 25.8037L16.6164 27.555C16.4891 27.6183 16.3487 27.651 16.2065 27.6503H6.67325C6.67325 27.1447 6.47237 26.6597 6.1148 26.3021C5.75724 25.9446 5.27228 25.7437 4.7666 25.7437H1.90664C1.40097 25.7437 0.916007 25.9446 0.558442 26.3021C0.200878 26.6597 0 27.1447 0 27.6503L0 41.9501C0 42.4558 0.200878 42.9408 0.558442 43.2983C0.916007 43.6559 1.40097 43.8568 1.90664 43.8568H4.7666C5.26477 43.8569 5.7432 43.6621 6.09953 43.3139C6.45586 42.9658 6.66179 42.492 6.67325 41.994C8.5445 42.191 10.3779 42.6548 12.1177 43.3715C11.733 44.064 11.6059 44.8703 11.7589 45.6475C11.9119 46.4248 12.3352 47.1227 12.9537 47.6176C13.5408 48.0799 14.2667 48.3304 15.0138 48.3288C15.158 48.3223 15.3016 48.3067 15.4438 48.2821V48.3412C15.5381 49.153 15.9272 49.902 16.5371 50.4461C17.1471 50.9901 17.9355 51.2914 18.7528 51.2927C18.897 51.2863 19.0406 51.2704 19.1827 51.245C19.2593 52.0672 19.6413 52.8307 20.2534 53.3849C20.8655 53.9391 21.6631 54.2437 22.4888 54.2384C22.6356 54.2317 22.7818 54.2155 22.9264 54.1898C22.9917 54.8513 23.2531 55.4782 23.6771 55.9901C24.1011 56.502 24.6682 56.8757 25.306 57.0631C25.9437 57.2505 26.6228 57.2432 27.2564 57.0421C27.8899 56.841 28.4489 56.4553 28.8618 55.9344L29.7541 54.8047C30.7665 55.6761 31.369 56.2347 31.3747 56.2347C31.8419 56.7016 32.4372 57.0193 33.0851 57.1476C33.733 57.2759 34.4044 57.209 35.0143 56.9554C35.6242 56.7018 36.1451 56.273 36.511 55.7231C36.8769 55.1732 37.0714 54.5271 37.0699 53.8666V53.8333C37.0835 53.8323 37.0972 53.8323 37.1109 53.8333C37.9929 53.8275 38.8369 53.4737 39.4594 52.8489C40.082 52.224 40.4326 51.3787 40.4351 50.4967V50.4576C41.3282 50.4548 42.1859 50.1079 42.8298 49.489C43.1412 49.1797 43.3881 48.8118 43.5563 48.4064C43.7245 48.0011 43.8107 47.5665 43.8099 47.1276V47.0904C44.255 47.0967 44.6969 47.0132 45.109 46.8448C45.5211 46.6764 45.895 46.4266 46.2084 46.1104C46.5351 45.7799 46.7912 45.3865 46.9613 44.9541C47.1314 44.5216 47.2119 44.0591 47.198 43.5946C47.1824 43.2437 47.109 42.8977 46.9806 42.5707C48.1363 42.241 49.3257 42.044 50.526 41.9835C50.5348 42.4834 50.7395 42.9598 51.0961 43.3102C51.4527 43.6606 51.9327 43.8569 52.4326 43.8568H55.2926C55.7983 43.8568 56.2832 43.6559 56.6408 43.2983C56.9984 42.9408 57.1992 42.4558 57.1992 41.9501V27.6503C57.1992 27.1447 56.9984 26.6597 56.6408 26.3021C56.2832 25.9446 55.7983 25.7437 55.2926 25.7437ZM4.7666 41.9501H1.90664V27.6503H4.7666V41.9501ZM39.4865 29.557H50.526V40.0702C48.8876 40.1393 47.2675 40.4433 45.7155 40.973C41.9204 37.7317 32.1336 30.5008 31.6874 30.1719C31.3305 29.9201 30.8977 29.799 30.4619 29.8288C30.0261 29.8587 29.6139 30.0377 29.2946 30.3358L24.4422 34.845C24.2461 35.0441 23.9971 35.1827 23.7246 35.2444C23.4522 35.3062 23.1677 35.2885 22.905 35.1935C22.6423 35.0984 22.4123 34.93 22.2424 34.7083C22.0725 34.4865 21.9698 34.2206 21.9464 33.9422C21.9233 33.7429 21.9413 33.5409 21.9996 33.3489C22.0578 33.1568 22.1549 32.9788 22.2848 32.8259L28.0219 26.7838C28.5213 26.275 29.1675 25.9354 29.8697 25.8128C30.572 25.6902 31.295 25.7907 31.9372 26.1002L38.1996 29.2462C38.5976 29.4511 39.0389 29.5576 39.4865 29.557ZM16.2065 14.3038C16.2046 12.1106 16.7847 9.95622 17.8877 8.06055C18.9907 6.16489 20.577 4.59588 22.4846 3.51372C24.3923 2.43156 26.5529 1.87502 28.7459 1.90091C30.939 1.92681 33.0859 2.53422 34.9674 3.66112C36.849 4.78802 38.3978 6.39405 39.4557 8.31523C40.5136 10.2364 41.0427 12.4039 40.9891 14.5965C40.9354 16.789 40.3009 18.928 39.1502 20.7952C37.9996 22.6623 36.3741 24.1906 34.4397 25.2241L32.8028 24.4014C32.0742 24.0289 31.2674 23.8354 30.4491 23.837C29.5341 23.8396 28.6356 24.0801 27.8417 24.5349C27.0896 24.1167 26.2478 23.8858 25.3876 23.8618C24.5274 23.8377 23.674 24.0212 22.8997 24.3966L22.0598 24.819C20.2713 23.7078 18.7953 22.1593 17.7711 20.3196C16.747 18.4798 16.2085 16.4094 16.2065 14.3038ZM14.132 46.1228C13.8345 45.8854 13.6427 45.54 13.5984 45.1619C13.5541 44.7838 13.6609 44.4035 13.8956 44.1037L16.0577 41.3705C16.2995 41.0803 16.6433 40.8939 17.0184 40.8495C17.3935 40.8052 17.7713 40.9063 18.074 41.1322C18.3699 41.3687 18.5607 41.7123 18.6048 42.0886C18.6488 42.4648 18.5427 42.8433 18.3095 43.1418L16.1397 45.8835C15.9037 46.1793 15.5607 46.3702 15.185 46.415C14.8092 46.4598 14.431 46.3548 14.132 46.1228ZM17.869 49.0781C17.5759 48.8398 17.3876 48.4964 17.3441 48.1211C17.3006 47.7459 17.4055 47.3685 17.6364 47.0695L20.4011 43.5784C20.6414 43.2974 20.9813 43.1205 21.3493 43.0847C21.7174 43.0489 22.085 43.1571 22.375 43.3865C22.6649 43.6159 22.8548 43.9488 22.9046 44.3152C22.9545 44.6816 22.8605 45.053 22.6423 45.3516L19.8777 48.8417C19.7613 48.9891 19.6171 49.1122 19.4532 49.2039C19.2892 49.2955 19.1089 49.354 18.9223 49.376C18.7358 49.3979 18.5468 49.3829 18.3661 49.3318C18.1853 49.2807 18.0165 49.1945 17.869 49.0781ZM21.607 52.0334C21.3113 51.7971 21.1205 51.4538 21.0761 51.0778C21.0317 50.7018 21.1371 50.3235 21.3696 50.0248L23.5547 47.2678C23.7961 46.984 24.1365 46.8028 24.5067 46.7608C24.8769 46.7189 25.2492 46.8193 25.548 47.0418C25.6957 47.1582 25.819 47.3026 25.9109 47.4666C26.0027 47.6307 26.0613 47.8113 26.0833 47.9981C26.1052 48.1848 26.0901 48.3741 26.0389 48.555C25.9876 48.7359 25.9011 48.9049 25.7845 49.0524L23.6166 51.7998C23.378 52.0928 23.0345 52.281 22.6592 52.3246C22.284 52.3683 21.9065 52.2638 21.607 52.0334ZM28.9371 52.7617L27.3679 54.7504C27.2516 54.8982 27.1072 55.0216 26.9432 55.1136C26.7791 55.2056 26.5985 55.2644 26.4117 55.2866C26.225 55.3088 26.0356 55.294 25.8545 55.2431C25.6735 55.1921 25.5042 55.106 25.3564 54.9897C25.2086 54.8733 25.0852 54.729 24.9932 54.5649C24.9012 54.4008 24.8424 54.2202 24.8202 54.0335C24.798 53.8467 24.8128 53.6573 24.8637 53.4763C24.9147 53.2952 25.0008 53.1259 25.1171 52.9782L26.693 50.9905C26.9328 50.7006 27.2749 50.5141 27.6485 50.4695C28.0221 50.425 28.3985 50.5258 28.6997 50.7512C28.8475 50.8675 28.9709 51.0118 29.0628 51.1759C29.1547 51.3399 29.2134 51.5205 29.2355 51.7072C29.2575 51.894 29.2425 52.0833 29.1913 52.2642C29.1401 52.4452 29.0537 52.6142 28.9371 52.7617ZM44.8576 44.7653C44.5886 45.0337 44.2241 45.1844 43.8442 45.1844C43.4642 45.1844 43.0998 45.0337 42.8308 44.7653C42.6974 44.632 42.5275 44.5412 42.3425 44.5044C42.1575 44.4677 41.9658 44.4867 41.7916 44.5589C41.6174 44.6312 41.4685 44.7535 41.3638 44.9104C41.2591 45.0672 41.2033 45.2516 41.2035 45.4402C41.2031 45.5653 41.2275 45.6893 41.2755 45.8048C41.3234 45.9204 41.3939 46.0252 41.4828 46.1133C41.7511 46.3826 41.9014 46.7474 41.9007 47.1275C41.8999 47.5075 41.7483 47.8718 41.479 48.14C41.2097 48.4083 40.8449 48.5586 40.4648 48.5579C40.0847 48.5572 39.7205 48.4055 39.4522 48.1362C39.3637 48.0458 39.2581 47.9739 39.1416 47.9247C39.025 47.8755 38.8999 47.85 38.7733 47.8497C38.6468 47.8494 38.5215 47.8743 38.4047 47.9228C38.2879 47.9714 38.1819 48.0428 38.093 48.1328C38.0041 48.2227 37.9339 48.3295 37.8866 48.4468C37.8394 48.5642 37.8159 48.6898 37.8177 48.8163C37.8194 48.9428 37.8463 49.0676 37.8969 49.1836C37.9474 49.2996 38.0205 49.4044 38.1119 49.4919C38.3484 49.7655 38.4724 50.1187 38.4589 50.4802C38.4454 50.8417 38.2954 51.1846 38.0392 51.4399C37.7829 51.6953 37.4394 51.8439 37.0779 51.8561C36.7163 51.8682 36.3636 51.7428 36.0908 51.5053C36.0029 51.4142 35.8977 51.3416 35.7814 51.2916C35.6651 51.2417 35.54 51.2154 35.4134 51.2143C35.2868 51.2132 35.1613 51.2373 35.0441 51.2852C34.927 51.3332 34.8205 51.4039 34.731 51.4935C34.6415 51.583 34.5707 51.6894 34.5228 51.8066C34.4748 51.9237 34.4507 52.0493 34.4518 52.1758C34.4529 52.3024 34.4792 52.4275 34.5292 52.5438C34.5791 52.6601 34.6518 52.7653 34.7428 52.8533C34.8743 52.988 34.9779 53.1474 35.0478 53.3222C35.1176 53.497 35.1524 53.6839 35.15 53.8721C35.1477 54.0604 35.1083 54.2463 35.0341 54.4193C34.9599 54.5923 34.8523 54.7491 34.7176 54.8805C34.5828 55.012 34.4235 55.1156 34.2486 55.1854C34.0738 55.2553 33.887 55.2901 33.6987 55.2877C33.5105 55.2854 33.3245 55.246 33.1515 55.1718C32.9785 55.0976 32.8218 54.99 32.6903 54.8552C32.0876 54.3042 31.4751 53.7639 30.8533 53.2346C31.1563 52.5594 31.2263 51.8026 31.0521 51.0833C30.878 50.364 30.4697 49.723 29.8914 49.2612C29.3421 48.826 28.6679 48.5782 27.9676 48.5538C28.0337 47.9886 27.9546 47.4158 27.7378 46.8897C27.5209 46.3636 27.1735 45.9015 26.7283 45.547C26.1822 45.1189 25.515 44.8741 24.8216 44.8473C24.8524 44.5941 24.8546 44.3383 24.8283 44.0846C24.7265 43.2057 24.2797 42.4031 23.5862 41.8536C22.8927 41.304 22.0093 41.0524 21.1304 41.1541C20.8734 41.1867 20.621 41.2488 20.3782 41.3391C20.1924 40.6682 19.8001 40.0729 19.2571 39.6374C18.5605 39.0915 17.6765 38.8428 16.7974 38.9453C15.9184 39.0477 15.1153 39.4931 14.5629 40.1846L13.2902 41.7957C11.1873 40.8832 8.95472 40.3045 6.67325 40.0807V29.557H16.2065C16.6498 29.5592 17.0874 29.4559 17.483 29.2557L23.7653 26.0955C24.5301 25.7215 25.4087 25.6533 26.222 25.9048L20.8834 31.5294C20.2944 32.1827 19.9828 33.0397 20.0148 33.9188C20.0468 34.7979 20.4198 35.63 21.0549 36.2388C21.6899 36.8475 22.537 37.1851 23.4167 37.1799C24.2964 37.1748 25.1395 36.8273 25.7673 36.2111L30.5682 31.7143C30.6779 31.7954 41.5562 39.8357 44.8985 42.7862C45.1536 43.0551 45.2923 43.4138 45.2844 43.7844C45.2766 44.1549 45.1238 44.5074 44.8576 44.7653ZM55.2926 41.9501H52.4326V27.6503H55.2926V41.9501Z" fill="#FF4500"/>
<path d="M23.8329 20.0235C24.0857 20.0235 24.3282 19.923 24.5069 19.7442L34.0401 10.211C34.2138 10.0312 34.3099 9.7904 34.3077 9.54045C34.3055 9.29049 34.2053 9.05138 34.0285 8.87463C33.8518 8.69788 33.6127 8.59762 33.3627 8.59544C33.1127 8.59327 32.8719 8.68936 32.6921 8.86302L23.1589 18.3962C23.0256 18.5295 22.9349 18.6994 22.8981 18.8843C22.8613 19.0692 22.8802 19.2608 22.9524 19.435C23.0245 19.6092 23.1466 19.7581 23.3034 19.8628C23.4601 19.9676 23.6444 20.0235 23.8329 20.0235ZM27.6462 10.4903C27.6462 9.92469 27.4785 9.37174 27.1642 8.90143C26.8499 8.43111 26.4033 8.06454 25.8807 7.84807C25.3581 7.63161 24.7831 7.57497 24.2283 7.68533C23.6735 7.79568 23.1639 8.06806 22.7639 8.46804C22.364 8.86801 22.0916 9.37761 21.9812 9.93238C21.8709 10.4872 21.9275 11.0622 22.144 11.5848C22.3604 12.1074 22.727 12.5541 23.1973 12.8683C23.6676 13.1826 24.2206 13.3503 24.7862 13.3503C25.5447 13.3503 26.2722 13.049 26.8085 12.5126C27.3449 11.9763 27.6462 11.2488 27.6462 10.4903ZM23.8329 10.4903C23.8329 10.3018 23.8888 10.1175 23.9936 9.9607C24.0983 9.80393 24.2472 9.68174 24.4214 9.60958C24.5956 9.53743 24.7873 9.51855 24.9722 9.55533C25.1571 9.59212 25.327 9.68291 25.4603 9.81624C25.5937 9.94956 25.6845 10.1194 25.7212 10.3044C25.758 10.4893 25.7391 10.681 25.667 10.8552C25.5948 11.0294 25.4726 11.1782 25.3159 11.283C25.1591 11.3877 24.9748 11.4437 24.7862 11.4437C24.5334 11.4437 24.2909 11.3432 24.1121 11.1644C23.9334 10.9857 23.8329 10.7432 23.8329 10.4903ZM29.5528 18.1169C29.5528 18.6826 29.7206 19.2355 30.0348 19.7058C30.3491 20.1761 30.7958 20.5427 31.3183 20.7592C31.8409 20.9756 32.416 21.0323 32.9708 20.9219C33.5255 20.8116 34.0351 20.5392 34.4351 20.1392C34.8351 19.7392 35.1075 19.2296 35.2178 18.6749C35.3282 18.1201 35.2715 17.545 35.0551 17.0224C34.8386 16.4999 34.472 16.0532 34.0017 15.7389C33.5314 15.4247 32.9784 15.2569 32.4128 15.2569C31.6543 15.2569 30.9268 15.5583 30.3905 16.0946C29.8542 16.631 29.5528 17.3584 29.5528 18.1169ZM33.3661 18.1169C33.3661 18.3055 33.3102 18.4898 33.2055 18.6465C33.1007 18.8033 32.9518 18.9255 32.7776 18.9977C32.6034 19.0698 32.4117 19.0887 32.2268 19.0519C32.0419 19.0151 31.872 18.9243 31.7387 18.791C31.6054 18.6577 31.5146 18.4878 31.4778 18.3029C31.441 18.118 31.4599 17.9263 31.532 17.7521C31.6042 17.5779 31.7264 17.429 31.8832 17.3242C32.0399 17.2195 32.2243 17.1636 32.4128 17.1636C32.6656 17.1636 32.9081 17.264 33.0869 17.4428C33.2657 17.6216 33.3661 17.8641 33.3661 18.1169Z" fill="#FF4500"/>
</svg>
