<svg width="41" height="40" viewBox="0 0 41 40" fill="none" xmlns="http://www.w3.org/2000/svg">
<path fill-rule="evenodd" clip-rule="evenodd" d="M20.1656 0.0836755C20.3739 -0.0278918 20.6261 -0.0278918 20.8344 0.0836755L40.6395 10.6919C40.8618 10.8109 41 11.0387 41 11.2861V39.322C41 39.6965 40.6889 40 40.3051 40H36.8101C36.4263 40 36.1152 39.6965 36.1152 39.322V21.0568H4.88485V39.322C4.88485 39.6965 4.57372 40 4.18993 40H0.694915C0.311124 40 0 39.6965 0 39.322V11.2861C0 11.0387 0.138166 10.8109 0.360481 10.6919L20.1656 0.0836755ZM4.88485 19.7009H36.1152V18.4048H4.88485V19.7009ZM4.88485 17.0489H36.1152V15.3739H4.88485V17.0489ZM1.38983 11.6873V38.6441H3.49501V14.6959C3.49501 14.3215 3.80614 14.0179 4.18993 14.0179H36.8101C37.1939 14.0179 37.505 14.3215 37.505 14.6959V38.6441H39.6102V11.6873L20.5 1.45139L1.38983 11.6873ZM16.3101 8.25523C16.3101 7.8808 16.6212 7.57727 17.005 7.57727H23.995C24.3788 7.57727 24.6899 7.8808 24.6899 8.25523V11.2861C24.6899 11.6606 24.3788 11.9641 23.995 11.9641H17.005C16.6212 11.9641 16.3101 11.6606 16.3101 11.2861V8.25523ZM17.6999 8.9332V10.6082H23.3001V8.9332H17.6999ZM17.0867 24.1675C17.0867 23.7931 17.3979 23.4895 17.7817 23.4895H33.3151C33.6988 23.4895 34.01 23.7931 34.01 24.1675V39.322C34.01 39.6965 33.6988 40 33.3151 40H10.015C9.63116 40 9.32004 39.6965 9.32004 39.322V31.7448C9.32004 31.3703 9.63116 31.0668 10.015 31.0668H17.0867V24.1675ZM17.0867 32.4227H16.1466V34.0179C16.1466 34.3924 15.8354 34.6959 15.4516 34.6959H12.345C11.9612 34.6959 11.65 34.3924 11.65 34.0179V32.4227H10.7099V38.6441H17.0867V32.4227ZM18.4766 38.6441H24.8534V32.4227H23.9133V34.0179C23.9133 34.3924 23.6021 34.6959 23.2183 34.6959H20.1117C19.7279 34.6959 19.4167 34.3924 19.4167 34.0179V32.4227H18.4766V38.6441ZM18.4766 31.0668H24.8534V24.8455H23.9133V26.4407C23.9133 26.8151 23.6021 27.1186 23.2183 27.1186H20.1117C19.7279 27.1186 19.4167 26.8151 19.4167 26.4407V24.8455H18.4766V31.0668ZM20.8066 24.8455V25.7627H22.5234V24.8455H20.8066ZM26.2433 24.8455V31.0668H32.6201V24.8455H31.68V26.4407C31.68 26.8151 31.3688 27.1186 30.985 27.1186H27.8784C27.4946 27.1186 27.1834 26.8151 27.1834 26.4407V24.8455H26.2433ZM28.5733 24.8455V25.7627H30.2901V24.8455H28.5733ZM32.6201 32.4227H31.68V34.0179C31.68 34.3924 31.3688 34.6959 30.985 34.6959H27.8784C27.4946 34.6959 27.1834 34.3924 27.1834 34.0179V32.4227H26.2433V38.6441H32.6201V32.4227ZM28.5733 32.4227V33.34H30.2901V32.4227H28.5733ZM20.8066 32.4227V33.34H22.5234V32.4227H20.8066ZM13.0399 32.4227V33.34H14.7567V32.4227H13.0399Z" fill="#FF4500"/>
</svg>
