<svg width="112" height="67" viewBox="0 0 112 67" fill="none" xmlns="http://www.w3.org/2000/svg">
<path d="M11.541 66.7768H99.1565L55.5812 23.2021L11.541 66.7768Z" fill="#7BB51C"/>
<path d="M9.8661 64.6334L16.6922 57.9743L14.4185 55.6424L10.1311 59.8267L2.57836 52.083L0.0390625 54.5603L9.8661 64.6334Z" fill="black"/>
<path d="M18.1912 56.4572L25.1855 49.6318L23.2648 47.6642L18.8237 51.9965L16.6911 49.8102L20.2499 46.338L18.2399 44.2794L14.6811 47.7496L12.854 45.8769L17.149 41.6857L15.2295 39.7188L8.25732 46.5214L18.1912 56.4572Z" fill="black"/>
<path d="M41.084 24.1011C38.2632 21.2096 33.37 21.5555 31.0134 23.8551C28.6563 26.1547 27.4534 30.74 30.782 34.1521C34.4382 37.8993 38.7882 36.5383 41.1453 34.24C44.6206 30.8494 43.3836 26.4583 41.084 24.1011ZM39.0108 32.2598C37.4505 33.7821 35.5431 33.3691 33.3636 31.1346C31.532 29.2575 31.6421 27.3715 32.974 26.0719C33.8898 25.1782 35.7499 24.3788 37.9628 26.6474C40.4876 29.2354 40.5711 30.7374 39.0108 32.2598Z" fill="black"/>
<path d="M48.9503 26.5018L51.5307 23.9833L47.6487 20.0046L45.3251 10.3369L42.3671 13.2234L43.9058 18.708L38.7071 16.7936L35.918 19.5144L44.7812 22.3605L48.9503 26.5018Z" fill="black"/>
<path d="M35.1926 39.9406C35.1926 39.9406 28.9124 37.7978 28.6139 37.8497C28.5171 37.8655 29.9629 34.0183 26.7146 32.3132C26.7146 32.3132 24.3044 31.0085 21.8922 33.1999L16.751 38.2665L26.6621 48.2478L29.2843 45.6896L23.9211 40.1936L32.5907 42.4792L35.1926 39.9406ZM25.4655 38.57C24.0084 39.9893 23.8117 40.1012 23.8117 40.1012C23.8117 40.1012 21.5273 37.7599 21.4463 37.677C21.3653 37.5942 23.0799 36.1244 23.35 35.8606C23.4645 35.7487 24.532 35.0523 25.4156 35.9574C25.4156 35.9574 26.9221 37.1483 25.4655 38.57Z" fill="black"/>
<path d="M48.1487 12.2424L45.8555 9.93013L55.8672 0L59.1439 3.3033L55.537 10.4019L62.8906 7.08093L66.0433 10.2603L56.0316 20.1904L53.615 17.7542L58.8998 12.5131L51.6702 15.793L50.1758 14.2858L53.536 7.06323L48.1487 12.2424Z" fill="black"/>
<path d="M65.5336 29.769L58.5918 22.7709L68.6041 12.8408L75.5655 19.8598L73.543 21.8659L69.1816 17.4691L67.5505 19.0863L70.9904 22.5547L68.8843 24.643L65.4653 21.1955L63.277 23.3655L67.5973 27.7212L65.5336 29.769Z" fill="black"/>
<path d="M88.4245 32.8232L91.0042 35.4251L83.4281 42.9387L87.6662 47.2103L85.2299 49.6281L78.4121 42.754L88.4245 32.8232Z" fill="black"/>
<path d="M87.0308 51.4458L97.0431 41.5156L99.5615 44.0543L89.5492 53.9838L87.0308 51.4458Z" fill="black"/>
<path d="M94.116 58.5895L91.7607 56.2147L101.774 46.2852L105.193 49.7308L102.271 60.041L108.899 53.4673L111.192 55.7795L101.18 65.709L98.1903 62.696L100.765 51.8722L94.116 58.5895Z" fill="black"/>
<path d="M83.8999 28.2615L77.8189 22.1299L67.7856 32.0398L70.3654 34.6404L75.8355 29.2152L73.8667 38.1708L76.5078 40.834C76.5078 40.834 78.5898 34.4279 78.6537 34.161C78.6537 34.161 80.9097 35.4038 83.3851 33.2756C83.3851 33.2756 85.7593 30.9621 83.8999 28.2615ZM80.1868 31.1657C80.1868 31.1657 78.9086 32.024 77.7822 30.8887L76.0227 29.0306C76.0227 29.0306 78.1484 26.922 78.4165 26.6557C78.4165 26.6557 80.0546 28.3077 80.2595 28.5139C80.4638 28.72 81.7552 29.6915 80.1868 31.1657Z" fill="black"/>
</svg>
