<svg width="174" height="55" viewBox="0 0 174 55" fill="none" xmlns="http://www.w3.org/2000/svg">
<path d="M11.7542 46.3501C4.41063 46.3501 0.424805 41.0665 0.424805 34.4319C0.424805 27.749 5.11117 22.2725 12.8171 22.2725C14.8704 22.2725 16.6338 22.5378 18.1798 23.334V27.6525C16.1265 26.4462 14.5081 26.205 12.9862 26.205C7.76839 26.205 5.83586 30.041 5.83586 34.0941C5.83586 38.6057 8.27567 42.1763 12.5272 42.1763C14.4114 42.1763 15.9091 41.6455 17.7209 40.6805L19.0253 44.1787C16.2956 45.9158 13.9766 46.3501 11.7542 46.3501ZM94.2004 46.3501C88.7652 46.3501 85.9872 42.3693 85.9872 37.6165C85.9872 32.3088 89.659 28.7864 94.5869 28.7864C96.761 28.7864 97.8963 29.2207 98.8143 29.7515V33.5634C97.6065 32.6948 96.6402 32.3812 95.2874 32.3812C92.5094 32.3812 90.7219 34.4319 90.7219 37.3753C90.7219 40.005 92.0988 42.5864 95.215 42.5864C96.0846 42.5864 97.2441 42.2004 98.4761 41.5732L99.6356 44.7336C98.2587 45.6745 95.9155 46.3501 94.2004 46.3501ZM109.298 32.9361V46.0123H104.467V32.9361H99.7805V29.1242H114.589L113.55 32.9361H109.298ZM132.609 31.1025C132.609 36.9892 132.368 40.0532 131.305 41.4766C130.773 42.1763 129.928 42.6588 129.058 42.7794L130.387 46.3501C131.498 46.3259 133.189 45.8434 134.373 44.6854C135.919 43.1896 136.426 41.2836 136.643 39.2571C136.837 37.5441 136.982 35.5417 136.982 33.7805V32.9361H140.774V46.0123H145.605V29.1242H132.633V31.1025H132.609ZM77.9431 28.7864C76.0589 28.7864 74.6336 29.7032 73.3775 30.6683L72.846 29.1242H68.7877V54.2392L73.619 52.7675V45.6504C74.4887 46.1088 75.624 46.3501 76.8802 46.3501C81.8564 46.3501 84.876 42.1039 84.876 37.0857C84.876 31.7298 81.8323 28.7864 77.9431 28.7864ZM75.6965 42.8518C74.8269 42.8518 74.1505 42.5623 73.619 42.1763V34.1906C74.1988 33.3221 75.6965 32.2847 76.9768 32.2847C78.9093 32.2847 80.0688 33.5151 80.0688 36.9892C80.0447 39.8843 78.9818 42.8518 75.6965 42.8518ZM121.521 28.7864C119.251 28.7864 117.028 29.1483 114.733 30.6441L116.183 33.5634C117.318 32.912 118.792 32.4295 120.483 32.4295C122.149 32.4295 123.647 33.1774 123.647 34.9385V35.228L120.724 35.3487C116.449 35.4934 113.574 37.327 113.574 40.8976C113.574 44.2511 115.99 46.3742 119.202 46.3742C121.376 46.3742 122.874 45.5539 123.961 44.5648L124.71 46.0364H128.478V35.0592C128.503 30.5959 126.015 28.7864 121.521 28.7864ZM123.671 41.8144C123.212 42.1763 122.246 42.5864 120.966 42.5864C119.323 42.5864 118.405 41.7662 118.405 40.4875C118.405 39.2088 119.396 38.5092 121.473 38.4127L123.671 38.3403V41.8144ZM154.954 34.6008H152.466V28.3763L147.635 29.655V45.9882H153.819C158.312 45.9882 162.491 44.7819 162.491 40.1256C162.491 36.2172 159.109 34.6008 154.954 34.6008ZM154.157 42.6829H152.49V37.9543H154.109C155.824 37.9543 157.684 38.2197 157.684 40.2221C157.684 42.2004 156.065 42.6829 154.157 42.6829ZM47.1435 36.8204V36.6756C48.7137 36.3378 50.0181 35.3004 50.0181 33.105C50.0181 30.4753 47.7957 29.5102 45.6216 29.2207C44.9453 29.1242 43.4959 29.1242 42.6745 29.1242H35.7899V46.0123H41.5875C42.2397 46.0123 43.1818 46.0123 43.9307 45.9882C46.9744 45.8434 50.7428 44.7578 50.7428 40.8252C50.7187 38.4127 49.4142 37.2064 47.1435 36.8204ZM40.7179 32.3329H42.6987C44.6795 32.3329 45.4042 32.9361 45.4042 33.9735C45.4042 35.2763 44.1964 35.6864 42.1914 35.6864H40.7179V32.3329ZM42.5779 42.8036H40.5971V38.6539H42.3364C44.6554 38.6539 45.8874 39.1847 45.8874 40.7046C45.9115 42.2969 44.2689 42.8036 42.5779 42.8036ZM34.2198 37.4235C34.2198 32.2123 31.007 28.7864 26.3931 28.7864C21.3443 28.7864 18.4939 32.8637 18.4939 37.6165C18.4939 42.0557 20.982 46.3501 26.997 46.3501C29.0261 46.3501 31.321 45.8917 33.6642 44.42L32.6013 41.3801C30.6929 42.2969 29.4609 42.5864 27.8183 42.5864C25.5717 42.5864 23.4218 41.1871 23.3252 38.9193H34.2439V37.4235H34.2198ZM23.2044 35.5658C23.2044 34.0218 24.3156 32.2847 26.2481 32.2847C28.3014 32.2847 29.1952 33.9494 29.2918 35.5658H23.2044ZM67.435 37.4235C67.435 32.2123 64.2222 28.7864 59.6083 28.7864C54.5596 28.7864 51.7091 32.8637 51.7091 37.6165C51.7091 42.0557 54.1972 46.3501 60.2122 46.3501C62.2413 46.3501 64.5362 45.8917 66.8794 44.42L65.8165 41.3801C63.9081 42.2969 62.6761 42.5864 61.0335 42.5864C58.7869 42.5864 56.637 41.1871 56.5404 38.9193H67.4591V37.4235H67.435ZM56.4196 35.5658C56.4196 34.0218 57.5308 32.2847 59.4633 32.2847C61.5166 32.2847 62.4104 33.9494 62.507 35.5658H56.4196Z" fill="#002F6C"/>
<path d="M171.09 17.1816C170.824 17.3747 170.535 17.5194 170.245 17.6159C169.278 17.9054 168.119 17.64 167.056 17.2058C166.307 16.8921 165.51 16.482 164.689 15.9754C165.124 14.9138 165.534 13.7075 165.872 12.3806C166.404 10.3058 166.67 8.49633 166.718 6.90403C166.742 5.91487 166.694 5.02221 166.597 4.1778C166.452 3.04389 166.09 1.88585 165.365 1.21032C165.124 0.993191 164.858 0.82431 164.52 0.679555C166.017 0.510674 167.37 0.510674 168.554 0.583051C169.81 0.679555 171.066 0.993191 171.791 1.71697C172.54 2.44074 172.854 3.69529 172.974 4.94983C173.095 6.132 173.095 7.48305 172.974 8.97885C172.829 10.4747 172.54 12.1393 172.056 13.9729C171.767 15.1309 171.428 16.2407 171.09 17.1816ZM152.852 16.2649C152.828 15.9271 152.828 15.6135 152.9 15.324C153.118 14.3589 153.939 13.4663 154.857 12.7666C155.509 12.26 156.258 11.7775 157.104 11.3191C157.804 12.2117 158.65 13.1768 159.616 14.1418C161.138 15.6376 162.587 16.7715 163.964 17.6159C164.81 18.1467 165.607 18.5568 166.38 18.8705C167.443 19.3047 168.602 19.5701 169.568 19.2806C169.858 19.1841 170.172 19.0152 170.438 18.8222C169.834 20.2215 169.158 21.3795 168.505 22.3687C167.781 23.382 166.887 24.3229 165.897 24.6124C164.906 24.9019 163.65 24.54 162.515 24.0334C161.428 23.5509 160.268 22.8753 159.012 22.0068C157.78 21.1383 156.5 20.0526 155.147 18.7257C154.277 17.8813 153.504 17.0369 152.852 16.2649ZM162.756 0.944939C163.07 1.08969 163.336 1.25858 163.553 1.45158C164.302 2.12711 164.64 3.28515 164.785 4.41906C164.882 5.21522 164.93 6.10787 164.906 7.07291C163.771 7.21766 162.539 7.48305 161.21 7.84494C159.157 8.42396 157.442 9.09948 156.041 9.84738C155.171 10.3058 154.398 10.8124 153.746 11.3191C152.852 12.0187 152.007 12.8872 151.789 13.8764C151.717 14.19 151.717 14.5278 151.741 14.8656C150.847 13.6351 150.171 12.4771 149.639 11.4156C149.108 10.2816 148.745 9.0271 149.011 8.03794C149.277 7.02466 150.195 6.132 151.209 5.3841C152.176 4.68445 153.335 4.00892 154.712 3.38165C156.089 2.75438 157.659 2.17536 159.495 1.66872C160.63 1.3792 161.742 1.13795 162.756 0.944939Z" fill="#002F6C"/>
</svg>
