<svg width="220" height="26" viewBox="0 0 220 26" fill="none" xmlns="http://www.w3.org/2000/svg">
<path d="M7.43407 25.4317L0.75 1.32079H5.13457L10.271 19.8398L15.7752 1.31902L19.8623 1.32079L25.3857 19.9376L30.545 1.32524L34.9295 1.31902L28.2418 25.4281L23.1592 25.4228L17.8211 7.41675L12.4756 25.4272L7.43407 25.4317ZM37.9536 1.33324H42.1274V25.4165H37.9536V1.33324ZM51.0516 21.6386H61.2123V25.4165H46.9636V1.33324H51.0516V21.6386ZM74.0512 1.36081C77.4767 1.36081 80.3265 2.52736 82.5721 4.83291C84.8461 7.13845 85.9967 9.99971 85.9967 13.3882C85.9967 16.7492 84.8461 19.6104 82.5712 21.9444C80.3265 24.25 77.4767 25.4165 74.0512 25.4165H64.2354V1.33324H74.0512V1.36081ZM74.0512 21.6661C76.4118 21.6661 78.34 20.889 79.7799 19.333C81.2764 17.777 82.0246 15.7774 82.0246 13.4167C82.0246 11 81.2764 9.05544 79.7799 7.49944C78.3108 5.94344 76.3826 5.16633 74.0512 5.16633H68.3517V21.6661H74.0512ZM108.018 18.5364C108.018 20.5103 107.299 22.1498 105.831 23.456C104.363 24.7621 102.635 25.429 100.506 25.429H89.8256V1.33324H99.7281C101.772 1.33324 103.499 2.0001 104.909 3.25112C106.349 4.52882 107.04 6.11416 107.04 8.00359C107.04 10.1153 106.176 11.7273 104.507 12.9223C106.694 14.0337 108.018 16.0352 108.018 18.5364ZM93.9419 5.05697V11.3939H99.7563C101.57 11.3939 102.952 10.0042 102.952 8.22587C102.952 6.44759 101.57 5.05697 99.7563 5.05697H93.9419ZM100.534 21.7044C102.434 21.7044 103.931 20.232 103.931 18.3416C103.931 16.4522 102.434 14.9789 100.534 14.9789H93.9419V21.7328H100.534V21.7044ZM115.992 21.6492H127.046V25.429H111.904V1.33324H126.873V5.1121H115.992V11.3663H125.981V15.1185H115.992V21.6492ZM144.951 25.429L139.654 16.6469H134.817V25.429H130.73V1.33324H140.719C142.964 1.33324 144.864 2.08368 146.39 3.61211C147.944 5.08542 148.75 6.91972 148.75 9.08745C148.75 12.1443 146.764 14.9513 143.799 16.0628L149.469 25.429H144.951ZM134.817 5.05697V13.117H140.69C142.877 13.117 144.605 11.3388 144.605 9.08745C144.605 6.86371 142.849 5.05697 140.69 5.05697H134.817ZM166.799 25.429L161.531 16.6425H156.695V25.429H152.607V1.32079H162.596C164.841 1.32079 166.741 2.07123 168.267 3.60055C169.821 5.07475 170.628 6.90994 170.628 9.07856C170.628 12.1372 168.641 14.946 165.676 16.0583L171.347 25.429H166.799ZM156.695 5.0463V13.1108H162.567C164.755 13.1108 166.482 11.3308 166.482 9.07856C166.482 6.85392 164.726 5.0463 162.567 5.0463H156.695ZM174.341 1.32346H178.429V25.429H174.341V1.32346ZM187.352 21.6492H198.406V25.4281H183.264V1.33324H198.233V5.11387H187.352V11.3672H197.34V15.1194H187.352V21.6492ZM201.256 19.9439L204.796 17.9442C205.804 20.6667 207.848 21.9996 210.985 21.9996C214.094 21.9996 215.619 20.7219 215.619 18.8333C215.619 17.833 215.188 17.1111 214.382 16.6105C213.575 16.0832 212.079 15.4991 209.949 14.8891C207.559 14.1947 206.379 13.7501 204.709 12.6947C203.098 11.5833 202.291 10.0006 202.291 7.83287C202.291 5.69448 203.069 4.02734 204.652 2.77721C206.207 1.49951 208.107 0.888672 210.323 0.888672C214.324 0.888672 217.404 2.88924 219.017 6.19418L215.562 8.11117C214.525 5.88832 212.77 4.75022 210.323 4.75022C207.933 4.75022 206.408 5.91677 206.408 7.75018C206.408 9.52757 207.617 10.3607 211.446 11.4997C212.395 11.8056 213.086 12.0278 213.518 12.1941C213.979 12.3328 214.583 12.5836 215.36 12.8885C216.167 13.1944 216.8 13.5554 217.174 13.8613C218.498 14.8606 219.908 16.5002 219.736 18.8049C219.736 20.9717 218.93 22.7224 217.289 24.0001C215.677 25.2778 213.547 25.8887 210.899 25.8887C206.063 25.8611 202.55 23.6383 201.256 19.9439Z" fill="#AE119E"/>
</svg>
