<svg width="197" height="47" viewBox="0 0 197 47" fill="none" xmlns="http://www.w3.org/2000/svg">
<path fill-rule="evenodd" clip-rule="evenodd" d="M196.425 21.8183V22.7341C196.425 22.7341 195.378 23.1265 195.378 24.4347V45.104C195.378 45.889 194.724 46.4122 194.07 46.4122H190.015L181.119 32.2838C181.119 32.2838 181.25 33.4612 181.25 34.9002V46.4122H176.279V21.8183H179.549C181.25 21.8183 182.427 22.4724 183.212 23.7806L190.669 35.5543C190.669 35.5543 190.407 34.7694 190.407 32.9379V21.8183H196.425ZM101.189 21.8183V45.104C101.189 45.889 100.535 46.4122 99.8808 46.4122H95.6946L86.7989 32.2838C86.7989 32.2838 86.9297 33.4612 86.9297 34.9002V46.4122H81.9586V21.8183H85.2291C86.9297 21.8183 88.1071 22.4724 88.892 23.7806L96.3487 35.5543C96.3487 35.5543 96.087 34.7694 96.087 32.9379V21.8183C96.2178 21.8183 101.189 21.8183 101.189 21.8183ZM39.7042 21.8183H33.0324V31.2373H27.2764V21.8183H19.5581V22.7341C19.5581 22.7341 20.6047 23.1265 20.6047 24.4347V46.4122H27.2764V35.8159H33.0324V46.4122H39.7042V21.8183ZM61.2893 21.8183H46.5068V44.1883C46.5068 45.4965 47.6841 46.4122 48.9923 46.4122H61.2893C62.0742 46.4122 62.5974 45.7581 62.5974 45.104V41.9644H54.0942C53.571 41.9644 53.0477 41.5719 53.0477 40.9178V35.6851H60.6352V31.2373H53.0477V26.2662H62.4666V23.1265C62.5974 22.4724 61.9434 21.8183 61.2893 21.8183ZM75.2869 21.8183H68.6151V45.104C68.6151 45.889 69.2692 46.4122 69.9233 46.4122H75.2869V21.8183ZM169.345 21.8183H154.563V44.1883C154.563 45.3657 155.74 46.4122 157.049 46.4122H169.345C170.13 46.4122 170.654 45.7581 170.654 45.104V41.9644H162.15C161.627 41.9644 161.104 41.5719 161.104 40.9178V35.6851H168.691V31.2373H161.104V26.2662H170.523V23.1265C170.654 22.4724 170 21.8183 169.345 21.8183ZM122.643 21.8183H107.861V44.1883C107.861 45.3657 109.038 46.4122 110.346 46.4122H122.643C123.428 46.4122 123.951 45.7581 123.951 45.104V41.9644H115.448C114.925 41.9644 114.402 41.5719 114.402 40.9178V35.6851H121.989V31.2373H114.402V26.2662H123.821V23.1265C123.951 22.4724 123.297 21.8183 122.643 21.8183ZM150.638 21.8183H145.798C144.621 21.8183 143.705 22.08 142.789 23.1265L135.987 30.8448V21.6875H129.315V44.9732C129.315 45.7581 129.969 46.2814 130.623 46.2814H135.987V35.1618L141.874 44.3191C142.789 45.6273 143.574 46.4122 145.667 46.4122H151.162L141.874 31.8914L150.638 21.8183Z" fill="#005127"/>
<path fill-rule="evenodd" clip-rule="evenodd" d="M6.73862 30.9758C6.6078 31.1066 6.34616 31.1066 6.21534 30.845C6.08452 30.7142 6.08452 30.5834 6.21534 30.4525C6.34616 29.9293 9.74745 19.333 9.74745 19.333L0.328502 12.5304C0.0668647 12.2688 0.197683 11.7455 0.590139 11.7455C1.11341 11.7455 12.1022 11.7455 12.1022 11.7455C12.1022 11.7455 15.5035 1.14917 15.6343 0.625895C15.7651 0.495076 15.8959 0.364258 16.1576 0.364258C16.2884 0.364258 16.4192 0.495076 16.4192 0.625895C16.55 1.14917 19.9513 11.7455 19.9513 11.7455C19.9513 11.7455 30.8092 11.7455 31.4633 11.7455C31.8558 11.7455 31.9866 12.2688 31.725 12.5304L26.2306 16.5858H19.6897L17.7274 10.3065L15.7651 16.5858H9.22417L14.5877 20.5103L12.6255 26.7896L6.73862 30.9758Z" fill="#D8232A"/>
</svg>
