<svg width="278" height="48" viewBox="0 0 278 48" fill="none" xmlns="http://www.w3.org/2000/svg">
<path d="M47.4149 38.5039L38.0694 47.9355H3.57248L0.75 45.0871V10.2724L10.0955 0.84082H44.5925L47.4149 3.68929V38.5039Z" fill="#ED1C24"/>
<path d="M44.5925 0.84082L34.1179 11.4118V26.8569L25.5251 14.9566H7.3985V18.6912H12.7298V32.9969L0.75 45.0871V47.9355H3.57248L16.744 34.6427V18.6912H22.0754V33.7565H26.0268V21.8562L34.6197 33.7565H38.0067V13.1209L47.4149 3.68929V0.84082H44.5925Z" fill="white"/>
<path d="M62.3435 19.5771H56.7612V15.0195H73.1316V19.5771H67.5494V33.8194H62.4062L62.3435 19.5771Z" fill="black"/>
<path d="M75.8274 14.9561H90.8179V19.387H80.9078V22.2355H89.877V26.3499H80.9078V29.325H90.9433V33.756H75.7646V14.9561H75.8274Z" fill="black"/>
<path d="M99.5363 24.1978L93.3896 14.9561H99.3481L102.672 20.2732L105.997 14.9561H111.83L105.683 24.1345L112.081 33.756H106.122L102.547 28.059L98.9718 33.756H93.1387L99.5363 24.1978Z" fill="black"/>
<path d="M114.464 14.9561H119.607V21.9823H126.256V14.9561H131.399V33.8193H126.256V26.6664H119.607V33.8193H114.464V14.9561Z" fill="black"/>
<path d="M134.598 24.3885C134.598 19.0081 138.925 14.5771 144.696 14.5771C150.466 14.5771 154.731 18.8815 154.731 24.3885C154.731 29.769 150.404 34.1999 144.633 34.1999C138.863 34.1999 134.598 29.8323 134.598 24.3885ZM149.4 24.3885C149.4 21.6667 147.456 19.3246 144.57 19.3246C141.748 19.3246 139.866 21.6667 139.866 24.3885C139.866 27.1104 141.811 29.4525 144.633 29.4525C147.518 29.4525 149.4 27.1737 149.4 24.3885Z" fill="black"/>
<path d="M157.804 14.9561H163.01V21.9823H169.659V14.9561H174.865V33.8193H169.659V26.6664H163.01V33.8193H157.804V14.9561Z" fill="black"/>
<path d="M178.817 14.9561H183.96V25.5903L191.173 14.9561H196.003V33.8193H190.859V23.185L183.646 33.756H178.817V14.9561Z" fill="black"/>
<path d="M200.016 14.9561H205.159V22.6153L211.557 14.9561H217.704L210.616 23.0584L217.892 33.8193H211.682L207.104 26.793L205.222 28.9452V33.8193H200.079V14.9561H200.016Z" fill="black"/>
<path d="M218.081 24.3885C218.081 19.0081 222.408 14.5771 228.179 14.5771C233.949 14.5771 238.214 18.8815 238.214 24.3885C238.214 29.769 233.886 34.1999 228.116 34.1999C222.346 34.1999 218.081 29.8323 218.081 24.3885ZM232.883 24.3885C232.883 21.6667 230.939 19.3246 228.116 19.3246C225.294 19.3246 223.412 21.6667 223.412 24.3885C223.412 27.1104 225.356 29.4525 228.179 29.4525C231.001 29.4525 232.883 27.1737 232.883 24.3885Z" fill="black"/>
<path d="M261.295 14.9561H266.439V20.9062H269.261C273.714 20.9062 277.039 23.0584 277.039 27.2994C277.039 31.3506 274.091 33.8193 269.575 33.8193H261.295V14.9561ZM269.136 29.4516C270.829 29.4516 271.833 28.692 271.833 27.1728C271.833 25.8435 270.829 25.0207 269.136 25.0207H266.439V29.4516H269.136Z" fill="black"/>
<path d="M242.731 14.9561V23.2483C242.731 25.2106 242.542 28.059 241.288 29.0085C240.661 29.4516 239.72 29.8314 239.093 29.8314V34.2624H239.595C241.413 34.2624 243.421 33.5661 244.173 33.0597C247.309 31.0341 247.686 27.2361 247.686 22.9951V19.5769H252.139V33.8193H257.282V14.9561H242.731Z" fill="black"/>
</svg>
